# Blender 5.1.2
# www.blender.org
mtllib chaser.mtl
o 球
v 0.000000 150.000000 0.000000
v 0.000000 141.573471 -27.778522
v 0.000000 127.778503 -41.573494
v 0.000000 109.754517 -49.039280
v 0.000000 100.000000 -50.000019
v 0.000000 90.245483 -49.039280
v 0.000000 72.221489 -41.573494
v 0.000000 50.000000 0.000000
v 1.903013 149.039276 -9.567089
v 3.732894 146.193985 -18.766521
v 5.419322 141.573471 -27.244766
v 6.897489 135.355347 -34.676006
v 8.110588 127.778503 -40.774670
v 9.012003 119.134178 -45.306385
v 9.567092 109.754517 -48.097004
v 9.754522 100.000000 -49.039280
v 9.567092 90.245483 -48.097004
v 9.012003 80.865822 -45.306385
v 8.110588 72.221489 -40.774670
v 6.897489 64.644661 -34.676006
v 5.419322 58.426521 -27.244766
v 3.732894 53.806026 -18.766521
v 1.903013 50.960739 -9.567089
v 3.732894 149.039276 -9.012001
v 7.322335 146.193985 -17.677677
v 10.630383 141.573471 -25.664005
v 13.529911 135.355347 -32.664085
v 15.909491 127.778503 -38.408897
v 17.677679 119.134178 -42.677685
v 18.766525 109.754517 -45.306385
v 19.134184 100.000000 -46.193989
v 18.766525 90.245483 -45.306385
v 17.677679 80.865822 -42.677685
v 15.909491 72.221489 -38.408897
v 13.529911 64.644661 -32.664085
v 10.630383 58.426521 -25.664005
v 7.322335 53.806026 -17.677677
v 3.732894 50.960739 -9.012001
v 5.419322 149.039276 -8.110586
v 10.630383 146.193985 -15.909489
v 15.432923 141.573471 -23.096992
v 19.642385 135.355347 -29.396900
v 23.096998 127.778503 -34.567093
v 25.664011 119.134178 -38.408897
v 27.244772 109.754517 -40.774670
v 27.778530 100.000000 -41.573490
v 27.244772 90.245483 -40.774670
v 25.664011 80.865822 -38.408897
v 23.096998 72.221489 -34.567093
v 19.642385 64.644661 -29.396900
v 15.432923 58.426521 -23.096992
v 10.630383 53.806026 -15.909489
v 5.419322 50.960739 -8.110586
v 6.897488 149.039276 -6.897486
v 13.529911 146.193985 -13.529906
v 19.642384 141.573471 -19.642378
v 25.000015 135.355347 -25.000010
v 29.396904 127.778503 -29.396894
v 32.664089 119.134178 -32.664085
v 34.676014 109.754517 -34.676006
v 35.355362 100.000000 -35.355343
v 34.676014 90.245483 -34.676006
v 32.664089 80.865822 -32.664085
v 29.396904 72.221489 -29.396894
v 25.000015 64.644661 -25.000010
v 19.642384 58.426521 -19.642378
v 13.529911 53.806026 -13.529906
v 6.897488 50.960739 -6.897486
v 8.110588 149.039276 -5.419320
v 15.909492 146.193985 -10.630380
v 23.097000 141.573471 -15.432917
v 29.396906 135.355347 -19.642382
v 34.567104 127.778503 -23.096991
v 38.408905 119.134178 -25.664009
v 40.774681 109.754517 -27.244761
v 41.573502 100.000000 -27.778511
v 40.774681 90.245483 -27.244761
v 38.408905 80.865822 -25.664009
v 34.567104 72.221489 -23.096991
v 29.396906 64.644661 -19.642382
v 23.097000 58.426521 -15.432917
v 15.909492 53.806026 -10.630380
v 8.110588 50.960739 -5.419320
v 9.012001 149.039276 -3.732892
v 17.677679 146.193985 -7.322332
v 25.664011 141.573471 -10.630377
v 32.664093 135.355347 -13.529908
v 38.408905 127.778503 -15.909481
v 42.677692 119.134178 -17.677677
v 45.306393 109.754517 -18.766514
v 46.193996 100.000000 -19.134169
v 45.306393 90.245483 -18.766514
v 42.677692 80.865822 -17.677677
v 38.408905 72.221489 -15.909481
v 32.664093 64.644661 -13.529908
v 25.664011 58.426521 -10.630377
v 17.677679 53.806026 -7.322332
v 9.012001 50.960739 -3.732892
v 9.567089 149.039276 -1.903011
v 18.766523 146.193985 -3.732892
v 27.244770 141.573471 -5.419318
v 34.676014 135.355347 -6.897488
v 40.774673 127.778503 -8.110581
v 45.306393 119.134178 -9.012003
v 48.097012 109.754517 -9.567084
v 49.039284 100.000000 -9.754510
v 48.097012 90.245483 -9.567084
v 45.306393 80.865822 -9.012003
v 40.774673 72.221489 -8.110581
v 34.676014 64.644661 -6.897488
v 27.244770 58.426521 -5.419318
v 18.766523 53.806026 -3.732892
v 9.567089 50.960739 -1.903011
v 9.754519 149.039276 0.000001
v 19.134182 146.193985 0.000001
v 27.778522 141.573471 0.000003
v 35.355358 135.355347 -0.000001
v 41.573498 127.778503 0.000004
v 46.194000 119.134178 -0.000002
v 49.039288 109.754517 0.000004
v 50.000015 100.000000 0.000008
v 49.039288 90.245483 0.000004
v 46.194000 80.865822 -0.000002
v 41.573498 72.221489 0.000004
v 35.355358 64.644661 -0.000001
v 27.778522 58.426521 0.000003
v 19.134182 53.806026 0.000001
v 9.754519 50.960739 0.000001
v 9.567088 149.039276 1.903012
v 18.766523 146.193985 3.732894
v 27.244766 141.573471 5.419322
v 34.676014 135.355347 6.897486
v 40.774670 127.778503 8.110590
v 45.306393 119.134178 9.011998
v 48.097008 109.754517 9.567092
v 49.039276 100.000000 9.754525
v 48.097008 90.245483 9.567092
v 45.306393 80.865822 9.011998
v 40.774670 72.221489 8.110590
v 34.676014 64.644661 6.897486
v 27.244766 58.426521 5.419322
v 18.766523 53.806026 3.732894
v 9.567088 50.960739 1.903012
v 9.012000 149.039276 3.732893
v 17.677679 146.193985 7.322333
v 25.664005 141.573471 10.630381
v 32.664089 135.355347 13.529905
v 38.408897 127.778503 15.909489
v 42.677692 119.134178 17.677671
v 45.306389 109.754517 18.766521
v 46.193981 100.000000 19.134180
v 45.306389 90.245483 18.766521
v 42.677692 80.865822 17.677671
v 38.408897 72.221489 15.909489
v 32.664089 64.644661 13.529905
v 25.664005 58.426521 10.630381
v 17.677679 53.806026 7.322333
v 9.012000 50.960739 3.732893
v 8.110585 149.039276 5.419319
v 15.909490 146.193985 10.630380
v 23.096992 141.573471 15.432918
v 29.396904 135.355347 19.642378
v 34.567093 127.778503 23.096992
v 38.408905 119.134178 25.664003
v 40.774670 109.754517 27.244762
v 41.573483 100.000000 27.778521
v 40.774670 90.245483 27.244762
v 38.408905 80.865822 25.664003
v 34.567093 72.221489 23.096992
v 29.396904 64.644661 19.642378
v 23.096992 58.426521 15.432918
v 15.909490 53.806026 10.630380
v 8.110585 50.960739 5.419319
v 6.897485 149.039276 6.897484
v 13.529906 146.193985 13.529906
v 19.642376 141.573471 19.642378
v 25.000011 135.355347 25.000006
v 29.396894 127.778503 29.396894
v 32.664089 119.134178 32.664078
v 34.676006 109.754517 34.676006
v 35.355331 100.000000 35.355347
v 34.676006 90.245483 34.676006
v 32.664089 80.865822 32.664078
v 29.396894 72.221489 29.396894
v 25.000011 64.644661 25.000006
v 19.642376 58.426521 19.642378
v 13.529906 53.806026 13.529906
v 6.897485 50.960739 6.897484
v 5.419319 149.039276 8.110583
v 10.630379 146.193985 15.909487
v 15.432914 141.573471 23.096992
v 19.642384 135.355347 29.396896
v 23.096991 127.778503 34.567089
v 25.664011 119.134178 38.408894
v 27.244761 109.754517 40.774666
v 27.778502 100.000000 41.573483
v 27.244761 90.245483 40.774666
v 25.664011 80.865822 38.408894
v 23.096991 72.221489 34.567089
v 19.642384 64.644661 29.396896
v 15.432914 58.426521 23.096992
v 10.630379 53.806026 15.909487
v 5.419319 50.960739 8.110583
v 3.732891 149.039276 9.011996
v 7.322331 146.193985 17.677673
v 10.630374 141.573471 25.664000
v 13.529908 135.355347 32.664082
v 15.909482 127.778503 38.408890
v 17.677679 119.134178 42.677673
v 18.766514 109.754517 45.306377
v 19.134159 100.000000 46.193974
v 18.766514 90.245483 45.306377
v 17.677679 80.865822 42.677673
v 15.909482 72.221489 38.408890
v 13.529908 64.644661 32.664082
v 10.630374 58.426521 25.664000
v 7.322331 53.806026 17.677673
v 3.732891 50.960739 9.011996
v 1.903011 149.039276 9.567083
v 3.732890 146.193985 18.766516
v 5.419315 141.573471 27.244755
v 6.897487 135.355347 34.676006
v 8.110581 127.778503 40.774658
v 9.012003 119.134178 45.306377
v 9.567081 109.754517 48.096992
v 9.754501 100.000000 49.039257
v 9.567081 90.245483 48.096992
v 9.012003 80.865822 45.306377
v 8.110581 72.221489 40.774658
v 6.897487 64.644661 34.676006
v 5.419315 58.426521 27.244755
v 3.732890 53.806026 18.766516
v 1.903011 50.960739 9.567083
v -0.000000 149.039276 9.754513
v -0.000003 146.193985 19.134174
v -0.000005 141.573471 27.778507
v -0.000001 135.355347 35.355347
v -0.000005 127.778503 41.573483
v 0.000001 119.134178 46.193981
v -0.000007 109.754517 49.039265
v -0.000016 100.000000 49.999985
v -0.000007 90.245483 49.039265
v 0.000001 80.865822 46.193981
v -0.000005 72.221489 41.573483
v -0.000001 64.644661 35.355347
v -0.000005 58.426521 27.778507
v -0.000003 53.806026 19.134174
v -0.000000 50.960739 9.754513
v -1.903012 149.039276 9.567082
v -3.732896 146.193985 18.766516
v -5.419324 141.573471 27.244751
v -6.897488 135.355347 34.676003
v -8.110591 127.778503 40.774654
v -9.011999 119.134178 45.306374
v -9.567095 109.754517 48.096989
v -9.754532 100.000000 49.039246
v -9.567095 90.245483 48.096989
v -9.011999 80.865822 45.306374
v -8.110591 72.221489 40.774654
v -6.897488 64.644661 34.676003
v -5.419324 58.426521 27.244751
v -3.732896 53.806026 18.766516
v -1.903012 50.960739 9.567082
v -3.732891 149.039276 9.011994
v -7.322335 146.193985 17.677671
v -10.630382 141.573471 25.663990
v -13.529908 135.355347 32.664078
v -15.909491 127.778503 38.408886
v -17.677673 119.134178 42.677673
v -18.766525 109.754517 45.306370
v -19.134186 100.000000 46.193954
v -18.766525 90.245483 45.306370
v -17.677673 80.865822 42.677673
v -15.909491 72.221489 38.408886
v -13.529908 64.644661 32.664078
v -10.630382 58.426521 25.663990
v -7.322335 53.806026 17.677671
v -3.732891 50.960739 9.011994
v -5.419318 149.039276 8.110580
v -10.630382 146.193985 15.909483
v -15.432919 141.573471 23.096979
v -19.642384 135.355347 29.396894
v -23.096996 127.778503 34.567081
v -25.664003 119.134178 38.408890
v -27.244770 109.754517 40.774654
v -27.778522 100.000000 41.573456
v -27.244770 90.245483 40.774654
v -25.664003 80.865822 38.408890
v -23.096996 72.221489 34.567081
v -19.642384 64.644661 29.396894
v -15.432919 58.426521 23.096979
v -10.630382 53.806026 15.909483
v -5.419318 50.960739 8.110580
v -6.897483 149.039276 6.897481
v -13.529908 146.193985 13.529902
v -19.642378 141.573471 19.642363
v -25.000011 135.355347 25.000004
v -29.396898 127.778503 29.396881
v -32.664082 119.134178 32.664078
v -34.676010 109.754517 34.675991
v -35.355347 100.000000 35.355309
v -34.676010 90.245483 34.675991
v -32.664082 80.865822 32.664078
v -29.396898 72.221489 29.396881
v -25.000011 64.644661 25.000004
v -19.642378 58.426521 19.642363
v -13.529908 53.806026 13.529902
v -6.897483 50.960739 6.897481
v -8.110582 149.039276 5.419316
v -15.909488 146.193985 10.630375
v -23.096991 141.573471 15.432903
v -29.396900 135.355347 19.642376
v -34.567093 127.778503 23.096979
v -38.408897 119.134178 25.664000
v -40.774670 109.754517 27.244745
v -41.573483 100.000000 27.778481
v -40.774670 90.245483 27.244745
v -38.408897 80.865822 25.664000
v -34.567093 72.221489 23.096979
v -29.396900 64.644661 19.642376
v -23.096991 58.426521 15.432903
v -15.909488 53.806026 10.630375
v -8.110582 50.960739 5.419316
v -9.011996 149.039276 3.732889
v -17.677673 146.193985 7.322329
v -25.663996 141.573471 10.630365
v -32.664085 135.355347 13.529903
v -38.408894 127.778503 15.909472
v -42.677677 119.134178 17.677670
v -45.306385 109.754517 18.766500
v -46.193970 100.000000 19.134142
v -45.306385 90.245483 18.766500
v -42.677677 80.865822 17.677670
v -38.408894 72.221489 15.909472
v -32.664085 64.644661 13.529903
v -25.663996 58.426521 10.630365
v -17.677673 53.806026 7.322329
v -9.011996 50.960739 3.732889
v -9.567083 149.039276 1.903010
v -18.766518 146.193985 3.732889
v -27.244751 141.573471 5.419310
v -34.676010 135.355347 6.897484
v -40.774662 127.778503 8.110575
v -45.306381 119.134178 9.011998
v -48.097000 109.754517 9.567073
v -49.039249 100.000000 9.754489
v -48.097000 90.245483 9.567073
v -45.306381 80.865822 9.011998
v -40.774662 72.221489 8.110575
v -34.676010 64.644661 6.897484
v -27.244751 58.426521 5.419310
v -18.766518 53.806026 3.732889
v -9.567083 50.960739 1.903010
v -9.754513 149.039276 -0.000001
v -19.134174 146.193985 -0.000003
v -27.778505 141.573471 -0.000007
v -35.355350 135.355347 -0.000001
v -41.573483 127.778503 -0.000008
v -46.193985 119.134178 -0.000001
v -49.039272 109.754517 -0.000013
v -49.999981 100.000000 -0.000022
v -49.039272 90.245483 -0.000013
v -46.193985 80.865822 -0.000001
v -41.573483 72.221489 -0.000008
v -35.355350 64.644661 -0.000001
v -27.778505 58.426521 -0.000007
v -19.134174 53.806026 -0.000003
v -9.754513 50.960739 -0.000001
v -9.567082 149.039276 -1.903012
v -18.766516 146.193985 -3.732894
v -27.244749 141.573471 -5.419324
v -34.676006 135.355347 -6.897487
v -40.774658 127.778503 -8.110591
v -45.306381 119.134178 -9.011998
v -48.096989 109.754517 -9.567099
v -49.039242 100.000000 -9.754533
v -48.096989 90.245483 -9.567099
v -45.306381 80.865822 -9.011998
v -40.774658 72.221489 -8.110591
v -34.676006 64.644661 -6.897487
v -27.244749 58.426521 -5.419324
v -18.766516 53.806026 -3.732894
v -9.567082 50.960739 -1.903012
v -9.011994 149.039276 -3.732891
v -17.677671 146.193985 -7.322332
v -25.663988 141.573471 -10.630379
v -32.664085 135.355347 -13.529905
v -38.408882 127.778503 -15.909487
v -42.677677 119.134178 -17.677668
v -45.306370 109.754517 -18.766523
v -46.193951 100.000000 -19.134182
v -45.306370 90.245483 -18.766523
v -42.677677 80.865822 -17.677668
v -38.408882 72.221489 -15.909487
v -32.664085 64.644661 -13.529905
v -25.663988 58.426521 -10.630379
v -17.677671 53.806026 -7.322332
v -9.011994 50.960739 -3.732891
v -8.110580 149.039276 -5.419317
v -15.909482 146.193985 -10.630377
v -23.096975 141.573471 -15.432914
v -29.396898 135.355347 -19.642378
v -34.567078 127.778503 -23.096991
v -38.408894 119.134178 -25.663996
v -40.774654 109.754517 -27.244762
v -41.573448 100.000000 -27.778513
v -40.774654 90.245483 -27.244762
v -38.408894 80.865822 -25.663996
v -34.567078 72.221489 -23.096991
v -29.396898 64.644661 -19.642378
v -23.096975 58.426521 -15.432914
v -15.909482 53.806026 -10.630377
v -8.110580 50.960739 -5.419317
v -6.897481 149.039276 -6.897481
v -13.529902 146.193985 -13.529902
v -19.642359 141.573471 -19.642370
v -25.000006 135.355347 -25.000004
v -29.396879 127.778503 -29.396889
v -32.664078 119.134178 -32.664070
v -34.675987 109.754517 -34.675999
v -35.355305 100.000000 -35.355331
v -34.675987 90.245483 -34.675999
v -32.664078 80.865822 -32.664070
v -29.396879 72.221489 -29.396889
v -25.000006 64.644661 -25.000004
v -19.642359 58.426521 -19.642370
v -13.529902 53.806026 -13.529902
v -6.897481 50.960739 -6.897481
v -5.419316 149.039276 -8.110579
v -10.630375 146.193985 -15.909481
v -15.432899 141.573471 -23.096979
v -19.642378 135.355347 -29.396894
v -23.096977 127.778503 -34.567081
v -25.664000 119.134178 -38.408886
v -27.244745 109.754517 -40.774654
v -27.778479 100.000000 -41.573463
v -27.244745 90.245483 -40.774654
v -25.664000 80.865822 -38.408886
v -23.096977 72.221489 -34.567081
v -19.642378 64.644661 -29.396894
v -15.432899 58.426521 -23.096979
v -10.630375 53.806026 -15.909481
v -5.419316 50.960739 -8.110579
v -3.732889 149.039276 -9.011992
v -7.322329 146.193985 -17.677668
v -10.630362 141.573471 -25.663984
v -13.529903 135.355347 -32.664078
v -15.909470 127.778503 -38.408878
v -17.677670 119.134178 -42.677666
v -18.766500 109.754517 -45.306366
v -19.134140 100.000000 -46.193947
v -18.766500 90.245483 -45.306366
v -17.677670 80.865822 -42.677666
v -15.909470 72.221489 -38.408878
v -13.529903 64.644661 -32.664078
v -10.630362 58.426521 -25.663984
v -7.322329 53.806026 -17.677668
v -3.732889 50.960739 -9.011992
v -1.903010 149.039276 -9.567079
v -3.732889 146.193985 -18.766512
v -5.419305 141.573471 -27.244736
v -6.897483 135.355347 -34.676003
v -8.110572 127.778503 -40.774643
v -9.011996 119.134178 -45.306366
v -9.567072 109.754517 -48.096977
v -9.754487 100.000000 -49.039227
v -9.567072 90.245483 -48.096977
v -9.011996 80.865822 -45.306366
v -8.110572 72.221489 -40.774643
v -6.897483 64.644661 -34.676003
v -5.419305 58.426521 -27.244736
v -3.732889 53.806026 -18.766512
v -1.903010 50.960739 -9.567079
v 0.000001 149.039276 -9.754509
v 0.000003 146.193985 -19.134169
v 0.000004 135.355347 -35.355343
v 0.000003 119.134178 -46.193970
v 0.000003 80.865822 -46.193970
v 0.000004 64.644661 -35.355343
v 0.000011 58.426521 -27.778486
v 0.000003 53.806026 -19.134169
v 0.000001 50.960739 -9.754509
vn -0.0000 1.0000 -0.0000
vn -0.0000 0.8286 -0.5598
vn -0.0000 0.5528 -0.8333
vn -0.0000 0.1939 -0.9810
vn -0.0000 -0.0000 -1.0000
vn -0.0000 -0.1939 -0.9810
vn -0.0000 -0.5528 -0.8333
vn -0.0000 -1.0000 -0.0000
vn 0.0392 0.9796 -0.1971
vn 0.0757 0.9217 -0.3804
vn 0.1092 0.8286 -0.5490
vn 0.1385 0.7041 -0.6965
vn 0.1626 0.5528 -0.8173
vn 0.1804 0.3805 -0.9070
vn 0.1914 0.1939 -0.9622
vn 0.1951 -0.0000 -0.9808
vn 0.1914 -0.1939 -0.9622
vn 0.1804 -0.3805 -0.9070
vn 0.1626 -0.5528 -0.8173
vn 0.1385 -0.7041 -0.6965
vn 0.1092 -0.8286 -0.5490
vn 0.0757 -0.9217 -0.3804
vn 0.0392 -0.9796 -0.1971
vn 0.0769 0.9796 -0.1857
vn 0.1484 0.9217 -0.3584
vn 0.2142 0.8286 -0.5172
vn 0.2718 0.7041 -0.6561
vn 0.3189 0.5528 -0.7699
vn 0.3539 0.3805 -0.8544
vn 0.3754 0.1939 -0.9063
vn 0.3827 -0.0000 -0.9239
vn 0.3754 -0.1939 -0.9063
vn 0.3539 -0.3805 -0.8544
vn 0.3189 -0.5528 -0.7699
vn 0.2718 -0.7041 -0.6561
vn 0.2142 -0.8286 -0.5172
vn 0.1484 -0.9217 -0.3584
vn 0.0769 -0.9796 -0.1857
vn 0.1117 0.9796 -0.1671
vn 0.2155 0.9217 -0.3225
vn 0.3110 0.8286 -0.4654
vn 0.3945 0.7041 -0.5905
vn 0.4630 0.5528 -0.6929
vn 0.5138 0.3805 -0.7689
vn 0.5450 0.1939 -0.8157
vn 0.5556 -0.0000 -0.8315
vn 0.5450 -0.1939 -0.8157
vn 0.5138 -0.3805 -0.7689
vn 0.4630 -0.5528 -0.6929
vn 0.3945 -0.7041 -0.5905
vn 0.3110 -0.8286 -0.4654
vn 0.2155 -0.9217 -0.3225
vn 0.1117 -0.9796 -0.1671
vn 0.1421 0.9796 -0.1421
vn 0.2743 0.9217 -0.2743
vn 0.3958 0.8286 -0.3958
vn 0.5021 0.7041 -0.5021
vn 0.5893 0.5528 -0.5893
vn 0.6539 0.3805 -0.6539
vn 0.6937 0.1939 -0.6937
vn 0.7071 -0.0000 -0.7071
vn 0.6937 -0.1939 -0.6937
vn 0.6539 -0.3805 -0.6539
vn 0.5893 -0.5528 -0.5893
vn 0.5021 -0.7041 -0.5021
vn 0.3958 -0.8286 -0.3958
vn 0.2743 -0.9217 -0.2743
vn 0.1421 -0.9796 -0.1421
vn 0.1671 0.9796 -0.1117
vn 0.3225 0.9217 -0.2155
vn 0.4654 0.8286 -0.3110
vn 0.5905 0.7041 -0.3945
vn 0.6929 0.5528 -0.4630
vn 0.7689 0.3805 -0.5138
vn 0.8157 0.1939 -0.5450
vn 0.8315 -0.0000 -0.5556
vn 0.8157 -0.1939 -0.5450
vn 0.7689 -0.3805 -0.5138
vn 0.6929 -0.5528 -0.4630
vn 0.5905 -0.7041 -0.3945
vn 0.4654 -0.8286 -0.3110
vn 0.3225 -0.9217 -0.2155
vn 0.1671 -0.9796 -0.1117
vn 0.1857 0.9796 -0.0769
vn 0.3584 0.9217 -0.1484
vn 0.5172 0.8286 -0.2142
vn 0.6561 0.7041 -0.2718
vn 0.7699 0.5528 -0.3189
vn 0.8544 0.3805 -0.3539
vn 0.9063 0.1939 -0.3754
vn 0.9239 -0.0000 -0.3827
vn 0.9063 -0.1939 -0.3754
vn 0.8544 -0.3805 -0.3539
vn 0.7699 -0.5528 -0.3189
vn 0.6561 -0.7041 -0.2718
vn 0.5172 -0.8286 -0.2142
vn 0.3584 -0.9217 -0.1484
vn 0.1857 -0.9796 -0.0769
vn 0.1971 0.9796 -0.0392
vn 0.3804 0.9217 -0.0757
vn 0.5490 0.8286 -0.1092
vn 0.6965 0.7041 -0.1385
vn 0.8173 0.5528 -0.1626
vn 0.9070 0.3805 -0.1804
vn 0.9622 0.1939 -0.1914
vn 0.9808 -0.0000 -0.1951
vn 0.9622 -0.1939 -0.1914
vn 0.9070 -0.3805 -0.1804
vn 0.8173 -0.5528 -0.1626
vn 0.6965 -0.7041 -0.1385
vn 0.5490 -0.8286 -0.1092
vn 0.3804 -0.9217 -0.0757
vn 0.1971 -0.9796 -0.0392
vn 0.2010 0.9796 -0.0000
vn 0.3879 0.9217 -0.0000
vn 0.5598 0.8286 -0.0000
vn 0.7101 0.7041 -0.0000
vn 0.8333 0.5528 -0.0000
vn 0.9248 0.3805 -0.0000
vn 0.9810 0.1939 -0.0000
vn 1.0000 -0.0000 -0.0000
vn 0.9810 -0.1939 -0.0000
vn 0.9248 -0.3805 -0.0000
vn 0.8333 -0.5528 -0.0000
vn 0.7101 -0.7041 -0.0000
vn 0.5598 -0.8286 -0.0000
vn 0.3879 -0.9217 -0.0000
vn 0.2010 -0.9796 -0.0000
vn 0.1971 0.9796 0.0392
vn 0.3804 0.9217 0.0757
vn 0.5490 0.8286 0.1092
vn 0.6965 0.7041 0.1385
vn 0.8173 0.5528 0.1626
vn 0.9070 0.3805 0.1804
vn 0.9622 0.1939 0.1914
vn 0.9808 -0.0000 0.1951
vn 0.9622 -0.1939 0.1914
vn 0.9070 -0.3805 0.1804
vn 0.8173 -0.5528 0.1626
vn 0.6965 -0.7041 0.1385
vn 0.5490 -0.8286 0.1092
vn 0.3804 -0.9217 0.0757
vn 0.1971 -0.9796 0.0392
vn 0.1857 0.9796 0.0769
vn 0.3584 0.9217 0.1484
vn 0.5172 0.8286 0.2142
vn 0.6561 0.7041 0.2718
vn 0.7699 0.5528 0.3189
vn 0.8544 0.3805 0.3539
vn 0.9063 0.1939 0.3754
vn 0.9239 -0.0000 0.3827
vn 0.9063 -0.1939 0.3754
vn 0.8544 -0.3805 0.3539
vn 0.7699 -0.5528 0.3189
vn 0.6561 -0.7041 0.2718
vn 0.5172 -0.8286 0.2142
vn 0.3584 -0.9217 0.1484
vn 0.1857 -0.9796 0.0769
vn 0.1671 0.9796 0.1117
vn 0.3225 0.9217 0.2155
vn 0.4654 0.8286 0.3110
vn 0.5905 0.7041 0.3945
vn 0.6929 0.5528 0.4630
vn 0.7689 0.3805 0.5138
vn 0.8157 0.1939 0.5450
vn 0.8315 -0.0000 0.5556
vn 0.8157 -0.1939 0.5450
vn 0.7689 -0.3805 0.5138
vn 0.6929 -0.5528 0.4630
vn 0.5905 -0.7041 0.3945
vn 0.4654 -0.8286 0.3110
vn 0.3225 -0.9217 0.2155
vn 0.1671 -0.9796 0.1117
vn 0.1421 0.9796 0.1421
vn 0.2743 0.9217 0.2743
vn 0.3958 0.8286 0.3958
vn 0.5021 0.7041 0.5021
vn 0.5893 0.5528 0.5893
vn 0.6539 0.3805 0.6539
vn 0.6937 0.1939 0.6937
vn 0.7071 -0.0000 0.7071
vn 0.6937 -0.1939 0.6937
vn 0.6539 -0.3805 0.6539
vn 0.5893 -0.5528 0.5893
vn 0.5021 -0.7041 0.5021
vn 0.3958 -0.8286 0.3958
vn 0.2743 -0.9217 0.2743
vn 0.1421 -0.9796 0.1421
vn 0.1117 0.9796 0.1671
vn 0.2155 0.9217 0.3225
vn 0.3110 0.8286 0.4654
vn 0.3945 0.7041 0.5905
vn 0.4630 0.5528 0.6929
vn 0.5138 0.3805 0.7689
vn 0.5450 0.1939 0.8157
vn 0.5556 -0.0000 0.8315
vn 0.5450 -0.1939 0.8157
vn 0.5138 -0.3805 0.7689
vn 0.4630 -0.5528 0.6929
vn 0.3945 -0.7041 0.5905
vn 0.3110 -0.8286 0.4654
vn 0.2155 -0.9217 0.3225
vn 0.1117 -0.9796 0.1671
vn 0.0769 0.9796 0.1857
vn 0.1484 0.9217 0.3584
vn 0.2142 0.8286 0.5172
vn 0.2718 0.7041 0.6561
vn 0.3189 0.5528 0.7699
vn 0.3539 0.3805 0.8544
vn 0.3754 0.1939 0.9063
vn 0.3827 -0.0000 0.9239
vn 0.3754 -0.1939 0.9063
vn 0.3539 -0.3805 0.8544
vn 0.3189 -0.5528 0.7699
vn 0.2718 -0.7041 0.6561
vn 0.2142 -0.8286 0.5172
vn 0.1484 -0.9217 0.3584
vn 0.0769 -0.9796 0.1857
vn 0.0392 0.9796 0.1971
vn 0.0757 0.9217 0.3804
vn 0.1092 0.8286 0.5490
vn 0.1385 0.7041 0.6965
vn 0.1626 0.5528 0.8173
vn 0.1804 0.3805 0.9070
vn 0.1914 0.1939 0.9622
vn 0.1951 -0.0000 0.9808
vn 0.1914 -0.1939 0.9622
vn 0.1804 -0.3805 0.9070
vn 0.1626 -0.5528 0.8173
vn 0.1385 -0.7041 0.6965
vn 0.1092 -0.8286 0.5490
vn 0.0757 -0.9217 0.3804
vn 0.0392 -0.9796 0.1971
vn -0.0000 0.9796 0.2010
vn -0.0000 0.9217 0.3879
vn -0.0000 0.8286 0.5598
vn -0.0000 0.7041 0.7101
vn -0.0000 0.5528 0.8333
vn -0.0000 0.3805 0.9248
vn -0.0000 0.1939 0.9810
vn -0.0000 -0.0000 1.0000
vn -0.0000 -0.1939 0.9810
vn -0.0000 -0.3805 0.9248
vn -0.0000 -0.5528 0.8333
vn -0.0000 -0.7041 0.7101
vn -0.0000 -0.8286 0.5598
vn -0.0000 -0.9217 0.3879
vn -0.0000 -0.9796 0.2010
vn -0.0392 0.9796 0.1971
vn -0.0757 0.9217 0.3804
vn -0.1092 0.8286 0.5490
vn -0.1385 0.7041 0.6965
vn -0.1626 0.5528 0.8173
vn -0.1804 0.3805 0.9070
vn -0.1914 0.1939 0.9622
vn -0.1951 -0.0000 0.9808
vn -0.1914 -0.1939 0.9622
vn -0.1804 -0.3805 0.9070
vn -0.1626 -0.5528 0.8173
vn -0.1385 -0.7041 0.6965
vn -0.1092 -0.8286 0.5490
vn -0.0757 -0.9217 0.3804
vn -0.0392 -0.9796 0.1971
vn -0.0769 0.9796 0.1857
vn -0.1484 0.9217 0.3584
vn -0.2142 0.8286 0.5172
vn -0.2718 0.7041 0.6561
vn -0.3189 0.5528 0.7699
vn -0.3539 0.3805 0.8544
vn -0.3754 0.1939 0.9063
vn -0.3827 -0.0000 0.9239
vn -0.3754 -0.1939 0.9063
vn -0.3539 -0.3805 0.8544
vn -0.3189 -0.5528 0.7699
vn -0.2718 -0.7041 0.6561
vn -0.2142 -0.8286 0.5172
vn -0.1484 -0.9217 0.3584
vn -0.0769 -0.9796 0.1857
vn -0.1117 0.9796 0.1671
vn -0.2155 0.9217 0.3225
vn -0.3110 0.8286 0.4654
vn -0.3945 0.7041 0.5905
vn -0.4630 0.5528 0.6929
vn -0.5138 0.3805 0.7689
vn -0.5450 0.1939 0.8157
vn -0.5556 -0.0000 0.8315
vn -0.5450 -0.1939 0.8157
vn -0.5138 -0.3805 0.7689
vn -0.4630 -0.5528 0.6929
vn -0.3945 -0.7041 0.5905
vn -0.3110 -0.8286 0.4654
vn -0.2155 -0.9217 0.3225
vn -0.1117 -0.9796 0.1671
vn -0.1421 0.9796 0.1421
vn -0.2743 0.9217 0.2743
vn -0.3958 0.8286 0.3958
vn -0.5021 0.7041 0.5021
vn -0.5893 0.5528 0.5893
vn -0.6539 0.3805 0.6539
vn -0.6937 0.1939 0.6937
vn -0.7071 -0.0000 0.7071
vn -0.6937 -0.1939 0.6937
vn -0.6539 -0.3805 0.6539
vn -0.5893 -0.5528 0.5893
vn -0.5021 -0.7041 0.5021
vn -0.3958 -0.8286 0.3958
vn -0.2743 -0.9217 0.2743
vn -0.1421 -0.9796 0.1421
vn -0.1671 0.9796 0.1117
vn -0.3225 0.9217 0.2155
vn -0.4654 0.8286 0.3110
vn -0.5905 0.7041 0.3945
vn -0.6929 0.5528 0.4630
vn -0.7689 0.3805 0.5138
vn -0.8157 0.1939 0.5450
vn -0.8315 -0.0000 0.5556
vn -0.8157 -0.1939 0.5450
vn -0.7689 -0.3805 0.5138
vn -0.6929 -0.5528 0.4630
vn -0.5905 -0.7041 0.3945
vn -0.4654 -0.8286 0.3110
vn -0.3225 -0.9217 0.2155
vn -0.1671 -0.9796 0.1117
vn -0.1857 0.9796 0.0769
vn -0.3584 0.9217 0.1484
vn -0.5172 0.8286 0.2142
vn -0.6561 0.7041 0.2718
vn -0.7699 0.5528 0.3189
vn -0.8544 0.3805 0.3539
vn -0.9063 0.1939 0.3754
vn -0.9239 -0.0000 0.3827
vn -0.9063 -0.1939 0.3754
vn -0.8544 -0.3805 0.3539
vn -0.7699 -0.5528 0.3189
vn -0.6561 -0.7041 0.2718
vn -0.5172 -0.8286 0.2142
vn -0.3584 -0.9217 0.1484
vn -0.1857 -0.9796 0.0769
vn -0.1971 0.9796 0.0392
vn -0.3804 0.9217 0.0757
vn -0.5490 0.8286 0.1092
vn -0.6965 0.7041 0.1385
vn -0.8173 0.5528 0.1626
vn -0.9070 0.3805 0.1804
vn -0.9622 0.1939 0.1914
vn -0.9808 -0.0000 0.1951
vn -0.9622 -0.1939 0.1914
vn -0.9070 -0.3805 0.1804
vn -0.8173 -0.5528 0.1626
vn -0.6965 -0.7041 0.1385
vn -0.5490 -0.8286 0.1092
vn -0.3804 -0.9217 0.0757
vn -0.1971 -0.9796 0.0392
vn -0.2010 0.9796 -0.0000
vn -0.3879 0.9217 -0.0000
vn -0.5598 0.8286 -0.0000
vn -0.7101 0.7041 -0.0000
vn -0.8333 0.5528 -0.0000
vn -0.9248 0.3805 -0.0000
vn -0.9810 0.1939 -0.0000
vn -1.0000 -0.0000 -0.0000
vn -0.9810 -0.1939 -0.0000
vn -0.9248 -0.3805 -0.0000
vn -0.8333 -0.5528 -0.0000
vn -0.7101 -0.7041 -0.0000
vn -0.5598 -0.8286 -0.0000
vn -0.3879 -0.9217 -0.0000
vn -0.2010 -0.9796 -0.0000
vn -0.1971 0.9796 -0.0392
vn -0.3804 0.9217 -0.0757
vn -0.5490 0.8286 -0.1092
vn -0.6965 0.7041 -0.1385
vn -0.8173 0.5528 -0.1626
vn -0.9070 0.3805 -0.1804
vn -0.9622 0.1939 -0.1914
vn -0.9808 -0.0000 -0.1951
vn -0.9622 -0.1939 -0.1914
vn -0.9070 -0.3805 -0.1804
vn -0.8173 -0.5528 -0.1626
vn -0.6965 -0.7041 -0.1385
vn -0.5490 -0.8286 -0.1092
vn -0.3804 -0.9217 -0.0757
vn -0.1971 -0.9796 -0.0392
vn -0.1857 0.9796 -0.0769
vn -0.3584 0.9217 -0.1484
vn -0.5172 0.8286 -0.2142
vn -0.6561 0.7041 -0.2718
vn -0.7699 0.5528 -0.3189
vn -0.8544 0.3805 -0.3539
vn -0.9063 0.1939 -0.3754
vn -0.9239 -0.0000 -0.3827
vn -0.9063 -0.1939 -0.3754
vn -0.8544 -0.3805 -0.3539
vn -0.7699 -0.5528 -0.3189
vn -0.6561 -0.7041 -0.2718
vn -0.5172 -0.8286 -0.2142
vn -0.3584 -0.9217 -0.1484
vn -0.1857 -0.9796 -0.0769
vn -0.1671 0.9796 -0.1117
vn -0.3225 0.9217 -0.2155
vn -0.4654 0.8286 -0.3110
vn -0.5905 0.7041 -0.3945
vn -0.6929 0.5528 -0.4630
vn -0.7689 0.3805 -0.5138
vn -0.8157 0.1939 -0.5450
vn -0.8315 -0.0000 -0.5556
vn -0.8157 -0.1939 -0.5450
vn -0.7689 -0.3805 -0.5138
vn -0.6929 -0.5528 -0.4630
vn -0.5905 -0.7041 -0.3945
vn -0.4654 -0.8286 -0.3110
vn -0.3225 -0.9217 -0.2155
vn -0.1671 -0.9796 -0.1117
vn -0.1421 0.9796 -0.1421
vn -0.2743 0.9217 -0.2743
vn -0.3958 0.8286 -0.3958
vn -0.5021 0.7041 -0.5021
vn -0.5893 0.5528 -0.5893
vn -0.6539 0.3805 -0.6539
vn -0.6937 0.1939 -0.6937
vn -0.7071 -0.0000 -0.7071
vn -0.6937 -0.1939 -0.6937
vn -0.6539 -0.3805 -0.6539
vn -0.5893 -0.5528 -0.5893
vn -0.5021 -0.7041 -0.5021
vn -0.3958 -0.8286 -0.3958
vn -0.2743 -0.9217 -0.2743
vn -0.1421 -0.9796 -0.1421
vn -0.1116 0.9796 -0.1671
vn -0.2155 0.9217 -0.3225
vn -0.3110 0.8286 -0.4654
vn -0.3945 0.7041 -0.5905
vn -0.4630 0.5528 -0.6929
vn -0.5138 0.3805 -0.7689
vn -0.5450 0.1939 -0.8157
vn -0.5556 -0.0000 -0.8315
vn -0.5450 -0.1939 -0.8157
vn -0.5138 -0.3805 -0.7689
vn -0.4630 -0.5528 -0.6929
vn -0.3945 -0.7041 -0.5905
vn -0.3110 -0.8286 -0.4654
vn -0.2155 -0.9217 -0.3225
vn -0.1117 -0.9796 -0.1671
vn -0.0769 0.9796 -0.1857
vn -0.1484 0.9217 -0.3584
vn -0.2142 0.8286 -0.5172
vn -0.2718 0.7041 -0.6561
vn -0.3189 0.5528 -0.7699
vn -0.3539 0.3805 -0.8544
vn -0.3754 0.1939 -0.9063
vn -0.3827 -0.0000 -0.9239
vn -0.3754 -0.1939 -0.9063
vn -0.3539 -0.3805 -0.8544
vn -0.3189 -0.5528 -0.7699
vn -0.2718 -0.7041 -0.6561
vn -0.2142 -0.8286 -0.5172
vn -0.1484 -0.9217 -0.3584
vn -0.0769 -0.9796 -0.1857
vn -0.0392 0.9796 -0.1971
vn -0.0757 0.9217 -0.3804
vn -0.1092 0.8286 -0.5490
vn -0.1385 0.7041 -0.6965
vn -0.1626 0.5528 -0.8173
vn -0.1804 0.3805 -0.9070
vn -0.1914 0.1939 -0.9622
vn -0.1951 -0.0000 -0.9808
vn -0.1914 -0.1939 -0.9622
vn -0.1804 -0.3805 -0.9070
vn -0.1626 -0.5528 -0.8173
vn -0.1385 -0.7041 -0.6965
vn -0.1092 -0.8286 -0.5490
vn -0.0757 -0.9217 -0.3804
vn -0.0392 -0.9796 -0.1971
vn -0.0000 0.9796 -0.2010
vn -0.0000 0.9217 -0.3879
vn -0.0000 0.7041 -0.7101
vn -0.0000 0.3805 -0.9248
vn -0.0000 -0.3805 -0.9248
vn -0.0000 -0.7041 -0.7101
vn -0.0000 -0.8286 -0.5598
vn -0.0000 -0.9217 -0.3879
vn -0.0000 -0.9796 -0.2010
vt 0.750000 0.625000
vt 0.718750 0.562500
vt 0.750000 0.562500
vt 0.750000 0.125000
vt 0.718750 0.062500
vt 0.750000 0.062500
vt 0.718750 0.500000
vt 0.750000 0.500000
vt 0.750000 0.937500
vt 0.734375 1.000000
vt 0.718750 0.937500
vt 0.734375 0.000000
vt 0.718750 0.437500
vt 0.750000 0.437500
vt 0.750000 0.875000
vt 0.718750 0.875000
vt 0.718750 0.375000
vt 0.750000 0.375000
vt 0.750000 0.812500
vt 0.718750 0.812500
vt 0.718750 0.312500
vt 0.750000 0.312500
vt 0.750000 0.750000
vt 0.718750 0.750000
vt 0.750000 0.250000
vt 0.718750 0.250000
vt 0.718750 0.687500
vt 0.750000 0.687500
vt 0.718750 0.187500
vt 0.750000 0.187500
vt 0.718750 0.625000
vt 0.718750 0.125000
vt 0.687500 0.187500
vt 0.687500 0.625000
vt 0.687500 0.125000
vt 0.687500 0.562500
vt 0.687500 0.062500
vt 0.687500 0.500000
vt 0.703125 1.000000
vt 0.687500 0.937500
vt 0.703125 0.000000
vt 0.687500 0.437500
vt 0.687500 0.875000
vt 0.687500 0.375000
vt 0.687500 0.812500
vt 0.687500 0.312500
vt 0.687500 0.750000
vt 0.687500 0.250000
vt 0.687500 0.687500
vt 0.656250 0.375000
vt 0.656250 0.812500
vt 0.656250 0.312500
vt 0.656250 0.750000
vt 0.656250 0.250000
vt 0.656250 0.687500
vt 0.656250 0.187500
vt 0.656250 0.625000
vt 0.656250 0.125000
vt 0.656250 0.562500
vt 0.656250 0.062500
vt 0.656250 0.500000
vt 0.671875 1.000000
vt 0.656250 0.937500
vt 0.671875 0.000000
vt 0.656250 0.437500
vt 0.656250 0.875000
vt 0.625000 0.187500
vt 0.625000 0.125000
vt 0.625000 0.625000
vt 0.625000 0.562500
vt 0.625000 0.062500
vt 0.625000 0.500000
vt 0.640625 1.000000
vt 0.625000 0.937500
vt 0.640625 0.000000
vt 0.625000 0.437500
vt 0.625000 0.875000
vt 0.625000 0.375000
vt 0.625000 0.812500
vt 0.625000 0.312500
vt 0.625000 0.750000
vt 0.625000 0.250000
vt 0.625000 0.687500
vt 0.593750 0.875000
vt 0.593750 0.812500
vt 0.593750 0.375000
vt 0.593750 0.312500
vt 0.593750 0.750000
vt 0.593750 0.250000
vt 0.593750 0.687500
vt 0.593750 0.187500
vt 0.593750 0.625000
vt 0.593750 0.125000
vt 0.593750 0.562500
vt 0.593750 0.062500
vt 0.593750 0.500000
vt 0.609375 1.000000
vt 0.593750 0.937500
vt 0.609375 0.000000
vt 0.593750 0.437500
vt 0.562500 0.625000
vt 0.562500 0.562500
vt 0.562500 0.125000
vt 0.562500 0.062500
vt 0.562500 0.500000
vt 0.578125 1.000000
vt 0.562500 0.937500
vt 0.578125 0.000000
vt 0.562500 0.437500
vt 0.562500 0.875000
vt 0.562500 0.375000
vt 0.562500 0.812500
vt 0.562500 0.312500
vt 0.562500 0.750000
vt 0.562500 0.250000
vt 0.562500 0.687500
vt 0.562500 0.187500
vt 0.531250 0.375000
vt 0.531250 0.312500
vt 0.531250 0.750000
vt 0.531250 0.250000
vt 0.531250 0.687500
vt 0.531250 0.187500
vt 0.531250 0.625000
vt 0.531250 0.125000
vt 0.531250 0.562500
vt 0.531250 0.062500
vt 0.531250 0.500000
vt 0.546875 1.000000
vt 0.531250 0.937500
vt 0.546875 0.000000
vt 0.531250 0.437500
vt 0.531250 0.875000
vt 0.531250 0.812500
vt 0.500000 0.125000
vt 0.500000 0.062500
vt 0.500000 0.562500
vt 0.500000 0.500000
vt 0.515625 1.000000
vt 0.500000 0.937500
vt 0.515625 0.000000
vt 0.500000 0.437500
vt 0.500000 0.875000
vt 0.500000 0.375000
vt 0.500000 0.812500
vt 0.500000 0.312500
vt 0.500000 0.750000
vt 0.500000 0.250000
vt 0.500000 0.687500
vt 0.500000 0.187500
vt 0.500000 0.625000
vt 0.468750 0.750000
vt 0.468750 0.250000
vt 0.468750 0.687500
vt 0.468750 0.187500
vt 0.468750 0.625000
vt 0.468750 0.125000
vt 0.468750 0.562500
vt 0.468750 0.062500
vt 0.468750 0.500000
vt 0.484375 1.000000
vt 0.468750 0.937500
vt 0.484375 0.000000
vt 0.468750 0.437500
vt 0.468750 0.875000
vt 0.468750 0.375000
vt 0.468750 0.812500
vt 0.468750 0.312500
vt 0.437500 0.562500
vt 0.437500 0.500000
vt 0.453125 1.000000
vt 0.437500 0.937500
vt 0.453125 0.000000
vt 0.437500 0.062500
vt 0.437500 0.437500
vt 0.437500 0.875000
vt 0.437500 0.375000
vt 0.437500 0.812500
vt 0.437500 0.312500
vt 0.437500 0.750000
vt 0.437500 0.250000
vt 0.437500 0.687500
vt 0.437500 0.187500
vt 0.437500 0.625000
vt 0.437500 0.125000
vt 0.406250 0.250000
vt 0.406250 0.750000
vt 0.406250 0.687500
vt 0.406250 0.187500
vt 0.406250 0.625000
vt 0.406250 0.125000
vt 0.406250 0.562500
vt 0.406250 0.062500
vt 0.406250 0.500000
vt 0.421875 1.000000
vt 0.406250 0.937500
vt 0.421875 0.000000
vt 0.406250 0.437500
vt 0.406250 0.875000
vt 0.406250 0.375000
vt 0.406250 0.812500
vt 0.406250 0.312500
vt 0.390625 0.000000
vt 0.375000 0.062500
vt 0.375000 0.437500
vt 0.375000 0.875000
vt 0.375000 0.375000
vt 0.375000 0.812500
vt 0.375000 0.312500
vt 0.375000 0.750000
vt 0.375000 0.250000
vt 0.375000 0.687500
vt 0.375000 0.187500
vt 0.375000 0.625000
vt 0.375000 0.125000
vt 0.375000 0.562500
vt 0.375000 0.500000
vt 0.390625 1.000000
vt 0.375000 0.937500
vt 0.343750 0.250000
vt 0.343750 0.187500
vt 0.343750 0.625000
vt 0.343750 0.125000
vt 0.343750 0.562500
vt 0.343750 0.062500
vt 0.343750 0.500000
vt 0.359375 1.000000
vt 0.343750 0.937500
vt 0.359375 0.000000
vt 0.343750 0.437500
vt 0.343750 0.875000
vt 0.343750 0.375000
vt 0.343750 0.812500
vt 0.343750 0.312500
vt 0.343750 0.750000
vt 0.343750 0.687500
vt 0.312500 0.875000
vt 0.312500 0.375000
vt 0.312500 0.812500
vt 0.312500 0.312500
vt 0.312500 0.750000
vt 0.312500 0.250000
vt 0.312500 0.687500
vt 0.312500 0.187500
vt 0.312500 0.625000
vt 0.312500 0.125000
vt 0.312500 0.562500
vt 0.312500 0.062500
vt 0.312500 0.500000
vt 0.328125 1.000000
vt 0.312500 0.937500
vt 0.328125 0.000000
vt 0.312500 0.437500
vt 0.281250 0.625000
vt 0.281250 0.125000
vt 0.281250 0.562500
vt 0.281250 0.062500
vt 0.281250 0.500000
vt 0.296875 1.000000
vt 0.281250 0.937500
vt 0.296875 0.000000
vt 0.281250 0.437500
vt 0.281250 0.875000
vt 0.281250 0.375000
vt 0.281250 0.812500
vt 0.281250 0.312500
vt 0.281250 0.750000
vt 0.281250 0.250000
vt 0.281250 0.687500
vt 0.281250 0.187500
vt 0.250000 0.375000
vt 0.250000 0.812500
vt 0.250000 0.312500
vt 0.250000 0.750000
vt 0.250000 0.250000
vt 0.250000 0.687500
vt 0.250000 0.187500
vt 0.250000 0.625000
vt 0.250000 0.125000
vt 0.250000 0.562500
vt 0.250000 0.062500
vt 0.250000 0.500000
vt 0.265625 1.000000
vt 0.250000 0.937500
vt 0.265625 0.000000
vt 0.250000 0.437500
vt 0.250000 0.875000
vt 0.218750 0.125000
vt 0.218750 0.625000
vt 0.218750 0.562500
vt 0.218750 0.062500
vt 0.218750 0.500000
vt 0.234375 1.000000
vt 0.218750 0.937500
vt 0.234375 0.000000
vt 0.218750 0.437500
vt 0.218750 0.875000
vt 0.218750 0.375000
vt 0.218750 0.812500
vt 0.218750 0.312500
vt 0.218750 0.750000
vt 0.218750 0.250000
vt 0.218750 0.687500
vt 0.218750 0.187500
vt 0.187500 0.812500
vt 0.187500 0.375000
vt 0.187500 0.312500
vt 0.187500 0.750000
vt 0.187500 0.250000
vt 0.187500 0.687500
vt 0.187500 0.187500
vt 0.187500 0.625000
vt 0.187500 0.125000
vt 0.187500 0.562500
vt 0.187500 0.062500
vt 0.187500 0.500000
vt 0.203125 1.000000
vt 0.187500 0.937500
vt 0.203125 0.000000
vt 0.187500 0.437500
vt 0.187500 0.875000
vt 0.156250 0.625000
vt 0.156250 0.562500
vt 0.156250 0.125000
vt 0.156250 0.062500
vt 0.156250 0.500000
vt 0.171875 1.000000
vt 0.156250 0.937500
vt 0.171875 0.000000
vt 0.156250 0.437500
vt 0.156250 0.875000
vt 0.156250 0.375000
vt 0.156250 0.812500
vt 0.156250 0.312500
vt 0.156250 0.750000
vt 0.156250 0.250000
vt 0.156250 0.687500
vt 0.156250 0.187500
vt 0.125000 0.375000
vt 0.125000 0.312500
vt 0.125000 0.750000
vt 0.125000 0.250000
vt 0.125000 0.687500
vt 0.125000 0.187500
vt 0.125000 0.625000
vt 0.125000 0.125000
vt 0.125000 0.562500
vt 0.125000 0.062500
vt 0.125000 0.500000
vt 0.140625 1.000000
vt 0.125000 0.937500
vt 0.140625 0.000000
vt 0.125000 0.437500
vt 0.125000 0.875000
vt 0.125000 0.812500
vt 0.093750 0.062500
vt 0.093750 0.562500
vt 0.093750 0.500000
vt 0.109375 1.000000
vt 0.093750 0.937500
vt 0.109375 0.000000
vt 0.093750 0.437500
vt 0.093750 0.875000
vt 0.093750 0.375000
vt 0.093750 0.812500
vt 0.093750 0.312500
vt 0.093750 0.750000
vt 0.093750 0.250000
vt 0.093750 0.687500
vt 0.093750 0.187500
vt 0.093750 0.625000
vt 0.093750 0.125000
vt 0.062500 0.250000
vt 0.062500 0.750000
vt 0.062500 0.687500
vt 0.062500 0.187500
vt 0.062500 0.625000
vt 0.062500 0.125000
vt 0.062500 0.562500
vt 0.062500 0.062500
vt 0.062500 0.500000
vt 0.078125 1.000000
vt 0.062500 0.937500
vt 0.078125 0.000000
vt 0.062500 0.437500
vt 0.062500 0.875000
vt 0.062500 0.375000
vt 0.062500 0.812500
vt 0.062500 0.312500
vt 0.046875 1.000000
vt 0.031250 0.937500
vt 0.046875 0.000000
vt 0.031250 0.062500
vt 0.031250 0.437500
vt 0.031250 0.875000
vt 0.031250 0.375000
vt 0.031250 0.812500
vt 0.031250 0.312500
vt 0.031250 0.750000
vt 0.031250 0.250000
vt 0.031250 0.687500
vt 0.031250 0.187500
vt 0.031250 0.625000
vt 0.031250 0.125000
vt 0.031250 0.562500
vt 0.031250 0.500000
vt 0.000000 0.750000
vt 0.000000 0.687500
vt 0.000000 0.250000
vt 0.000000 0.187500
vt 0.000000 0.625000
vt 0.000000 0.125000
vt 0.000000 0.562500
vt 0.000000 0.062500
vt 0.000000 0.500000
vt 0.015625 1.000000
vt 0.000000 0.937500
vt 0.015625 0.000000
vt 0.000000 0.437500
vt 0.000000 0.875000
vt 0.000000 0.375000
vt 0.000000 0.812500
vt 0.000000 0.312500
vt 1.000000 0.500000
vt 0.968750 0.437500
vt 1.000000 0.437500
vt 1.000000 0.937500
vt 0.968750 0.875000
vt 1.000000 0.875000
vt 0.968750 0.375000
vt 1.000000 0.375000
vt 1.000000 0.812500
vt 0.968750 0.812500
vt 1.000000 0.312500
vt 0.968750 0.312500
vt 0.968750 0.750000
vt 1.000000 0.750000
vt 0.968750 0.250000
vt 1.000000 0.250000
vt 1.000000 0.687500
vt 0.968750 0.687500
vt 1.000000 0.187500
vt 0.968750 0.187500
vt 0.968750 0.625000
vt 1.000000 0.625000
vt 0.968750 0.125000
vt 1.000000 0.125000
vt 1.000000 0.562500
vt 0.968750 0.562500
vt 0.968750 0.062500
vt 1.000000 0.062500
vt 0.968750 0.500000
vt 0.984375 1.000000
vt 0.968750 0.937500
vt 0.984375 0.000000
vt 0.937500 0.250000
vt 0.937500 0.187500
vt 0.937500 0.625000
vt 0.937500 0.125000
vt 0.937500 0.562500
vt 0.937500 0.062500
vt 0.937500 0.500000
vt 0.953125 1.000000
vt 0.937500 0.937500
vt 0.953125 0.000000
vt 0.937500 0.437500
vt 0.937500 0.875000
vt 0.937500 0.375000
vt 0.937500 0.812500
vt 0.937500 0.312500
vt 0.937500 0.750000
vt 0.937500 0.687500
vt 0.906250 0.875000
vt 0.906250 0.375000
vt 0.906250 0.812500
vt 0.906250 0.312500
vt 0.906250 0.750000
vt 0.906250 0.250000
vt 0.906250 0.687500
vt 0.906250 0.187500
vt 0.906250 0.625000
vt 0.906250 0.125000
vt 0.906250 0.562500
vt 0.906250 0.062500
vt 0.906250 0.500000
vt 0.921875 1.000000
vt 0.906250 0.937500
vt 0.921875 0.000000
vt 0.906250 0.437500
vt 0.875000 0.625000
vt 0.875000 0.125000
vt 0.875000 0.562500
vt 0.875000 0.062500
vt 0.875000 0.500000
vt 0.890625 1.000000
vt 0.875000 0.937500
vt 0.890625 0.000000
vt 0.875000 0.437500
vt 0.875000 0.875000
vt 0.875000 0.375000
vt 0.875000 0.812500
vt 0.875000 0.312500
vt 0.875000 0.750000
vt 0.875000 0.250000
vt 0.875000 0.687500
vt 0.875000 0.187500
vt 0.843750 0.375000
vt 0.843750 0.875000
vt 0.843750 0.812500
vt 0.843750 0.312500
vt 0.843750 0.750000
vt 0.843750 0.250000
vt 0.843750 0.687500
vt 0.843750 0.187500
vt 0.843750 0.625000
vt 0.843750 0.125000
vt 0.843750 0.562500
vt 0.843750 0.062500
vt 0.843750 0.500000
vt 0.859375 1.000000
vt 0.843750 0.937500
vt 0.859375 0.000000
vt 0.843750 0.437500
vt 0.812500 0.125000
vt 0.812500 0.625000
vt 0.812500 0.562500
vt 0.812500 0.062500
vt 0.812500 0.500000
vt 0.828125 1.000000
vt 0.812500 0.937500
vt 0.828125 0.000000
vt 0.812500 0.437500
vt 0.812500 0.875000
vt 0.812500 0.375000
vt 0.812500 0.812500
vt 0.812500 0.312500
vt 0.812500 0.750000
vt 0.812500 0.250000
vt 0.812500 0.687500
vt 0.812500 0.187500
vt 0.781250 0.375000
vt 0.781250 0.312500
vt 0.781250 0.750000
vt 0.781250 0.250000
vt 0.781250 0.687500
vt 0.781250 0.187500
vt 0.781250 0.625000
vt 0.781250 0.125000
vt 0.781250 0.562500
vt 0.781250 0.062500
vt 0.781250 0.500000
vt 0.796875 1.000000
vt 0.781250 0.937500
vt 0.796875 0.000000
vt 0.781250 0.437500
vt 0.781250 0.875000
vt 0.781250 0.812500
vt 0.765625 1.000000
vt 0.765625 0.000000
s 1
usemtl 02_enemy_chaser
f 477/1/477 15/2/15 4/3/4
f 481/4/481 23/5/23 482/6/482
f 4/3/4 16/7/16 5/8/5
f 474/9/474 1/10/1 9/11/9
f 8/12/8 482/6/482 23/5/23
f 5/8/5 17/13/17 6/14/6
f 475/15/475 9/11/9 10/16/10
f 6/14/6 18/17/18 478/18/478
f 2/19/2 10/16/10 11/20/11
f 478/18/478 19/21/19 7/22/7
f 476/23/476 11/20/11 12/24/12
f 479/25/479 19/21/19 20/26/20
f 476/23/476 13/27/13 3/28/3
f 479/25/479 21/29/21 480/30/480
f 477/1/477 13/27/13 14/31/14
f 480/30/480 22/32/22 481/4/481
f 20/26/20 36/33/36 21/29/21
f 13/27/13 29/34/29 14/31/14
f 21/29/21 37/35/37 22/32/22
f 15/2/15 29/34/29 30/36/30
f 23/5/23 37/35/37 38/37/38
f 15/2/15 31/38/31 16/7/16
f 9/11/9 1/39/1 24/40/24
f 8/41/8 23/5/23 38/37/38
f 16/7/16 32/42/32 17/13/17
f 9/11/9 25/43/25 10/16/10
f 17/13/17 33/44/33 18/17/18
f 10/16/10 26/45/26 11/20/11
f 19/21/19 33/44/33 34/46/34
f 11/20/11 27/47/27 12/24/12
f 20/26/20 34/46/34 35/48/35
f 12/24/12 28/49/28 13/27/13
f 32/42/32 48/50/48 33/44/33
f 25/43/25 41/51/41 26/45/26
f 34/46/34 48/50/48 49/52/49
f 27/47/27 41/51/41 42/53/42
f 34/46/34 50/54/50 35/48/35
f 27/47/27 43/55/43 28/49/28
f 35/48/35 51/56/51 36/33/36
f 28/49/28 44/57/44 29/34/29
f 36/33/36 52/58/52 37/35/37
f 30/36/30 44/57/44 45/59/45
f 38/37/38 52/58/52 53/60/53
f 31/38/31 45/59/45 46/61/46
f 24/40/24 1/62/1 39/63/39
f 8/64/8 38/37/38 53/60/53
f 31/38/31 47/65/47 32/42/32
f 24/40/24 40/66/40 25/43/25
f 52/58/52 66/67/66 67/68/67
f 45/59/45 59/69/59 60/70/60
f 52/58/52 68/71/68 53/60/53
f 46/61/46 60/70/60 61/72/61
f 39/63/39 1/73/1 54/74/54
f 8/75/8 53/60/53 68/71/68
f 46/61/46 62/76/62 47/65/47
f 39/63/39 55/77/55 40/66/40
f 47/65/47 63/78/63 48/50/48
f 40/66/40 56/79/56 41/51/41
f 49/52/49 63/78/63 64/80/64
f 41/51/41 57/81/57 42/53/42
f 49/52/49 65/82/65 50/54/50
f 43/55/43 57/81/57 58/83/58
f 51/56/51 65/82/65 66/67/66
f 43/55/43 59/69/59 44/57/44
f 56/79/56 70/84/70 71/85/71
f 64/80/64 78/86/78 79/87/79
f 56/79/56 72/88/72 57/81/57
f 64/80/64 80/89/80 65/82/65
f 58/83/58 72/88/72 73/90/73
f 66/67/66 80/89/80 81/91/81
f 58/83/58 74/92/74 59/69/59
f 66/67/66 82/93/82 67/68/67
f 60/70/60 74/92/74 75/94/75
f 67/68/67 83/95/83 68/71/68
f 61/72/61 75/94/75 76/96/76
f 54/74/54 1/97/1 69/98/69
f 8/99/8 68/71/68 83/95/83
f 61/72/61 77/100/77 62/76/62
f 54/74/54 70/84/70 55/77/55
f 62/76/62 78/86/78 63/78/63
f 75/94/75 89/101/89 90/102/90
f 83/95/83 97/103/97 98/104/98
f 76/96/76 90/102/90 91/105/91
f 69/98/69 1/106/1 84/107/84
f 8/108/8 83/95/83 98/104/98
f 76/96/76 92/109/92 77/100/77
f 69/98/69 85/110/85 70/84/70
f 77/100/77 93/111/93 78/86/78
f 70/84/70 86/112/86 71/85/71
f 79/87/79 93/111/93 94/113/94
f 71/85/71 87/114/87 72/88/72
f 79/87/79 95/115/95 80/89/80
f 73/90/73 87/114/87 88/116/88
f 80/89/80 96/117/96 81/91/81
f 73/90/73 89/101/89 74/92/74
f 82/93/82 96/117/96 97/103/97
f 94/113/94 108/118/108 109/119/109
f 86/112/86 102/120/102 87/114/87
f 94/113/94 110/121/110 95/115/95
f 88/116/88 102/120/102 103/122/103
f 96/117/96 110/121/110 111/123/111
f 88/116/88 104/124/104 89/101/89
f 96/117/96 112/125/112 97/103/97
f 90/102/90 104/124/104 105/126/105
f 97/103/97 113/127/113 98/104/98
f 91/105/91 105/126/105 106/128/106
f 84/107/84 1/129/1 99/130/99
f 8/131/8 98/104/98 113/127/113
f 91/105/91 107/132/107 92/109/92
f 84/107/84 100/133/100 85/110/85
f 92/109/92 108/118/108 93/111/93
f 85/110/85 101/134/101 86/112/86
f 113/127/113 127/135/127 128/136/128
f 106/128/106 120/137/120 121/138/121
f 99/130/99 1/139/1 114/140/114
f 8/141/8 113/127/113 128/136/128
f 106/128/106 122/142/122 107/132/107
f 99/130/99 115/143/115 100/133/100
f 107/132/107 123/144/123 108/118/108
f 100/133/100 116/145/116 101/134/101
f 109/119/109 123/144/123 124/146/124
f 101/134/101 117/147/117 102/120/102
f 109/119/109 125/148/125 110/121/110
f 103/122/103 117/147/117 118/149/118
f 111/123/111 125/148/125 126/150/126
f 103/122/103 119/151/119 104/124/104
f 111/123/111 127/135/127 112/125/112
f 105/126/105 119/151/119 120/137/120
f 116/145/116 132/152/132 117/147/117
f 124/146/124 140/153/140 125/148/125
f 117/147/117 133/154/133 118/149/118
f 126/150/126 140/153/140 141/155/141
f 118/149/118 134/156/134 119/151/119
f 126/150/126 142/157/142 127/135/127
f 120/137/120 134/156/134 135/158/135
f 127/135/127 143/159/143 128/136/128
f 121/138/121 135/158/135 136/160/136
f 114/140/114 1/161/1 129/162/129
f 8/163/8 128/136/128 143/159/143
f 121/138/121 137/164/137 122/142/122
f 115/143/115 129/162/129 130/165/130
f 122/142/122 138/166/138 123/144/123
f 115/143/115 131/167/131 116/145/116
f 124/146/124 138/166/138 139/168/139
f 136/160/136 150/169/150 151/170/151
f 129/162/129 1/171/1 144/172/144
f 8/173/8 143/159/143 158/174/158
f 136/160/136 152/175/152 137/164/137
f 129/162/129 145/176/145 130/165/130
f 137/164/137 153/177/153 138/166/138
f 130/165/130 146/178/146 131/167/131
f 139/168/139 153/177/153 154/179/154
f 131/167/131 147/180/147 132/152/132
f 139/168/139 155/181/155 140/153/140
f 133/154/133 147/180/147 148/182/148
f 141/155/141 155/181/155 156/183/156
f 133/154/133 149/184/149 134/156/134
f 141/155/141 157/185/157 142/157/142
f 135/158/135 149/184/149 150/169/150
f 142/157/142 158/174/158 143/159/143
f 154/179/154 170/186/170 155/181/155
f 148/182/148 162/187/162 163/188/163
f 156/183/156 170/186/170 171/189/171
f 148/182/148 164/190/164 149/184/149
f 156/183/156 172/191/172 157/185/157
f 150/169/150 164/190/164 165/192/165
f 158/174/158 172/191/172 173/193/173
f 151/170/151 165/192/165 166/194/166
f 144/172/144 1/195/1 159/196/159
f 8/197/8 158/174/158 173/193/173
f 151/170/151 167/198/167 152/175/152
f 144/172/144 160/199/160 145/176/145
f 152/175/152 168/200/168 153/177/153
f 145/176/145 161/201/161 146/178/146
f 154/179/154 168/200/168 169/202/169
f 146/178/146 162/187/162 147/180/147
f 8/203/8 173/193/173 188/204/188
f 166/194/166 182/205/182 167/198/167
f 159/196/159 175/206/175 160/199/160
f 167/198/167 183/207/183 168/200/168
f 160/199/160 176/208/176 161/201/161
f 169/202/169 183/207/183 184/209/184
f 161/201/161 177/210/177 162/187/162
f 169/202/169 185/211/185 170/186/170
f 163/188/163 177/210/177 178/212/178
f 171/189/171 185/211/185 186/213/186
f 163/188/163 179/214/179 164/190/164
f 171/189/171 187/215/187 172/191/172
f 165/192/165 179/214/179 180/216/180
f 172/191/172 188/204/188 173/193/173
f 166/194/166 180/216/180 181/217/181
f 159/196/159 1/218/1 174/219/174
f 186/213/186 200/220/200 201/221/201
f 178/212/178 194/222/194 179/214/179
f 186/213/186 202/223/202 187/215/187
f 180/216/180 194/222/194 195/224/195
f 187/215/187 203/225/203 188/204/188
f 181/217/181 195/224/195 196/226/196
f 174/219/174 1/227/1 189/228/189
f 8/229/8 188/204/188 203/225/203
f 181/217/181 197/230/197 182/205/182
f 175/206/175 189/228/189 190/231/190
f 182/205/182 198/232/198 183/207/183
f 175/206/175 191/233/191 176/208/176
f 184/209/184 198/232/198 199/234/199
f 176/208/176 192/235/192 177/210/177
f 184/209/184 200/220/200 185/211/185
f 178/212/178 192/235/192 193/236/193
f 189/228/189 205/237/205 190/231/190
f 197/230/197 213/238/213 198/232/198
f 190/231/190 206/239/206 191/233/191
f 199/234/199 213/238/213 214/240/214
f 191/233/191 207/241/207 192/235/192
f 199/234/199 215/242/215 200/220/200
f 192/235/192 208/243/208 193/236/193
f 201/221/201 215/242/215 216/244/216
f 193/236/193 209/245/209 194/222/194
f 202/223/202 216/244/216 217/246/217
f 195/224/195 209/245/209 210/247/210
f 202/223/202 218/248/218 203/225/203
f 196/226/196 210/247/210 211/249/211
f 189/228/189 1/250/1 204/251/204
f 8/252/8 203/225/203 218/248/218
f 196/226/196 212/253/212 197/230/197
f 208/243/208 224/254/224 209/245/209
f 216/244/216 232/255/232 217/246/217
f 210/247/210 224/254/224 225/256/225
f 218/248/218 232/255/232 233/257/233
f 211/249/211 225/256/225 226/258/226
f 204/251/204 1/259/1 219/260/219
f 8/261/8 218/248/218 233/257/233
f 211/249/211 227/262/227 212/253/212
f 204/251/204 220/263/220 205/237/205
f 212/253/212 228/264/228 213/238/213
f 205/237/205 221/265/221 206/239/206
f 214/240/214 228/264/228 229/266/229
f 206/239/206 222/267/222 207/241/207
f 215/242/215 229/266/229 230/268/230
f 208/243/208 222/267/222 223/269/223
f 216/244/216 230/268/230 231/270/231
f 227/262/227 243/271/243 228/264/228
f 220/263/220 236/272/236 221/265/221
f 229/266/229 243/271/243 244/273/244
f 221/265/221 237/274/237 222/267/222
f 229/266/229 245/275/245 230/268/230
f 223/269/223 237/274/237 238/276/238
f 231/270/231 245/275/245 246/277/246
f 223/269/223 239/278/239 224/254/224
f 231/270/231 247/279/247 232/255/232
f 225/256/225 239/278/239 240/280/240
f 232/255/232 248/281/248 233/257/233
f 226/258/226 240/280/240 241/282/241
f 219/260/219 1/283/1 234/284/234
f 8/285/8 233/257/233 248/281/248
f 226/258/226 242/286/242 227/262/227
f 220/263/220 234/284/234 235/287/235
f 246/277/246 262/288/262 247/279/247
f 240/280/240 254/289/254 255/290/255
f 247/279/247 263/291/263 248/281/248
f 241/282/241 255/290/255 256/292/256
f 234/284/234 1/293/1 249/294/249
f 8/295/8 248/281/248 263/291/263
f 241/282/241 257/296/257 242/286/242
f 234/284/234 250/297/250 235/287/235
f 242/286/242 258/298/258 243/271/243
f 235/287/235 251/299/251 236/272/236
f 244/273/244 258/298/258 259/300/259
f 236/272/236 252/301/252 237/274/237
f 244/273/244 260/302/260 245/275/245
f 237/274/237 253/303/253 238/276/238
f 246/277/246 260/302/260 261/304/261
f 238/276/238 254/289/254 239/278/239
f 250/297/250 266/305/266 251/299/251
f 259/300/259 273/306/273 274/307/274
f 251/299/251 267/308/267 252/301/252
f 259/300/259 275/309/275 260/302/260
f 253/303/253 267/308/267 268/310/268
f 261/304/261 275/309/275 276/311/276
f 253/303/253 269/312/269 254/289/254
f 261/304/261 277/313/277 262/288/262
f 255/290/255 269/312/269 270/314/270
f 262/288/262 278/315/278 263/291/263
f 256/292/256 270/314/270 271/316/271
f 249/294/249 1/317/1 264/318/264
f 8/319/8 263/291/263 278/315/278
f 256/292/256 272/320/272 257/296/257
f 250/297/250 264/318/264 265/321/265
f 257/296/257 273/306/273 258/298/258
f 270/314/270 284/322/284 285/323/285
f 278/315/278 292/324/292 293/325/293
f 271/316/271 285/323/285 286/326/286
f 264/318/264 1/327/1 279/328/279
f 8/329/8 278/315/278 293/325/293
f 271/316/271 287/330/287 272/320/272
f 264/318/264 280/331/280 265/321/265
f 272/320/272 288/332/288 273/306/273
f 266/305/266 280/331/280 281/333/281
f 274/307/274 288/332/288 289/334/289
f 266/305/266 282/335/282 267/308/267
f 274/307/274 290/336/290 275/309/275
f 268/310/268 282/335/282 283/337/283
f 276/311/276 290/336/290 291/338/291
f 268/310/268 284/322/284 269/312/269
f 276/311/276 292/324/292 277/313/277
f 289/334/289 303/339/303 304/340/304
f 281/333/281 297/341/297 282/335/282
f 289/334/289 305/342/305 290/336/290
f 283/337/283 297/341/297 298/343/298
f 291/338/291 305/342/305 306/344/306
f 283/337/283 299/345/299 284/322/284
f 291/338/291 307/346/307 292/324/292
f 285/323/285 299/345/299 300/347/300
f 293/325/293 307/346/307 308/348/308
f 286/326/286 300/347/300 301/349/301
f 279/328/279 1/350/1 294/351/294
f 8/352/8 293/325/293 308/348/308
f 286/326/286 302/353/302 287/330/287
f 279/328/279 295/354/295 280/331/280
f 287/330/287 303/339/303 288/332/288
f 280/331/280 296/355/296 281/333/281
f 307/346/307 323/356/323 308/348/308
f 301/349/301 315/357/315 316/358/316
f 294/351/294 1/359/1 309/360/309
f 8/361/8 308/348/308 323/356/323
f 301/349/301 317/362/317 302/353/302
f 294/351/294 310/363/310 295/354/295
f 302/353/302 318/364/318 303/339/303
f 295/354/295 311/365/311 296/355/296
f 304/340/304 318/364/318 319/366/319
f 296/355/296 312/367/312 297/341/297
f 304/340/304 320/368/320 305/342/305
f 298/343/298 312/367/312 313/369/313
f 306/344/306 320/368/320 321/370/321
f 298/343/298 314/371/314 299/345/299
f 306/344/306 322/372/322 307/346/307
f 300/347/300 314/371/314 315/357/315
f 319/366/319 335/373/335 320/368/320
f 313/369/313 327/374/327 328/375/328
f 321/370/321 335/373/335 336/376/336
f 313/369/313 329/377/329 314/371/314
f 321/370/321 337/378/337 322/372/322
f 315/357/315 329/377/329 330/379/330
f 323/356/323 337/378/337 338/380/338
f 316/358/316 330/379/330 331/381/331
f 309/360/309 1/382/1 324/383/324
f 8/384/8 323/356/323 338/380/338
f 316/358/316 332/385/332 317/362/317
f 309/360/309 325/386/325 310/363/310
f 317/362/317 333/387/333 318/364/318
f 310/363/310 326/388/326 311/365/311
f 319/366/319 333/387/333 334/389/334
f 311/365/311 327/374/327 312/367/312
f 324/383/324 1/390/1 339/391/339
f 8/392/8 338/380/338 353/393/353
f 331/381/331 347/394/347 332/385/332
f 324/383/324 340/395/340 325/386/325
f 332/385/332 348/396/348 333/387/333
f 325/386/325 341/397/341 326/388/326
f 334/389/334 348/396/348 349/398/349
f 326/388/326 342/399/342 327/374/327
f 334/389/334 350/400/350 335/373/335
f 328/375/328 342/399/342 343/401/343
f 336/376/336 350/400/350 351/402/351
f 328/375/328 344/403/344 329/377/329
f 336/376/336 352/404/352 337/378/337
f 330/379/330 344/403/344 345/405/345
f 338/380/338 352/404/352 353/393/353
f 331/381/331 345/405/345 346/406/346
f 343/401/343 357/407/357 358/408/358
f 351/402/351 365/409/365 366/410/366
f 343/401/343 359/411/359 344/403/344
f 351/402/351 367/412/367 352/404/352
f 345/405/345 359/411/359 360/413/360
f 352/404/352 368/414/368 353/393/353
f 346/406/346 360/413/360 361/415/361
f 339/391/339 1/416/1 354/417/354
f 8/418/8 353/393/353 368/414/368
f 346/406/346 362/419/362 347/394/347
f 339/391/339 355/420/355 340/395/340
f 347/394/347 363/421/363 348/396/348
f 340/395/340 356/422/356 341/397/341
f 349/398/349 363/421/363 364/423/364
f 341/397/341 357/407/357 342/399/342
f 349/398/349 365/409/365 350/400/350
f 361/424/361 377/425/377 362/426/362
f 354/427/354 370/428/370 355/429/355
f 362/426/362 378/430/378 363/431/363
f 356/432/356 370/428/370 371/433/371
f 364/434/364 378/430/378 379/435/379
f 356/432/356 372/436/372 357/437/357
f 364/434/364 380/438/380 365/439/365
f 358/440/358 372/436/372 373/441/373
f 366/442/366 380/438/380 381/443/381
f 358/440/358 374/444/374 359/445/359
f 366/442/366 382/446/382 367/447/367
f 360/448/360 374/444/374 375/449/375
f 367/447/367 383/450/383 368/451/368
f 361/424/361 375/449/375 376/452/376
f 354/427/354 1/453/1 369/454/369
f 8/455/8 368/451/368 383/450/383
f 381/443/381 395/456/395 396/457/396
f 373/441/373 389/458/389 374/444/374
f 381/443/381 397/459/397 382/446/382
f 375/449/375 389/458/389 390/460/390
f 382/446/382 398/461/398 383/450/383
f 376/452/376 390/460/390 391/462/391
f 369/454/369 1/463/1 384/464/384
f 8/465/8 383/450/383 398/461/398
f 376/452/376 392/466/392 377/425/377
f 369/454/369 385/467/385 370/428/370
f 377/425/377 393/468/393 378/430/378
f 371/433/371 385/467/385 386/469/386
f 379/435/379 393/468/393 394/470/394
f 371/433/371 387/471/387 372/436/372
f 379/435/379 395/456/395 380/438/380
f 373/441/373 387/471/387 388/472/388
f 384/464/384 400/473/400 385/467/385
f 392/466/392 408/474/408 393/468/393
f 385/467/385 401/475/401 386/469/386
f 394/470/394 408/474/408 409/476/409
f 386/469/386 402/477/402 387/471/387
f 394/470/394 410/478/410 395/456/395
f 388/472/388 402/477/402 403/479/403
f 396/457/396 410/478/410 411/480/411
f 388/472/388 404/481/404 389/458/389
f 396/457/396 412/482/412 397/459/397
f 390/460/390 404/481/404 405/483/405
f 397/459/397 413/484/413 398/461/398
f 391/462/391 405/483/405 406/485/406
f 384/464/384 1/486/1 399/487/399
f 8/488/8 398/461/398 413/484/413
f 391/462/391 407/489/407 392/466/392
f 403/479/403 419/490/419 404/481/404
f 411/480/411 427/491/427 412/482/412
f 405/483/405 419/490/419 420/492/420
f 412/482/412 428/493/428 413/484/413
f 406/485/406 420/492/420 421/494/421
f 399/487/399 1/495/1 414/496/414
f 8/497/8 413/484/413 428/493/428
f 406/485/406 422/498/422 407/489/407
f 399/487/399 415/499/415 400/473/400
f 407/489/407 423/500/423 408/474/408
f 400/473/400 416/501/416 401/475/401
f 409/476/409 423/500/423 424/502/424
f 401/475/401 417/503/417 402/477/402
f 409/476/409 425/504/425 410/478/410
f 403/479/403 417/503/417 418/505/418
f 411/480/411 425/504/425 426/506/426
f 422/498/422 438/507/438 423/500/423
f 416/501/416 430/508/430 431/509/431
f 424/502/424 438/507/438 439/510/439
f 416/501/416 432/511/432 417/503/417
f 424/502/424 440/512/440 425/504/425
f 418/505/418 432/511/432 433/513/433
f 426/506/426 440/512/440 441/514/441
f 418/505/418 434/515/434 419/490/419
f 426/506/426 442/516/442 427/491/427
f 420/492/420 434/515/434 435/517/435
f 427/491/427 443/518/443 428/493/428
f 421/494/421 435/517/435 436/519/436
f 414/496/414 1/520/1 429/521/429
f 8/522/8 428/493/428 443/518/443
f 421/494/421 437/523/437 422/498/422
f 414/496/414 430/508/430 415/499/415
f 441/514/441 457/524/457 442/516/442
f 435/517/435 449/525/449 450/526/450
f 442/516/442 458/527/458 443/518/443
f 436/519/436 450/526/450 451/528/451
f 429/521/429 1/529/1 444/530/444
f 8/531/8 443/518/443 458/527/458
f 436/519/436 452/532/452 437/523/437
f 430/508/430 444/530/444 445/533/445
f 437/523/437 453/534/453 438/507/438
f 431/509/431 445/533/445 446/535/446
f 439/510/439 453/534/453 454/536/454
f 431/509/431 447/537/447 432/511/432
f 439/510/439 455/538/455 440/512/440
f 433/513/433 447/537/447 448/539/448
f 441/514/441 455/538/455 456/540/456
f 433/513/433 449/525/449 434/515/434
f 454/536/454 468/541/468 469/542/469
f 446/535/446 462/543/462 447/537/447
f 454/536/454 470/544/470 455/538/455
f 448/539/448 462/543/462 463/545/463
f 456/540/456 470/544/470 471/546/471
f 448/539/448 464/547/464 449/525/449
f 456/540/456 472/548/472 457/524/457
f 450/526/450 464/547/464 465/549/465
f 458/527/458 472/548/472 473/550/473
f 451/528/451 465/549/465 466/551/466
f 444/530/444 1/552/1 459/553/459
f 8/554/8 458/527/458 473/550/473
f 451/528/451 467/555/467 452/532/452
f 444/530/444 460/556/460 445/533/445
f 452/532/452 468/541/468 453/534/453
f 445/533/445 461/557/461 446/535/446
f 472/548/472 482/6/482 473/550/473
f 466/551/466 4/3/4 5/8/5
f 459/553/459 1/558/1 474/9/474
f 8/559/8 473/550/473 482/6/482
f 466/551/466 6/14/6 467/555/467
f 459/553/459 475/15/475 460/556/460
f 467/555/467 478/18/478 468/541/468
f 461/557/461 475/15/475 2/19/2
f 468/541/468 7/22/7 469/542/469
f 462/543/462 2/19/2 476/23/476
f 469/542/469 479/25/479 470/544/470
f 463/545/463 476/23/476 3/28/3
f 471/546/471 479/25/479 480/30/480
f 464/547/464 3/28/3 477/1/477
f 471/546/471 481/4/481 472/548/472
f 465/549/465 477/1/477 4/3/4
f 477/1/477 14/31/14 15/2/15
f 481/4/481 22/32/22 23/5/23
f 4/3/4 15/2/15 16/7/16
f 5/8/5 16/7/16 17/13/17
f 475/15/475 474/9/474 9/11/9
f 6/14/6 17/13/17 18/17/18
f 2/19/2 475/15/475 10/16/10
f 478/18/478 18/17/18 19/21/19
f 476/23/476 2/19/2 11/20/11
f 479/25/479 7/22/7 19/21/19
f 476/23/476 12/24/12 13/27/13
f 479/25/479 20/26/20 21/29/21
f 477/1/477 3/28/3 13/27/13
f 480/30/480 21/29/21 22/32/22
f 20/26/20 35/48/35 36/33/36
f 13/27/13 28/49/28 29/34/29
f 21/29/21 36/33/36 37/35/37
f 15/2/15 14/31/14 29/34/29
f 23/5/23 22/32/22 37/35/37
f 15/2/15 30/36/30 31/38/31
f 16/7/16 31/38/31 32/42/32
f 9/11/9 24/40/24 25/43/25
f 17/13/17 32/42/32 33/44/33
f 10/16/10 25/43/25 26/45/26
f 19/21/19 18/17/18 33/44/33
f 11/20/11 26/45/26 27/47/27
f 20/26/20 19/21/19 34/46/34
f 12/24/12 27/47/27 28/49/28
f 32/42/32 47/65/47 48/50/48
f 25/43/25 40/66/40 41/51/41
f 34/46/34 33/44/33 48/50/48
f 27/47/27 26/45/26 41/51/41
f 34/46/34 49/52/49 50/54/50
f 27/47/27 42/53/42 43/55/43
f 35/48/35 50/54/50 51/56/51
f 28/49/28 43/55/43 44/57/44
f 36/33/36 51/56/51 52/58/52
f 30/36/30 29/34/29 44/57/44
f 38/37/38 37/35/37 52/58/52
f 31/38/31 30/36/30 45/59/45
f 31/38/31 46/61/46 47/65/47
f 24/40/24 39/63/39 40/66/40
f 52/58/52 51/56/51 66/67/66
f 45/59/45 44/57/44 59/69/59
f 52/58/52 67/68/67 68/71/68
f 46/61/46 45/59/45 60/70/60
f 46/61/46 61/72/61 62/76/62
f 39/63/39 54/74/54 55/77/55
f 47/65/47 62/76/62 63/78/63
f 40/66/40 55/77/55 56/79/56
f 49/52/49 48/50/48 63/78/63
f 41/51/41 56/79/56 57/81/57
f 49/52/49 64/80/64 65/82/65
f 43/55/43 42/53/42 57/81/57
f 51/56/51 50/54/50 65/82/65
f 43/55/43 58/83/58 59/69/59
f 56/79/56 55/77/55 70/84/70
f 64/80/64 63/78/63 78/86/78
f 56/79/56 71/85/71 72/88/72
f 64/80/64 79/87/79 80/89/80
f 58/83/58 57/81/57 72/88/72
f 66/67/66 65/82/65 80/89/80
f 58/83/58 73/90/73 74/92/74
f 66/67/66 81/91/81 82/93/82
f 60/70/60 59/69/59 74/92/74
f 67/68/67 82/93/82 83/95/83
f 61/72/61 60/70/60 75/94/75
f 61/72/61 76/96/76 77/100/77
f 54/74/54 69/98/69 70/84/70
f 62/76/62 77/100/77 78/86/78
f 75/94/75 74/92/74 89/101/89
f 83/95/83 82/93/82 97/103/97
f 76/96/76 75/94/75 90/102/90
f 76/96/76 91/105/91 92/109/92
f 69/98/69 84/107/84 85/110/85
f 77/100/77 92/109/92 93/111/93
f 70/84/70 85/110/85 86/112/86
f 79/87/79 78/86/78 93/111/93
f 71/85/71 86/112/86 87/114/87
f 79/87/79 94/113/94 95/115/95
f 73/90/73 72/88/72 87/114/87
f 80/89/80 95/115/95 96/117/96
f 73/90/73 88/116/88 89/101/89
f 82/93/82 81/91/81 96/117/96
f 94/113/94 93/111/93 108/118/108
f 86/112/86 101/134/101 102/120/102
f 94/113/94 109/119/109 110/121/110
f 88/116/88 87/114/87 102/120/102
f 96/117/96 95/115/95 110/121/110
f 88/116/88 103/122/103 104/124/104
f 96/117/96 111/123/111 112/125/112
f 90/102/90 89/101/89 104/124/104
f 97/103/97 112/125/112 113/127/113
f 91/105/91 90/102/90 105/126/105
f 91/105/91 106/128/106 107/132/107
f 84/107/84 99/130/99 100/133/100
f 92/109/92 107/132/107 108/118/108
f 85/110/85 100/133/100 101/134/101
f 113/127/113 112/125/112 127/135/127
f 106/128/106 105/126/105 120/137/120
f 106/128/106 121/138/121 122/142/122
f 99/130/99 114/140/114 115/143/115
f 107/132/107 122/142/122 123/144/123
f 100/133/100 115/143/115 116/145/116
f 109/119/109 108/118/108 123/144/123
f 101/134/101 116/145/116 117/147/117
f 109/119/109 124/146/124 125/148/125
f 103/122/103 102/120/102 117/147/117
f 111/123/111 110/121/110 125/148/125
f 103/122/103 118/149/118 119/151/119
f 111/123/111 126/150/126 127/135/127
f 105/126/105 104/124/104 119/151/119
f 116/145/116 131/167/131 132/152/132
f 124/146/124 139/168/139 140/153/140
f 117/147/117 132/152/132 133/154/133
f 126/150/126 125/148/125 140/153/140
f 118/149/118 133/154/133 134/156/134
f 126/150/126 141/155/141 142/157/142
f 120/137/120 119/151/119 134/156/134
f 127/135/127 142/157/142 143/159/143
f 121/138/121 120/137/120 135/158/135
f 121/138/121 136/160/136 137/164/137
f 115/143/115 114/140/114 129/162/129
f 122/142/122 137/164/137 138/166/138
f 115/143/115 130/165/130 131/167/131
f 124/146/124 123/144/123 138/166/138
f 136/160/136 135/158/135 150/169/150
f 136/160/136 151/170/151 152/175/152
f 129/162/129 144/172/144 145/176/145
f 137/164/137 152/175/152 153/177/153
f 130/165/130 145/176/145 146/178/146
f 139/168/139 138/166/138 153/177/153
f 131/167/131 146/178/146 147/180/147
f 139/168/139 154/179/154 155/181/155
f 133/154/133 132/152/132 147/180/147
f 141/155/141 140/153/140 155/181/155
f 133/154/133 148/182/148 149/184/149
f 141/155/141 156/183/156 157/185/157
f 135/158/135 134/156/134 149/184/149
f 142/157/142 157/185/157 158/174/158
f 154/179/154 169/202/169 170/186/170
f 148/182/148 147/180/147 162/187/162
f 156/183/156 155/181/155 170/186/170
f 148/182/148 163/188/163 164/190/164
f 156/183/156 171/189/171 172/191/172
f 150/169/150 149/184/149 164/190/164
f 158/174/158 157/185/157 172/191/172
f 151/170/151 150/169/150 165/192/165
f 151/170/151 166/194/166 167/198/167
f 144/172/144 159/196/159 160/199/160
f 152/175/152 167/198/167 168/200/168
f 145/176/145 160/199/160 161/201/161
f 154/179/154 153/177/153 168/200/168
f 146/178/146 161/201/161 162/187/162
f 166/194/166 181/217/181 182/205/182
f 159/196/159 174/219/174 175/206/175
f 167/198/167 182/205/182 183/207/183
f 160/199/160 175/206/175 176/208/176
f 169/202/169 168/200/168 183/207/183
f 161/201/161 176/208/176 177/210/177
f 169/202/169 184/209/184 185/211/185
f 163/188/163 162/187/162 177/210/177
f 171/189/171 170/186/170 185/211/185
f 163/188/163 178/212/178 179/214/179
f 171/189/171 186/213/186 187/215/187
f 165/192/165 164/190/164 179/214/179
f 172/191/172 187/215/187 188/204/188
f 166/194/166 165/192/165 180/216/180
f 186/213/186 185/211/185 200/220/200
f 178/212/178 193/236/193 194/222/194
f 186/213/186 201/221/201 202/223/202
f 180/216/180 179/214/179 194/222/194
f 187/215/187 202/223/202 203/225/203
f 181/217/181 180/216/180 195/224/195
f 181/217/181 196/226/196 197/230/197
f 175/206/175 174/219/174 189/228/189
f 182/205/182 197/230/197 198/232/198
f 175/206/175 190/231/190 191/233/191
f 184/209/184 183/207/183 198/232/198
f 176/208/176 191/233/191 192/235/192
f 184/209/184 199/234/199 200/220/200
f 178/212/178 177/210/177 192/235/192
f 189/228/189 204/251/204 205/237/205
f 197/230/197 212/253/212 213/238/213
f 190/231/190 205/237/205 206/239/206
f 199/234/199 198/232/198 213/238/213
f 191/233/191 206/239/206 207/241/207
f 199/234/199 214/240/214 215/242/215
f 192/235/192 207/241/207 208/243/208
f 201/221/201 200/220/200 215/242/215
f 193/236/193 208/243/208 209/245/209
f 202/223/202 201/221/201 216/244/216
f 195/224/195 194/222/194 209/245/209
f 202/223/202 217/246/217 218/248/218
f 196/226/196 195/224/195 210/247/210
f 196/226/196 211/249/211 212/253/212
f 208/243/208 223/269/223 224/254/224
f 216/244/216 231/270/231 232/255/232
f 210/247/210 209/245/209 224/254/224
f 218/248/218 217/246/217 232/255/232
f 211/249/211 210/247/210 225/256/225
f 211/249/211 226/258/226 227/262/227
f 204/251/204 219/260/219 220/263/220
f 212/253/212 227/262/227 228/264/228
f 205/237/205 220/263/220 221/265/221
f 214/240/214 213/238/213 228/264/228
f 206/239/206 221/265/221 222/267/222
f 215/242/215 214/240/214 229/266/229
f 208/243/208 207/241/207 222/267/222
f 216/244/216 215/242/215 230/268/230
f 227/262/227 242/286/242 243/271/243
f 220/263/220 235/287/235 236/272/236
f 229/266/229 228/264/228 243/271/243
f 221/265/221 236/272/236 237/274/237
f 229/266/229 244/273/244 245/275/245
f 223/269/223 222/267/222 237/274/237
f 231/270/231 230/268/230 245/275/245
f 223/269/223 238/276/238 239/278/239
f 231/270/231 246/277/246 247/279/247
f 225/256/225 224/254/224 239/278/239
f 232/255/232 247/279/247 248/281/248
f 226/258/226 225/256/225 240/280/240
f 226/258/226 241/282/241 242/286/242
f 220/263/220 219/260/219 234/284/234
f 246/277/246 261/304/261 262/288/262
f 240/280/240 239/278/239 254/289/254
f 247/279/247 262/288/262 263/291/263
f 241/282/241 240/280/240 255/290/255
f 241/282/241 256/292/256 257/296/257
f 234/284/234 249/294/249 250/297/250
f 242/286/242 257/296/257 258/298/258
f 235/287/235 250/297/250 251/299/251
f 244/273/244 243/271/243 258/298/258
f 236/272/236 251/299/251 252/301/252
f 244/273/244 259/300/259 260/302/260
f 237/274/237 252/301/252 253/303/253
f 246/277/246 245/275/245 260/302/260
f 238/276/238 253/303/253 254/289/254
f 250/297/250 265/321/265 266/305/266
f 259/300/259 258/298/258 273/306/273
f 251/299/251 266/305/266 267/308/267
f 259/300/259 274/307/274 275/309/275
f 253/303/253 252/301/252 267/308/267
f 261/304/261 260/302/260 275/309/275
f 253/303/253 268/310/268 269/312/269
f 261/304/261 276/311/276 277/313/277
f 255/290/255 254/289/254 269/312/269
f 262/288/262 277/313/277 278/315/278
f 256/292/256 255/290/255 270/314/270
f 256/292/256 271/316/271 272/320/272
f 250/297/250 249/294/249 264/318/264
f 257/296/257 272/320/272 273/306/273
f 270/314/270 269/312/269 284/322/284
f 278/315/278 277/313/277 292/324/292
f 271/316/271 270/314/270 285/323/285
f 271/316/271 286/326/286 287/330/287
f 264/318/264 279/328/279 280/331/280
f 272/320/272 287/330/287 288/332/288
f 266/305/266 265/321/265 280/331/280
f 274/307/274 273/306/273 288/332/288
f 266/305/266 281/333/281 282/335/282
f 274/307/274 289/334/289 290/336/290
f 268/310/268 267/308/267 282/335/282
f 276/311/276 275/309/275 290/336/290
f 268/310/268 283/337/283 284/322/284
f 276/311/276 291/338/291 292/324/292
f 289/334/289 288/332/288 303/339/303
f 281/333/281 296/355/296 297/341/297
f 289/334/289 304/340/304 305/342/305
f 283/337/283 282/335/282 297/341/297
f 291/338/291 290/336/290 305/342/305
f 283/337/283 298/343/298 299/345/299
f 291/338/291 306/344/306 307/346/307
f 285/323/285 284/322/284 299/345/299
f 293/325/293 292/324/292 307/346/307
f 286/326/286 285/323/285 300/347/300
f 286/326/286 301/349/301 302/353/302
f 279/328/279 294/351/294 295/354/295
f 287/330/287 302/353/302 303/339/303
f 280/331/280 295/354/295 296/355/296
f 307/346/307 322/372/322 323/356/323
f 301/349/301 300/347/300 315/357/315
f 301/349/301 316/358/316 317/362/317
f 294/351/294 309/360/309 310/363/310
f 302/353/302 317/362/317 318/364/318
f 295/354/295 310/363/310 311/365/311
f 304/340/304 303/339/303 318/364/318
f 296/355/296 311/365/311 312/367/312
f 304/340/304 319/366/319 320/368/320
f 298/343/298 297/341/297 312/367/312
f 306/344/306 305/342/305 320/368/320
f 298/343/298 313/369/313 314/371/314
f 306/344/306 321/370/321 322/372/322
f 300/347/300 299/345/299 314/371/314
f 319/366/319 334/389/334 335/373/335
f 313/369/313 312/367/312 327/374/327
f 321/370/321 320/368/320 335/373/335
f 313/369/313 328/375/328 329/377/329
f 321/370/321 336/376/336 337/378/337
f 315/357/315 314/371/314 329/377/329
f 323/356/323 322/372/322 337/378/337
f 316/358/316 315/357/315 330/379/330
f 316/358/316 331/381/331 332/385/332
f 309/360/309 324/383/324 325/386/325
f 317/362/317 332/385/332 333/387/333
f 310/363/310 325/386/325 326/388/326
f 319/366/319 318/364/318 333/387/333
f 311/365/311 326/388/326 327/374/327
f 331/381/331 346/406/346 347/394/347
f 324/383/324 339/391/339 340/395/340
f 332/385/332 347/394/347 348/396/348
f 325/386/325 340/395/340 341/397/341
f 334/389/334 333/387/333 348/396/348
f 326/388/326 341/397/341 342/399/342
f 334/389/334 349/398/349 350/400/350
f 328/375/328 327/374/327 342/399/342
f 336/376/336 335/373/335 350/400/350
f 328/375/328 343/401/343 344/403/344
f 336/376/336 351/402/351 352/404/352
f 330/379/330 329/377/329 344/403/344
f 338/380/338 337/378/337 352/404/352
f 331/381/331 330/379/330 345/405/345
f 343/401/343 342/399/342 357/407/357
f 351/402/351 350/400/350 365/409/365
f 343/401/343 358/408/358 359/411/359
f 351/402/351 366/410/366 367/412/367
f 345/405/345 344/403/344 359/411/359
f 352/404/352 367/412/367 368/414/368
f 346/406/346 345/405/345 360/413/360
f 346/406/346 361/415/361 362/419/362
f 339/391/339 354/417/354 355/420/355
f 347/394/347 362/419/362 363/421/363
f 340/395/340 355/420/355 356/422/356
f 349/398/349 348/396/348 363/421/363
f 341/397/341 356/422/356 357/407/357
f 349/398/349 364/423/364 365/409/365
f 361/424/361 376/452/376 377/425/377
f 354/427/354 369/454/369 370/428/370
f 362/426/362 377/425/377 378/430/378
f 356/432/356 355/429/355 370/428/370
f 364/434/364 363/431/363 378/430/378
f 356/432/356 371/433/371 372/436/372
f 364/434/364 379/435/379 380/438/380
f 358/440/358 357/437/357 372/436/372
f 366/442/366 365/439/365 380/438/380
f 358/440/358 373/441/373 374/444/374
f 366/442/366 381/443/381 382/446/382
f 360/448/360 359/445/359 374/444/374
f 367/447/367 382/446/382 383/450/383
f 361/424/361 360/448/360 375/449/375
f 381/443/381 380/438/380 395/456/395
f 373/441/373 388/472/388 389/458/389
f 381/443/381 396/457/396 397/459/397
f 375/449/375 374/444/374 389/458/389
f 382/446/382 397/459/397 398/461/398
f 376/452/376 375/449/375 390/460/390
f 376/452/376 391/462/391 392/466/392
f 369/454/369 384/464/384 385/467/385
f 377/425/377 392/466/392 393/468/393
f 371/433/371 370/428/370 385/467/385
f 379/435/379 378/430/378 393/468/393
f 371/433/371 386/469/386 387/471/387
f 379/435/379 394/470/394 395/456/395
f 373/441/373 372/436/372 387/471/387
f 384/464/384 399/487/399 400/473/400
f 392/466/392 407/489/407 408/474/408
f 385/467/385 400/473/400 401/475/401
f 394/470/394 393/468/393 408/474/408
f 386/469/386 401/475/401 402/477/402
f 394/470/394 409/476/409 410/478/410
f 388/472/388 387/471/387 402/477/402
f 396/457/396 395/456/395 410/478/410
f 388/472/388 403/479/403 404/481/404
f 396/457/396 411/480/411 412/482/412
f 390/460/390 389/458/389 404/481/404
f 397/459/397 412/482/412 413/484/413
f 391/462/391 390/460/390 405/483/405
f 391/462/391 406/485/406 407/489/407
f 403/479/403 418/505/418 419/490/419
f 411/480/411 426/506/426 427/491/427
f 405/483/405 404/481/404 419/490/419
f 412/482/412 427/491/427 428/493/428
f 406/485/406 405/483/405 420/492/420
f 406/485/406 421/494/421 422/498/422
f 399/487/399 414/496/414 415/499/415
f 407/489/407 422/498/422 423/500/423
f 400/473/400 415/499/415 416/501/416
f 409/476/409 408/474/408 423/500/423
f 401/475/401 416/501/416 417/503/417
f 409/476/409 424/502/424 425/504/425
f 403/479/403 402/477/402 417/503/417
f 411/480/411 410/478/410 425/504/425
f 422/498/422 437/523/437 438/507/438
f 416/501/416 415/499/415 430/508/430
f 424/502/424 423/500/423 438/507/438
f 416/501/416 431/509/431 432/511/432
f 424/502/424 439/510/439 440/512/440
f 418/505/418 417/503/417 432/511/432
f 426/506/426 425/504/425 440/512/440
f 418/505/418 433/513/433 434/515/434
f 426/506/426 441/514/441 442/516/442
f 420/492/420 419/490/419 434/515/434
f 427/491/427 442/516/442 443/518/443
f 421/494/421 420/492/420 435/517/435
f 421/494/421 436/519/436 437/523/437
f 414/496/414 429/521/429 430/508/430
f 441/514/441 456/540/456 457/524/457
f 435/517/435 434/515/434 449/525/449
f 442/516/442 457/524/457 458/527/458
f 436/519/436 435/517/435 450/526/450
f 436/519/436 451/528/451 452/532/452
f 430/508/430 429/521/429 444/530/444
f 437/523/437 452/532/452 453/534/453
f 431/509/431 430/508/430 445/533/445
f 439/510/439 438/507/438 453/534/453
f 431/509/431 446/535/446 447/537/447
f 439/510/439 454/536/454 455/538/455
f 433/513/433 432/511/432 447/537/447
f 441/514/441 440/512/440 455/538/455
f 433/513/433 448/539/448 449/525/449
f 454/536/454 453/534/453 468/541/468
f 446/535/446 461/557/461 462/543/462
f 454/536/454 469/542/469 470/544/470
f 448/539/448 447/537/447 462/543/462
f 456/540/456 455/538/455 470/544/470
f 448/539/448 463/545/463 464/547/464
f 456/540/456 471/546/471 472/548/472
f 450/526/450 449/525/449 464/547/464
f 458/527/458 457/524/457 472/548/472
f 451/528/451 450/526/450 465/549/465
f 451/528/451 466/551/466 467/555/467
f 444/530/444 459/553/459 460/556/460
f 452/532/452 467/555/467 468/541/468
f 445/533/445 460/556/460 461/557/461
f 472/548/472 481/4/481 482/6/482
f 466/551/466 465/549/465 4/3/4
f 466/551/466 5/8/5 6/14/6
f 459/553/459 474/9/474 475/15/475
f 467/555/467 6/14/6 478/18/478
f 461/557/461 460/556/460 475/15/475
f 468/541/468 478/18/478 7/22/7
f 462/543/462 461/557/461 2/19/2
f 469/542/469 7/22/7 479/25/479
f 463/545/463 462/543/462 476/23/476
f 471/546/471 470/544/470 479/25/479
f 464/547/464 463/545/463 3/28/3
f 471/546/471 480/30/480 481/4/481
f 465/549/465 464/547/464 477/1/477
