# Blender 5.1.2
# www.blender.org
mtllib stageDemo.mtl
o Cube
v 5723.467773 2085.576660 -6816.071777
v 6131.000488 -5510.176758 -7096.966309
v 6502.794922 1220.520630 6491.160645
v 6069.405762 -5985.523926 6327.013184
v -6862.027344 1102.547485 -6790.542969
v -7151.429199 -5984.323730 -6670.736328
v -7215.983887 1025.010010 6007.302734
v -7198.406250 -6229.130859 5999.842285
v 5790.377930 1220.520630 6491.160645
v 4951.553223 1240.743408 6443.283691
v 3890.034668 1268.259521 6735.024902
v 3160.273438 1259.366943 6903.033203
v 2447.856445 1259.366943 6903.033203
v 1752.782471 1268.259521 6735.024902
v 1082.484253 1289.855225 6327.013184
v 370.066772 1289.855225 6327.013184
v -342.350677 1289.855225 6327.013184
v -1054.768066 1289.855225 6327.013184
v -1767.185425 1289.855225 6327.013184
v -2497.178467 1268.618652 6334.472656
v -3403.667725 1034.125732 6416.841309
v -4116.084961 1034.125732 6416.841309
v -4828.502441 1034.125732 6416.841309
v -6140.838379 907.781860 6247.158203
v 5723.467773 2085.576660 -6070.965820
v 6009.645996 1941.450317 -5450.092773
v 5927.096191 1658.864868 -4115.510254
v 6057.587402 1320.499512 -3360.271973
v 6069.405762 1289.855225 -2614.249268
v 6069.405762 1289.855225 -1869.144043
v 6069.405762 1289.855225 -1124.038818
v 6069.405762 1289.855225 -378.933624
v 6368.909668 1249.894165 103.892761
v 6492.237793 1233.439331 740.998596
v 6492.237793 1233.439331 1486.103760
v 6368.909668 1249.894165 2339.208252
v 6069.405762 1289.855225 3346.592285
v 6069.405762 1289.855225 4091.697266
v 6376.387695 1240.743530 4953.072754
v 6502.794922 1220.520630 5746.055664
v -7410.053711 790.518799 5344.565430
v -7410.053711 790.518799 4599.459961
v -7410.053711 790.518799 3854.354980
v -7410.053711 790.518799 3109.250000
v -7410.053711 790.518799 2364.145020
v -7410.053711 790.518799 1619.039795
v -7410.053711 790.518799 873.934692
v -7410.053711 790.518799 128.829346
v -7497.204590 685.216370 -579.287170
v -7497.204590 685.216370 -1324.392334
v -7336.932617 726.037842 -2092.891602
v -7270.936035 742.846985 -2847.629639
v -7183.785645 848.149414 -3629.723877
v -7215.983887 1025.009399 -4424.169434
v -6960.139160 1086.126587 -5264.282227
v -6862.027344 1102.547485 -6045.437012
v -5812.229004 1173.600586 -6695.116699
v -4280.475586 1346.154419 -6463.372070
v -3568.058105 1346.154419 -6463.372070
v -2855.640869 1346.154419 -6463.372070
v -2063.516113 1358.611572 -6502.745117
v -1318.277466 1363.740967 -6518.958008
v -605.859985 1363.740967 -6518.958008
v -444.399017 1217.780273 -6930.187500
v 39.918457 1164.989502 -7013.232910
v 752.335876 1164.989502 -7013.232910
v 1659.160156 1217.830078 -6852.854492
v 2843.698486 1346.154419 -6463.372070
v 3556.115723 1346.154419 -6463.372070
v 4170.420898 1329.733398 -6427.322266
v 4715.674805 1628.943848 -6962.325684
v 5011.050293 2085.576660 -6816.071777
v 5011.050293 2085.576660 -6070.965820
v 5238.629883 2093.398438 -5454.642578
v 5156.079590 1810.813110 -4120.060059
v 5276.032715 1485.285278 -3348.257324
v 5472.291992 963.643188 -2572.626953
v 5472.291992 963.643188 -1827.521851
v 5366.563477 1262.765625 -1120.582520
v 5356.988281 1289.855225 -378.933624
v 5656.492188 1249.894165 103.892761
v 5779.819824 1233.439331 740.998596
v 5779.819824 1233.439331 1486.103760
v 5656.492676 1249.894165 2339.208252
v 5356.988281 1289.855225 3346.592285
v 5356.988281 1289.855225 4091.697266
v 5663.970215 1240.743530 4953.072754
v 5790.377930 1220.520630 5746.055664
v 4715.674805 1628.944092 -6217.221191
v 4458.060059 1797.044678 -4892.321777
v 4443.662109 1810.813110 -4120.060059
v 4610.394043 1352.940430 -3331.371094
v 4807.353516 829.317749 -2555.488037
v 4807.353516 829.317749 -1810.382812
v 4759.874512 963.643066 -1082.416626
v 4644.570801 1289.855225 -378.933624
v 4645.155762 1274.844238 340.802826
v 4817.418457 1086.976807 660.597900
v 4817.418457 1086.976807 1405.702881
v 4725.093750 1264.177734 2506.114258
v 4511.794434 2132.311523 3962.256104
v 4511.794434 2132.311523 4707.361328
v 4682.765137 1351.946289 4906.576172
v 4951.553223 1240.743408 5698.178223
v 4141.744141 1400.852783 -5683.921875
v 3792.859863 1651.044312 -4860.380859
v 3789.843750 1658.864868 -4115.510254
v 4035.461670 994.789307 -3318.713867
v 4094.936279 829.317749 -2555.488037
v 4094.936279 829.317749 -1810.382812
v 4047.457031 963.643066 -1082.416626
v 3364.998291 682.053955 -380.506622
v 3372.041260 501.297729 59.116554
v 3374.941406 426.867065 678.432434
v 3374.941406 426.867065 1423.537598
v 3361.443848 568.538513 2343.571289
v 3744.703369 2479.212402 4215.770020
v 3744.703369 2479.212402 4960.875000
v 3799.376953 2132.311523 5452.466309
v 3890.034668 1268.259521 5989.919434
v 3556.115723 1346.154419 -5718.266602
v 3458.003662 1329.733643 -4937.112305
v 3219.736084 1289.855225 -4104.459473
v 3229.311035 1262.765625 -3355.897949
v 3335.039795 963.643188 -2572.626953
v 3335.039795 963.643188 -1827.521851
v 2663.079346 655.953857 -1122.152832
v 2321.358643 399.610168 -356.113190
v 2327.095215 218.423767 83.844925
v 2161.303711 88.442444 746.405151
v 2296.548828 132.979156 1456.839966
v 2415.487061 318.262146 2342.923584
v 3032.286133 2479.212402 4215.770020
v 3032.286133 2479.212402 4960.875000
v 3086.959717 2132.311523 5452.466309
v 3160.273438 1259.366943 6157.928223
v 2843.698486 1346.154419 -5718.266602
v 2745.586182 1329.733643 -4937.112305
v 2416.977539 1637.903320 -4137.023438
v 1419.462158 5480.931641 -3751.475342
v 1372.361328 5430.455566 -3006.500732
v 1621.889648 813.318359 -1791.441040
v 1302.257568 500.914520 -611.947449
v 1302.257568 500.914520 133.157700
v 1290.474243 322.996460 426.252533
v 1308.741821 117.677795 907.377197
v 1426.846802 156.570221 1622.205933
v 1632.428101 392.140167 2593.066406
v 2374.542480 2132.311523 3962.256104
v 2374.542480 2132.311523 4707.361328
v 2453.141113 1337.698486 5305.933594
v 2447.856445 1259.366943 6157.928223
v 1659.160156 1217.830078 -6107.749023
v 1845.107910 1278.617920 -5092.255371
v 707.045105 5480.930664 -4496.580078
v 206.946640 7665.018066 -5738.591309
v 206.946640 7665.018066 -4993.486328
v -498.575134 4489.509766 -2159.682129
v 577.152344 584.738647 -448.306702
v 436.668945 576.496155 228.186066
v 433.889801 508.733673 814.951111
v 503.947937 335.255188 1202.869141
v 589.281067 298.433929 1957.964478
v 707.386047 337.326324 2672.793457
v 1244.371704 770.994995 3361.180420
v 1646.032104 1986.719727 4285.324219
v 1646.032227 1986.719604 5030.429199
v 1742.386719 1327.137451 5986.947266
v 752.335876 1164.989502 -6268.126953
v 878.306641 1209.475220 -5302.112305
v -50.913902 5604.569824 -4616.888184
v -505.470703 7665.018066 -5738.591309
v -505.470703 7665.018066 -4993.486328
v -1210.992554 4489.509766 -2159.682129
v -275.748322 576.496155 -516.919189
v -338.834625 572.794739 197.374573
v -341.613922 505.032257 784.139648
v -177.940872 449.913788 1489.289795
v -17.848801 459.306763 2312.584717
v 69.219017 482.436737 2695.875732
v 933.614807 1986.719238 3540.218994
v 872.314636 2273.669434 4365.054688
v 872.314636 2273.669434 5110.159668
v 933.614990 1986.719238 5775.534668
v 39.918503 1164.989502 -6268.126953
v 165.889252 1209.475220 -5302.112305
v -24.440536 1637.903442 -4075.799316
v -823.989990 5769.249512 -4032.025635
v -945.594971 5686.828125 -3465.225586
v -925.894775 646.482117 -1800.125000
v -987.870483 489.902283 -688.159973
v -1050.956787 486.200867 26.133717
v -958.653931 520.700684 767.488647
v -665.708191 772.328064 1784.917480
v -547.603088 811.220459 2499.746338
v -91.801186 842.926575 2954.534180
v 221.197540 1986.719238 3540.218994
v 159.897186 2273.669434 4365.054688
v 159.897217 2273.669434 5110.159668
v 221.197617 1986.719238 5775.534668
v -444.398956 1217.780273 -6185.082031
v -72.333359 1334.695557 -4952.795898
v -322.563934 1293.166870 -4111.729980
v -342.350861 1289.855225 -3359.354248
v -1137.412598 607.003357 -2557.398193
v -1547.970947 298.433746 -1767.561523
v -1547.970947 298.433929 -1022.456299
v -1615.263672 325.329987 -189.025116
v -1331.608643 559.967773 831.001709
v -1202.509766 882.739258 1897.638550
v -997.019165 897.827881 2432.325439
v -1037.757935 592.650269 2953.886475
v -1047.710449 605.062744 3360.749512
v -491.219879 1986.719238 4285.324219
v -491.219879 1986.719238 5030.429199
v -354.712860 1347.723145 5597.986816
v -605.859985 1363.740967 -5773.852539
v -638.681335 1358.611572 -5012.534668
v -816.500793 1329.733643 -4192.006836
v -1054.768433 1289.855225 -3359.354248
v -1621.923706 682.053833 -2615.822266
v -2142.283447 337.326385 -1797.838013
v -2238.151611 303.859436 -934.827148
v -1871.613159 351.107544 -662.268677
v -2356.699951 324.329926 365.740265
v -2097.629150 711.638306 1121.087646
v -1902.586060 1729.726807 1774.375977
v -1984.376831 1848.370239 2158.469971
v -1329.600830 1080.395874 3318.291504
v -1054.768311 1289.855225 4091.697266
v -1054.768188 1289.855225 4836.802734
v -1054.768066 1289.855225 5581.908203
v -1318.277466 1363.740967 -5773.852539
v -1351.098755 1358.611572 -5012.534668
v -1528.918213 1329.733643 -4192.006836
v -1767.185791 1289.855225 -3359.354248
v -2334.341309 682.053833 -2615.822266
v -2567.880615 431.777435 -1871.364746
v -2725.383545 376.794067 -932.550720
v -2572.938232 323.826599 -417.863647
v -2524.396729 404.469299 269.882294
v -2575.228027 1127.445312 508.074951
v -2337.197510 1534.984741 1349.786011
v -2528.107910 1580.911499 2028.635254
v -2110.906494 1945.879761 3014.030029
v -1767.185791 1289.855225 4091.697266
v -1767.185669 1289.855225 4836.802734
v -1767.185425 1289.855225 5581.908203
v -2063.516113 1358.611572 -5757.639648
v -2136.604248 1347.188965 -4976.431152
v -2241.335693 1329.733643 -4192.006836
v -2479.603271 1289.855225 -3359.354248
v -2526.701416 1239.381592 -2614.379883
v -3046.758545 682.053650 -1870.717163
v -3280.297852 431.777435 -1126.259644
v -3431.321045 394.432251 -53.298058
v -3306.410400 393.557861 585.885620
v -3324.901855 829.183960 686.630127
v -2877.061768 1613.238281 1315.504517
v -2871.258301 1675.754639 2261.429932
v -2793.801758 1975.116455 3021.620605
v -2691.250732 1034.125732 4181.525391
v -2691.250488 1034.125854 4926.630371
v -2691.250244 1034.125854 5671.735840
v -2855.640869 1346.154419 -5718.266602
v -2953.752930 1329.733643 -4937.112305
v -3172.232422 1293.166992 -4111.729980
v -3403.668213 1034.125732 -3269.526367
v -3403.668213 1034.125732 -2524.421387
v -3363.018799 1001.547852 -1785.768188
v -3877.281250 703.035767 -1133.682129
v -4409.178223 631.731445 573.098145
v -3733.373779 607.152649 798.396912
v -3545.234131 1048.971191 1454.695923
v -3287.422852 1781.833374 1371.253906
v -3145.370605 1815.128906 2247.061279
v -3670.804688 984.169678 4022.838379
v -3490.818604 928.823364 4218.514160
v -3490.818604 928.823364 4963.619629
v -3490.818604 928.823364 5708.725098
v -3568.058105 1346.154419 -5718.266602
v -3666.170166 1329.733643 -4937.112305
v -4116.084961 1034.125854 -4014.631592
v -4203.235840 928.823364 -3232.537598
v -3880.298584 948.860718 -2433.283936
v -4167.192383 967.102478 -1738.296631
v -4378.248047 961.974976 -976.467346
v -4792.788574 894.524292 576.898987
v -4027.821289 850.084167 961.595215
v -4725.255371 894.886597 3113.875488
v -4450.805176 855.074707 3653.438721
v -4302.755859 860.860718 3985.320557
v -4329.261230 854.608337 4420.635254
v -4096.681152 840.826294 4427.562988
v -4096.681152 840.826294 5172.667969
v -4203.235840 928.823364 5708.725098
v -4280.475586 1346.154419 -5718.266602
v -4378.587402 1329.733643 -4937.112305
v -4828.502441 1034.125854 -4014.631592
v -4915.653320 928.823364 -3232.537598
v -4592.715820 948.860718 -2433.283936
v -4879.609863 967.102478 -1738.296631
v -5090.665527 961.974976 -976.467346
v -5210.467285 932.964722 -85.258347
v -4777.801270 880.092285 957.324524
v -5095.056641 840.200562 2435.174072
v -4969.797363 872.936951 3119.718262
v -4982.095703 890.790344 3666.688965
v -5016.714844 926.658203 3848.790771
v -4809.098633 840.826294 4427.562988
v -4809.098633 840.826294 5172.667969
v -4915.653320 928.823364 5708.725098
v -5812.229004 1173.600586 -5950.011230
v -5910.341309 1157.179688 -5168.856445
v -6030.707031 935.832275 -4200.390625
v -6237.491211 810.456177 -3501.934082
v -6203.051270 813.134888 -2722.066406
v -5262.419434 959.203979 -1740.270020
v -5592.557129 951.183472 -969.004639
v -5757.875977 850.674988 -190.916443
v -6051.378906 784.591919 674.542786
v -6051.378906 784.591919 1419.647949
v -6051.378906 784.591919 2164.752930
v -6441.412109 752.957703 2523.275146
v -6463.759277 752.825562 3237.039551
v -6463.759277 752.825562 3982.144775
v -6463.759277 752.825562 4727.250000
v -6463.759277 752.825562 5472.355469
vn 0.0689 0.9723 -0.2232
vn -0.0656 0.9204 0.3854
vn -0.9987 -0.0518 -0.0000
vn 0.0188 -0.9996 -0.0192
vn 0.9601 -0.2041 -0.1911
vn -0.0000 0.0125 -0.9999
vn -0.0000 1.0000 -0.0000
vn 0.0241 0.9997 -0.0000
vn 0.0259 0.9997 -0.0000
vn -0.0122 0.9999 -0.0000
vn 0.0128 0.9999 -0.0000
vn -0.0158 0.9968 0.0787
vn -0.0000 0.6206 0.7842
vn -0.6374 0.3898 0.6646
vn -0.0839 0.9932 0.0803
vn -0.0291 0.9996 -0.0000
vn -0.2638 0.9310 -0.2522
vn -0.0000 0.9891 -0.1471
vn -0.0773 0.9875 -0.1373
vn 0.1907 0.9719 0.1377
vn 0.1876 0.9585 0.2146
vn 0.1970 0.9070 0.3723
vn -0.4766 0.8780 0.0436
vn -0.4794 0.8776 -0.0000
vn -0.0385 0.9993 -0.0000
vn -0.0000 0.9966 0.0825
vn -0.0000 0.9997 0.0258
vn -0.0000 0.9998 -0.0193
vn -0.0000 0.9992 -0.0396
vn -0.0000 0.9984 0.0569
vn -0.0000 0.9997 0.0255
vn -0.8396 0.5431 -0.0000
vn -0.2922 0.9515 0.0958
vn -0.2271 0.9555 0.1883
vn -0.0000 0.9214 0.3886
vn -0.1451 0.8036 0.5772
vn -0.1980 0.9802 -0.0000
vn -0.4246 0.8093 -0.4059
vn -0.0000 0.9993 -0.0365
vn 0.0384 0.9975 0.0588
vn 0.0294 0.9994 0.0201
vn -0.1505 0.9886 -0.0000
vn 0.0122 0.9998 -0.0175
vn 0.0087 0.9993 -0.0371
vn 0.7060 0.7083 -0.0000
vn 0.1118 0.9936 0.0168
vn 0.0228 0.9995 0.0218
vn -0.3693 0.9293 -0.0000
vn -0.2190 0.9617 -0.1646
vn -0.2265 0.9738 -0.0216
vn -0.1895 0.8312 0.5226
vn -0.4222 0.6981 0.5783
vn -0.0000 0.9834 -0.1815
vn -0.0000 0.9072 -0.4207
vn -0.4290 0.9031 0.0192
vn -0.5023 0.5998 0.6229
vn -0.4161 0.9093 -0.0000
vn -0.4301 0.8849 -0.1786
vn -0.3389 0.7854 -0.5179
vn 0.4121 0.9112 -0.0000
vn 0.6854 0.3175 0.6553
vn 0.0585 0.9911 0.1194
vn -0.0868 0.9914 -0.0982
vn -0.5628 0.6938 -0.4492
vn -0.6911 0.7227 -0.0104
vn 0.2330 0.7812 0.5792
vn 0.1664 0.9663 0.1965
vn 0.1741 0.9847 -0.0000
vn -0.2078 0.9594 -0.1906
vn -0.2184 0.9604 0.1729
vn -0.2343 0.8978 0.3729
vn -0.2570 0.9594 0.1165
vn -0.2629 0.9648 -0.0000
vn -0.2527 0.9557 -0.1509
vn -0.0000 0.6999 -0.7143
vn -0.0000 0.8170 0.5766
vn -0.0000 0.5282 0.8491
vn -0.0000 0.9998 0.0210
vn -0.0000 0.9989 0.0478
vn 0.3967 0.9175 0.0281
vn 0.9140 0.4046 0.0311
vn -0.0874 0.9962 -0.0000
vn -0.0752 0.9383 0.3376
vn 0.0131 0.9465 0.3226
vn 0.2133 0.9043 0.3697
vn 0.0730 0.9751 0.2096
vn 0.0216 0.9975 -0.0667
vn -0.0121 0.9791 -0.2031
vn -0.0629 0.6638 -0.7452
vn -0.4665 0.8845 -0.0000
vn -0.5465 0.6544 0.5226
vn -0.6756 0.4282 0.6001
vn -0.1077 0.9942 -0.0000
vn -0.0590 0.9982 0.0136
vn 0.0084 0.9343 -0.3564
vn 0.7000 0.2489 -0.6693
vn 0.8485 0.5217 0.0890
vn 0.2876 0.2583 0.9223
vn 0.1754 0.9389 0.2962
vn 0.1148 0.9934 -0.0000
vn 0.3910 0.7797 0.4890
vn 0.3630 0.8619 0.3540
vn 0.2288 0.9693 -0.0905
vn 0.0642 0.9666 -0.2481
vn -0.4891 0.6586 -0.5719
vn -0.1960 0.9806 -0.0000
vn 0.2207 0.6007 0.7684
vn 0.0732 0.9931 0.0918
vn -0.0582 0.9983 -0.0000
vn -0.0608 0.9970 -0.0486
vn 0.1953 0.1893 -0.9623
vn 0.0599 -0.4830 -0.8735
vn -0.0000 0.6658 0.7461
vn -0.0000 0.4014 0.9159
vn -0.0105 0.9999 0.0100
vn -0.0093 0.9934 0.1147
vn 0.2948 0.8910 0.3452
vn 0.1772 0.9838 0.0280
vn 0.2072 0.9744 -0.0873
vn 0.1546 0.7771 -0.6101
vn 0.6948 0.2754 -0.6643
vn 0.3477 0.9376 -0.0000
vn 0.4843 0.7423 0.4631
vn -0.0000 0.9989 -0.0460
vn -0.8162 -0.0834 -0.5717
vn -0.5916 -0.4823 -0.6461
vn -0.9862 0.1657 -0.0000
vn -0.9757 0.2190 0.0025
vn -0.8923 -0.0240 0.4508
vn -0.1194 0.9928 -0.0054
vn 0.0221 0.9931 0.1148
vn 0.5267 0.8482 -0.0560
vn 0.5021 0.8581 -0.1074
vn 0.5044 0.8474 -0.1657
vn -0.1273 0.5401 -0.8319
vn -0.0000 0.9445 -0.3286
vn -0.0000 0.9182 0.3960
vn 0.1084 0.9941 -0.0000
vn 0.0982 0.9934 -0.0586
vn 0.0163 0.9447 -0.3275
vn -0.8699 -0.1634 -0.4654
vn -0.9641 -0.1377 -0.2269
vn -0.9609 0.0835 0.2640
vn -0.4822 0.8708 0.0957
vn -0.2675 0.9634 -0.0186
vn 0.0947 0.9938 -0.0580
vn 0.0581 0.9651 -0.2554
vn 0.1839 0.9794 -0.0837
vn -0.2514 0.9499 0.1858
vn -0.4411 0.5017 -0.7441
vn -0.3463 0.8778 -0.3311
vn -0.4033 0.9151 -0.0000
vn -0.4107 0.8229 0.3927
vn 0.6706 0.7418 -0.0000
vn 0.3442 0.9192 -0.1911
vn 0.0627 0.9957 0.0678
vn 0.0728 0.9973 0.0063
vn 0.0347 0.7437 0.6676
vn 0.0410 0.9233 0.3820
vn 0.0653 0.9979 -0.0000
vn 0.1380 0.9902 -0.0208
vn -0.1397 0.9728 -0.1849
vn 0.0759 0.9518 -0.2972
vn 0.7551 0.5795 -0.3066
vn 0.5497 0.7016 0.4535
vn 0.8599 0.5104 0.0055
vn -0.5522 0.6057 -0.5728
vn -0.7776 0.6288 -0.0000
vn -0.6920 0.3911 0.6067
vn -0.0000 1.0000 0.0067
vn -0.0000 0.9994 0.0352
vn -0.0000 0.7742 0.6329
vn 0.1190 0.8856 0.4489
vn 0.1481 0.9875 0.0547
vn -0.0672 0.9944 -0.0820
vn 0.3368 0.9236 0.1830
vn 0.5916 0.6169 -0.5192
vn 0.5596 0.3690 -0.7421
vn -0.3472 0.8726 -0.3435
vn 0.7363 0.6759 0.0319
vn -0.0000 0.9652 -0.2614
vn -0.0069 1.0000 -0.0000
vn -0.0067 1.0000 0.0064
vn -0.0130 0.9994 0.0323
vn 0.6735 0.2306 0.7023
vn 0.4239 0.8100 0.4053
vn 0.0739 0.9948 0.0707
vn 0.1109 0.9914 0.0692
vn 0.0313 0.9925 -0.1186
vn -0.3250 0.2752 -0.9048
vn 0.1558 0.8711 -0.4658
vn 0.1450 0.9891 -0.0261
vn 0.0182 0.9350 -0.3540
vn 0.0425 0.8594 0.5096
vn -0.2667 0.9638 -0.0000
vn -0.0157 0.9999 -0.0000
vn -0.0151 0.9998 0.0132
vn -0.0204 0.9996 0.0195
vn -0.0360 0.9986 0.0375
vn -0.2620 0.9638 0.0487
vn 0.5879 0.3941 0.7065
vn 0.3752 0.8367 0.3990
vn 0.2789 0.9576 0.0726
vn 0.4140 0.9068 -0.0797
vn -0.3565 0.1961 -0.9135
vn -0.6424 0.6681 -0.3755
vn 0.3719 0.9261 -0.0635
vn -0.8083 0.5713 -0.1426
vn -0.1411 0.7627 0.6312
vn -0.1306 0.9914 -0.0000
vn -0.0000 0.9990 0.0443
vn -0.2362 0.9451 0.2258
vn -0.1761 0.9844 -0.0000
vn -0.1661 0.9847 0.0526
vn -0.0151 0.9136 0.4063
vn 0.5544 0.8063 0.2064
vn 0.2413 0.7255 -0.6446
vn -0.5731 0.7465 -0.3382
vn -0.8045 0.2202 -0.5517
vn -0.5772 0.8142 0.0627
vn -0.1991 0.9089 0.3664
vn -0.0159 0.9582 0.2857
vn -0.1437 0.9896 -0.0000
vn -0.0000 0.9523 0.3052
vn -0.0000 0.9911 0.1334
vn -0.0000 0.9997 -0.0251
vn -0.0000 0.9997 -0.0262
vn 0.0163 0.9987 0.0477
vn 0.0397 0.9985 0.0363
vn -0.0685 0.9967 -0.0430
vn -0.0860 0.9894 0.1168
vn 0.0658 0.9967 -0.0467
vn 0.0880 0.9959 0.0197
vn -0.0000 0.4491 0.8935
vn -0.0000 0.9868 -0.1620
vn -0.1119 0.9937 -0.0000
vn -0.1129 0.9936 0.0067
vn -0.1442 0.9606 0.2375
vn -0.0996 0.9875 0.1219
vn -0.0857 0.9963 0.0097
vn -0.0204 0.9992 -0.0347
vn -0.0206 0.9998 0.0010
vn -0.0210 0.9993 0.0297
vn -0.1702 0.9780 0.1202
vn -0.0705 0.9974 0.0118
vn -0.0470 0.9981 -0.0391
vn -0.0675 0.9971 -0.0341
vn -0.0334 0.9794 -0.1993
vn -0.1008 0.9783 0.1812
vn -0.0531 0.9986 -0.0000
vn -0.0843 0.9805 -0.1777
vn -0.0675 0.9977 -0.0000
vn -0.0686 0.9976 0.0123
vn -0.0852 0.9736 0.2119
vn 0.0147 0.9834 0.1809
vn -0.0656 0.9978 -0.0005
vn -0.1034 0.9934 -0.0488
vn -0.1058 0.9938 -0.0349
vn -0.1549 0.9834 0.0941
vn -0.0231 0.9974 0.0683
vn 0.0044 1.0000 -0.0000
vn -0.0216 0.9977 0.0646
vn 0.0396 0.9992 0.0014
vn 0.0398 0.9992 -0.0000
vn 0.1828 0.9088 -0.3751
vn -0.0243 -0.0213 0.9995
vn -0.0000 -0.0658 0.9978
vn -0.2179 -0.0015 0.9760
vn -0.0000 -0.8021 0.5972
vn -0.0000 0.3314 0.9435
vn -0.0196 -0.0317 0.9993
vn 0.1568 -0.7509 0.6415
vn -0.0319 0.5882 0.8081
vn 0.0221 -0.9394 0.3422
vn -0.0000 -0.9992 0.0405
vn -0.0000 0.9986 0.0529
vn 0.0238 -0.9852 0.1697
vn -0.0621 0.9497 0.3070
vn -1.0000 -0.0024 -0.0038
vn -0.5053 -0.7563 0.4156
vn -0.9992 0.0408 -0.0000
vn -0.2777 0.9606 -0.0147
vn -0.5524 -0.8181 -0.1597
vn -0.9993 -0.0381 -0.0000
vn -0.9906 0.0516 -0.1265
vn -0.2468 0.9691 -0.0000
vn -0.9936 0.0421 -0.1051
vn -0.7704 0.6376 -0.0000
vn -0.9874 0.0644 -0.1442
vn -0.9948 -0.0916 0.0438
vn 0.0345 -0.9988 -0.0352
vn 0.9986 0.0533 0.0065
vn 0.4498 0.8931 -0.0000
vn 0.6967 0.6918 0.1896
vn 0.6992 -0.6808 -0.2183
vn 0.9982 -0.0600 -0.0000
vn 0.1580 0.9874 -0.0000
vn 0.9847 -0.0720 -0.1588
vn 0.9756 -0.1748 -0.1330
vn 0.9997 -0.0205 -0.0167
vn 0.9788 -0.0776 -0.1894
vn 0.9535 0.1143 0.2789
vn 1.0000 -0.0000 -0.0000
vn 0.1323 0.9912 -0.0000
vn 0.9891 0.0375 0.1423
vn 0.9983 -0.0585 -0.0000
vn 0.9405 -0.2430 -0.2373
vn -0.0315 -0.0156 -0.9994
vn -0.0000 0.8021 -0.5972
vn 0.0758 0.1942 -0.9780
vn -0.0000 0.0370 -0.9993
vn 0.3348 0.0841 -0.9385
vn 0.0845 0.2095 -0.9741
vn -0.0000 -0.9534 -0.3016
vn -0.0000 0.0920 -0.9958
vn -0.6620 -0.1173 -0.7403
vn -0.0000 -0.9100 -0.4145
vn 0.0216 0.9282 -0.3715
vn -0.0366 0.0443 -0.9983
vn -0.0000 0.9424 -0.3345
vn -0.4433 -0.4135 -0.7953
vn 0.1593 0.1413 -0.9771
vn 0.1642 0.1445 -0.9758
vn -0.1834 -0.1551 -0.9707
vn 0.0768 0.9941 0.0772
vn 0.3280 0.6283 0.7054
vn -0.0000 0.9969 0.0791
vn -0.2807 0.9277 -0.2461
vn -0.1354 0.9823 -0.1294
vn -0.0873 0.9832 -0.1602
vn -0.0000 0.9999 -0.0127
vn 0.1784 0.9162 0.3587
vn 0.1843 0.8365 0.5160
vn -0.4602 0.7909 -0.4035
vn -0.0387 0.9986 -0.0370
vn -0.7834 0.5791 -0.2258
vn -0.0000 0.9998 -0.0178
vn -0.1538 0.8401 0.5202
vn -0.1471 0.8022 0.5787
vn -0.1991 0.9613 -0.1904
vn -0.4196 0.7953 -0.4376
vn -0.0000 0.9998 0.0209
vn -0.1701 0.8069 0.5656
vn -0.1345 0.9765 -0.1685
vn 0.4901 0.7784 -0.3923
vn 0.7432 0.3137 0.5910
vn 0.1072 0.9889 0.1025
vn -0.5526 0.8274 -0.1005
vn -0.6625 0.5910 -0.4602
vn -0.2149 0.9766 -0.0111
vn -0.3878 0.6458 0.6577
vn -0.0000 0.9773 0.2119
vn -0.4284 0.9020 -0.0547
vn -0.5425 0.7738 0.3269
vn -0.4124 0.9042 0.1106
vn -0.4132 0.8991 -0.1445
vn 0.0743 0.6903 -0.7197
vn 0.4878 0.7379 0.4664
vn 0.7161 0.4213 0.5565
vn 0.0267 0.9996 -0.0000
vn -0.0935 0.9956 0.0092
vn -0.5413 0.8329 -0.1150
vn -0.5425 0.8392 0.0373
vn 0.2873 0.9071 0.3076
vn 0.1393 0.8522 0.5044
vn -0.2513 0.9461 0.2045
vn -0.2342 0.8979 0.3728
vn -0.2602 0.9577 0.1228
vn -0.2691 0.9631 -0.0092
vn -0.2641 0.9506 -0.1633
vn -0.1776 0.6730 -0.7180
vn -0.0000 0.8171 0.5766
vn 0.1673 0.6282 0.7599
vn 0.3973 0.8992 -0.1832
vn 0.7287 0.2530 -0.6363
vn 0.9128 0.3996 0.0848
vn 0.3827 0.2544 0.8882
vn -0.0158 0.9676 0.2520
vn 0.0989 0.9951 -0.0000
vn 0.3204 0.8040 0.5009
vn 0.2152 0.9011 0.3764
vn 0.0162 0.9982 -0.0570
vn 0.0153 0.9709 -0.2388
vn -0.1736 0.6536 -0.7366
vn -0.6593 0.4097 0.6304
vn -0.0000 0.9958 0.0916
vn -0.0938 0.9947 -0.0424
vn 0.7695 0.2891 -0.5694
vn 0.7048 -0.2218 -0.6739
vn 0.8743 0.4854 -0.0000
vn 0.0032 0.6654 0.7465
vn 0.6685 0.4453 0.5957
vn 0.0903 0.9954 0.0309
vn 0.0989 0.9885 0.1146
vn 0.3412 0.8795 0.3317
vn 0.1778 0.9837 0.0279
vn -0.0629 0.9971 -0.0439
vn -0.0929 0.8735 -0.4778
vn -0.4159 0.6334 -0.6525
vn 0.4460 0.7572 0.4772
vn -0.0512 0.9979 -0.0393
vn 0.1840 0.1893 -0.9645
vn -0.0000 -0.4781 -0.8783
vn -0.0780 0.3700 0.9257
vn -0.0050 1.0000 0.0047
vn -0.0079 0.9968 0.0798
vn 0.2256 0.9727 -0.0550
vn 0.2167 0.9703 -0.1078
vn 0.4334 0.2388 -0.8690
vn 0.3059 0.9060 -0.2925
vn 0.3575 0.8691 0.3419
vn -0.0000 0.9440 -0.3298
vn -0.6145 -0.1107 -0.7811
vn -0.9777 0.0625 -0.2007
vn -0.9541 -0.0973 -0.2832
vn -0.1504 0.9801 0.1296
vn -0.1130 0.9931 -0.0321
vn 0.0313 0.9681 -0.2484
vn 0.5159 0.8465 -0.1313
vn 0.5206 0.6389 -0.5663
vn -0.0000 0.4558 -0.8901
vn 0.2551 0.9523 -0.1674
vn -0.7335 0.6537 -0.1860
vn -0.7554 0.6550 -0.0170
vn -0.6584 -0.1083 -0.7449
vn -0.4827 0.8712 0.0894
vn -0.3235 0.9462 -0.0000
vn -0.2937 0.9543 -0.0545
vn -0.2127 0.9635 -0.1625
vn 0.1309 0.9444 -0.3016
vn 0.2034 0.9734 -0.1056
vn 0.0888 0.8567 0.5082
vn -0.2556 0.9661 -0.0357
vn -0.5772 0.6018 -0.5519
vn -0.6568 0.4175 0.6280
vn 0.0413 0.9991 0.0085
vn 0.0376 0.9984 0.0433
vn 0.0867 0.8971 0.4332
vn 0.0130 0.9991 0.0402
vn -0.0119 0.9878 -0.1552
vn 0.0280 0.9988 0.0392
vn 0.0030 0.8894 -0.4571
vn 0.5698 0.3637 -0.7369
vn 0.7018 0.7090 -0.0695
vn 0.8224 0.5613 -0.0926
vn 0.8021 0.4396 -0.4041
vn -0.0824 0.9966 -0.0000
vn -0.0000 0.9479 0.3187
vn 0.2008 0.9754 0.0908
vn 0.1481 0.9873 0.0578
vn -0.0771 0.9909 -0.1107
vn 0.8366 0.2236 -0.5001
vn 0.8386 0.3580 -0.4105
vn -0.2841 0.9479 -0.1440
vn -0.4040 0.9002 -0.1624
vn 0.6904 0.6945 0.2025
vn -0.0139 0.9998 0.0133
vn -0.0000 0.9998 0.0222
vn -0.0000 0.9977 0.0676
vn 0.7016 0.2404 0.6708
vn 0.0825 0.9955 0.0463
vn -0.0124 0.9999 0.0038
vn -0.3698 0.1944 -0.9085
vn -0.4168 0.7016 -0.5779
vn 0.2242 0.9723 -0.0656
vn 0.0357 0.9286 -0.3693
vn -0.1494 0.7614 0.6309
vn -0.0205 0.9996 0.0184
vn -0.0362 0.9987 0.0347
vn -0.2396 0.9445 0.2247
vn -0.2279 0.9737 -0.0000
vn -0.2222 0.9734 0.0552
vn 0.6075 0.4226 0.6726
vn 0.4064 0.8988 0.1642
vn 0.1041 0.9730 -0.2061
vn -0.5198 0.7702 -0.3695
vn -0.1573 -0.0569 -0.9859
vn 0.4551 0.8839 -0.1074
vn 0.3770 0.7911 0.4817
vn -0.1055 0.9272 0.3593
vn -0.2421 0.9521 0.1870
vn -0.1242 0.9851 0.1188
vn -0.1293 0.9912 0.0274
vn -0.0454 0.9980 -0.0449
vn 0.4892 0.8606 0.1413
vn 0.4939 0.8530 0.1688
vn 0.3920 0.5825 -0.7121
vn 0.6886 0.6944 0.2087
vn -0.3024 0.9269 0.2222
vn -0.3997 0.9021 0.1626
vn -0.1917 0.9815 0.0024
vn 0.0377 0.8772 0.4786
vn -0.2076 0.9579 -0.1985
vn -0.0000 0.9995 0.0325
vn 0.0340 0.9988 0.0366
vn 0.0398 0.9986 0.0355
vn -0.0901 0.9954 -0.0311
vn 0.0663 0.9973 -0.0311
vn 0.1225 0.9779 -0.1693
vn -0.0261 0.9874 0.1558
vn -0.1116 0.9717 0.2082
vn -0.1169 0.9830 0.1418
vn -0.0893 0.9960 0.0005
vn -0.0692 0.9943 -0.0817
vn -0.0215 0.9998 0.0012
vn -0.1653 0.9820 0.0917
vn -0.0851 0.9953 0.0471
vn -0.0748 0.9972 -0.0000
vn -0.0581 0.9983 -0.0000
vn -0.0811 0.9967 -0.0003
vn -0.0919 0.9958 -0.0027
vn -0.1193 0.9929 -0.0000
vn 0.0578 0.9943 0.0899
vn 0.0327 0.9759 0.2159
vn 0.0211 0.9905 0.1357
vn -0.0676 0.9976 0.0163
vn -0.1424 0.9895 0.0229
vn -0.0947 0.9955 -0.0000
vn -0.0629 0.9883 -0.1392
vn 0.0387 0.9992 -0.0000
vt 0.875000 0.735294
vt 0.860294 0.750000
vt 0.860294 0.735294
vt 0.625000 0.838235
vt 0.625000 0.882353
vt 0.625000 0.941177
vt 0.625000 0.132353
vt 0.625000 0.147059
vt 0.375000 0.250000
vt 0.125000 0.500000
vt 0.375000 0.750000
vt 0.125000 0.750000
vt 0.625000 0.632353
vt 0.625000 0.647059
vt 0.625000 0.382353
vt 0.625000 0.397059
vt 0.375000 0.500000
vt 0.639706 0.735294
vt 0.625000 0.750000
vt 0.625000 0.735294
vt 0.654412 0.750000
vt 0.639706 0.750000
vt 0.669118 0.735294
vt 0.654412 0.735294
vt 0.683823 0.735294
vt 0.669118 0.750000
vt 0.698529 0.735294
vt 0.683824 0.750000
vt 0.713235 0.750000
vt 0.698529 0.750000
vt 0.713235 0.735294
vt 0.727941 0.750000
vt 0.727941 0.735294
vt 0.742647 0.750000
vt 0.757353 0.735294
vt 0.742647 0.735294
vt 0.772059 0.735294
vt 0.757353 0.750000
vt 0.786765 0.735294
vt 0.772059 0.750000
vt 0.801471 0.750000
vt 0.786765 0.750000
vt 0.801471 0.735294
vt 0.816176 0.750000
vt 0.816176 0.735294
vt 0.830882 0.750000
vt 0.830882 0.735294
vt 0.845588 0.750000
vt 0.845588 0.735294
vt 0.639706 0.500000
vt 0.625000 0.514706
vt 0.625000 0.500000
vt 0.639706 0.529412
vt 0.625000 0.529412
vt 0.639706 0.544118
vt 0.625000 0.544118
vt 0.639706 0.558824
vt 0.625000 0.558824
vt 0.639706 0.573529
vt 0.625000 0.573529
vt 0.625000 0.588235
vt 0.639706 0.602941
vt 0.625000 0.602941
vt 0.639706 0.617647
vt 0.625000 0.617647
vt 0.639706 0.632353
vt 0.639706 0.647059
vt 0.625000 0.661765
vt 0.639706 0.661765
vt 0.625000 0.676471
vt 0.639706 0.676471
vt 0.625000 0.691177
vt 0.639706 0.691177
vt 0.625000 0.705882
vt 0.639706 0.720588
vt 0.625000 0.720588
vt 0.654412 0.514706
vt 0.639706 0.514706
vt 0.654412 0.529412
vt 0.654412 0.544118
vt 0.654412 0.558824
vt 0.654412 0.573529
vt 0.639706 0.588235
vt 0.654412 0.602941
vt 0.654412 0.617647
vt 0.654412 0.632353
vt 0.654412 0.661765
vt 0.654412 0.676471
vt 0.654412 0.691177
vt 0.639706 0.705882
vt 0.654412 0.720588
vt 0.654412 0.500000
vt 0.669118 0.514706
vt 0.669118 0.529412
vt 0.669118 0.544118
vt 0.669118 0.558824
vt 0.669118 0.573529
vt 0.654412 0.588235
vt 0.669118 0.588235
vt 0.669118 0.602941
vt 0.669118 0.617647
vt 0.669118 0.632353
vt 0.654412 0.647059
vt 0.669118 0.647059
vt 0.669118 0.676471
vt 0.669118 0.691177
vt 0.654412 0.705882
vt 0.669118 0.720588
vt 0.669118 0.500000
vt 0.683824 0.514706
vt 0.683824 0.529412
vt 0.683823 0.558824
vt 0.683823 0.573529
vt 0.683824 0.588235
vt 0.683824 0.602941
vt 0.683823 0.617647
vt 0.683823 0.632353
vt 0.683824 0.661765
vt 0.669118 0.661765
vt 0.683824 0.676471
vt 0.683824 0.691177
vt 0.669118 0.705882
vt 0.683823 0.720588
vt 0.698529 0.500000
vt 0.683824 0.500000
vt 0.698529 0.514706
vt 0.698529 0.529412
vt 0.683824 0.544118
vt 0.698529 0.544118
vt 0.698529 0.573529
vt 0.698529 0.588235
vt 0.698529 0.602941
vt 0.698529 0.632353
vt 0.698529 0.647059
vt 0.683823 0.647059
vt 0.698529 0.661765
vt 0.698529 0.691177
vt 0.698529 0.705882
vt 0.683824 0.705882
vt 0.698529 0.720588
vt 0.713235 0.514706
vt 0.713235 0.529412
vt 0.713235 0.544118
vt 0.698529 0.558824
vt 0.713235 0.573529
vt 0.713235 0.588235
vt 0.713235 0.602941
vt 0.698529 0.617647
vt 0.713235 0.632353
vt 0.713235 0.647059
vt 0.713235 0.661765
vt 0.698529 0.676471
vt 0.713235 0.691177
vt 0.713235 0.705882
vt 0.713235 0.720588
vt 0.713235 0.500000
vt 0.727941 0.514706
vt 0.727941 0.529412
vt 0.727941 0.544118
vt 0.713235 0.558824
vt 0.727941 0.558824
vt 0.727941 0.573529
vt 0.727941 0.588235
vt 0.727941 0.602941
vt 0.713235 0.617647
vt 0.727941 0.617647
vt 0.727941 0.647059
vt 0.727941 0.661765
vt 0.713235 0.676471
vt 0.727941 0.676471
vt 0.727941 0.691176
vt 0.727941 0.705882
vt 0.742647 0.500000
vt 0.727941 0.500000
vt 0.742647 0.529412
vt 0.742647 0.544118
vt 0.742647 0.558824
vt 0.742647 0.573529
vt 0.742647 0.588235
vt 0.742647 0.617647
vt 0.742647 0.632353
vt 0.727941 0.632353
vt 0.742647 0.647059
vt 0.742647 0.661765
vt 0.742647 0.676471
vt 0.742647 0.691176
vt 0.742647 0.705882
vt 0.727941 0.720588
vt 0.757353 0.500000
vt 0.742647 0.514706
vt 0.757353 0.514706
vt 0.757353 0.529412
vt 0.757353 0.558824
vt 0.757353 0.573529
vt 0.757353 0.588235
vt 0.742647 0.602941
vt 0.757353 0.617647
vt 0.757353 0.632353
vt 0.757353 0.647059
vt 0.757353 0.676471
vt 0.757353 0.691176
vt 0.757353 0.705882
vt 0.757353 0.720588
vt 0.742647 0.720588
vt 0.772059 0.500000
vt 0.772059 0.514706
vt 0.772059 0.544118
vt 0.757353 0.544118
vt 0.772059 0.573529
vt 0.772059 0.588235
vt 0.757353 0.602941
vt 0.772059 0.617647
vt 0.772059 0.632353
vt 0.772059 0.647059
vt 0.772059 0.661765
vt 0.757353 0.661765
vt 0.772059 0.676471
vt 0.772059 0.691176
vt 0.772059 0.705882
vt 0.772059 0.720588
vt 0.786765 0.500000
vt 0.786765 0.514706
vt 0.772059 0.529412
vt 0.786765 0.529412
vt 0.786765 0.544118
vt 0.772059 0.558824
vt 0.786765 0.558824
vt 0.786765 0.588235
vt 0.786765 0.602941
vt 0.772059 0.602941
vt 0.786765 0.617647
vt 0.786765 0.632353
vt 0.786765 0.661765
vt 0.786765 0.676471
vt 0.786765 0.691176
vt 0.786765 0.705882
vt 0.801471 0.500000
vt 0.801471 0.514706
vt 0.801471 0.529412
vt 0.801471 0.544118
vt 0.801471 0.573529
vt 0.786765 0.573529
vt 0.801471 0.588235
vt 0.801471 0.602941
vt 0.801470 0.617647
vt 0.801471 0.647059
vt 0.786765 0.647059
vt 0.801471 0.661765
vt 0.801471 0.676471
vt 0.801471 0.691176
vt 0.801471 0.705882
vt 0.786765 0.720588
vt 0.801471 0.720588
vt 0.816176 0.500000
vt 0.816177 0.514706
vt 0.816177 0.529412
vt 0.816177 0.544118
vt 0.801471 0.558824
vt 0.816177 0.558824
vt 0.816177 0.588235
vt 0.816177 0.602941
vt 0.816177 0.617647
vt 0.816177 0.632353
vt 0.801470 0.632353
vt 0.816177 0.647059
vt 0.816177 0.661765
vt 0.816177 0.691177
vt 0.816177 0.705882
vt 0.816176 0.720588
vt 0.830882 0.500000
vt 0.830882 0.514706
vt 0.830882 0.529412
vt 0.830882 0.544118
vt 0.830882 0.573529
vt 0.816177 0.573529
vt 0.830882 0.588235
vt 0.830882 0.617647
vt 0.830882 0.632353
vt 0.830882 0.647059
vt 0.830882 0.676471
vt 0.816177 0.676471
vt 0.830882 0.691177
vt 0.830882 0.705882
vt 0.845588 0.500000
vt 0.845588 0.514706
vt 0.845588 0.529412
vt 0.845588 0.544118
vt 0.830882 0.558824
vt 0.845588 0.573529
vt 0.845588 0.588235
vt 0.830882 0.602941
vt 0.845588 0.617647
vt 0.845588 0.632353
vt 0.845588 0.647059
vt 0.845588 0.661765
vt 0.830882 0.661765
vt 0.845588 0.676471
vt 0.845588 0.691177
vt 0.845588 0.705882
vt 0.830882 0.720588
vt 0.845588 0.720588
vt 0.860294 0.514706
vt 0.860294 0.529412
vt 0.860294 0.544118
vt 0.845588 0.558824
vt 0.860294 0.573529
vt 0.860294 0.588235
vt 0.845588 0.602941
vt 0.860294 0.602941
vt 0.860294 0.617647
vt 0.860294 0.647059
vt 0.860294 0.661765
vt 0.860294 0.676471
vt 0.860294 0.691177
vt 0.860294 0.705882
vt 0.860294 0.720588
vt 0.860294 0.500000
vt 0.875000 0.514706
vt 0.875000 0.529412
vt 0.875000 0.558824
vt 0.860294 0.558824
vt 0.875000 0.573530
vt 0.875000 0.588235
vt 0.875000 0.602941
vt 0.875000 0.632353
vt 0.860294 0.632353
vt 0.875000 0.647059
vt 0.875000 0.661765
vt 0.875000 0.691177
vt 0.875000 0.705882
vt 0.875000 0.720588
vt 0.875000 0.750000
vt 0.375000 1.000000
vt 0.625000 0.764706
vt 0.625000 0.985294
vt 0.625000 1.000000
vt 0.625000 0.955882
vt 0.625000 0.970588
vt 0.625000 0.911765
vt 0.625000 0.926471
vt 0.625000 0.779412
vt 0.625000 0.794118
vt 0.625000 0.808824
vt 0.625000 0.897059
vt 0.625000 0.823529
vt 0.625000 0.852941
vt 0.625000 0.867647
vt 0.375000 0.000000
vt 0.625000 0.000000
vt 0.625000 0.014706
vt 0.625000 0.235294
vt 0.625000 0.250000
vt 0.625000 0.205882
vt 0.625000 0.220588
vt 0.625000 0.191176
vt 0.625000 0.029412
vt 0.625000 0.044118
vt 0.625000 0.161765
vt 0.625000 0.176471
vt 0.625000 0.058824
vt 0.625000 0.073529
vt 0.625000 0.088235
vt 0.625000 0.102941
vt 0.625000 0.117647
vt 0.625000 0.264706
vt 0.625000 0.279412
vt 0.625000 0.294118
vt 0.625000 0.485294
vt 0.625000 0.470588
vt 0.625000 0.308824
vt 0.625000 0.323529
vt 0.625000 0.338235
vt 0.625000 0.455882
vt 0.625000 0.426471
vt 0.625000 0.441176
vt 0.625000 0.411765
vt 0.625000 0.352941
vt 0.625000 0.367647
vt 0.875000 0.500000
vt 0.875000 0.544118
vt 0.875000 0.617647
vt 0.875000 0.676471
s 0
usemtl Material
f 41/1/1 24/2/1 328/3/1
f 14/4/2 17/5/2 21/6/2
f 49/7/3 50/8/3 6/9/3
f 6/10/4 4/11/4 8/12/4
f 33/13/5 34/14/5 4/11/5
f 65/15/6 66/16/6 2/17/6
f 88/18/7 3/19/7 40/20/7
f 88/18/8 10/21/8 9/22/8
f 120/23/9 10/21/9 104/24/9
f 136/25/10 11/26/10 120/23/10
f 152/27/7 12/28/7 136/25/7
f 152/27/11 14/29/11 13/30/11
f 168/31/12 15/32/12 14/29/12
f 184/33/13 16/34/13 15/32/13
f 216/35/14 16/34/14 200/36/14
f 232/37/15 17/38/15 216/35/15
f 248/39/7 18/40/7 232/37/7
f 248/39/16 20/41/16 19/42/16
f 264/43/17 21/44/17 20/41/17
f 280/45/18 22/46/18 21/44/18
f 296/47/18 23/48/18 22/46/18
f 312/49/19 24/2/19 23/48/19
f 72/50/7 25/51/7 1/52/7
f 25/51/20 74/53/20 26/54/20
f 26/54/21 75/55/21 27/56/21
f 27/56/22 76/57/22 28/58/22
f 28/58/23 77/59/23 29/60/23
f 77/59/24 30/61/24 29/60/24
f 30/61/25 79/62/25 31/63/25
f 31/63/7 80/64/7 32/65/7
f 32/65/26 81/66/26 33/13/26
f 33/13/27 82/67/27 34/14/27
f 82/67/7 35/68/7 34/14/7
f 83/69/28 36/70/28 35/68/28
f 84/71/29 37/72/29 36/70/29
f 85/73/7 38/74/7 37/72/7
f 38/74/30 87/75/30 39/76/30
f 39/76/31 88/18/31 40/20/31
f 72/50/32 89/77/32 73/78/32
f 73/78/33 90/79/33 74/53/33
f 90/79/34 75/55/34 74/53/34
f 91/80/35 76/57/35 75/55/35
f 92/81/36 77/59/36 76/57/36
f 93/82/37 78/83/37 77/59/37
f 78/83/38 95/84/38 79/62/38
f 79/62/39 96/85/39 80/64/39
f 80/64/40 97/86/40 81/66/40
f 97/86/41 82/67/41 81/66/41
f 82/67/42 99/87/42 83/69/42
f 83/69/43 100/88/43 84/71/43
f 100/88/44 85/73/44 84/71/44
f 101/89/45 86/90/45 85/73/45
f 86/90/46 103/91/46 87/75/46
f 87/75/47 104/24/47 88/18/47
f 71/92/48 105/93/48 89/77/48
f 89/77/49 106/94/49 90/79/49
f 90/79/50 107/95/50 91/80/50
f 107/95/51 92/81/51 91/80/51
f 108/96/52 93/82/52 92/81/52
f 109/97/7 94/98/7 93/82/7
f 110/99/53 95/84/53 94/98/53
f 111/100/54 96/85/54 95/84/54
f 112/101/55 97/86/55 96/85/55
f 113/102/56 98/103/56 97/86/56
f 114/104/57 99/87/57 98/103/57
f 99/87/58 116/105/58 100/88/58
f 116/105/59 101/89/59 100/88/59
f 117/106/60 102/107/60 101/89/60
f 102/107/61 119/108/61 103/91/61
f 103/91/62 120/23/62 104/24/62
f 70/109/63 121/110/63 105/93/63
f 105/93/64 122/111/64 106/94/64
f 122/111/65 107/95/65 106/94/65
f 107/95/66 124/112/66 108/96/66
f 108/96/67 125/113/67 109/97/67
f 109/97/68 126/114/68 110/99/68
f 110/99/69 127/115/69 111/100/69
f 127/115/70 112/101/70 111/100/70
f 128/116/71 113/102/71 112/101/71
f 129/117/72 114/104/72 113/102/72
f 114/104/73 131/118/73 115/119/73
f 115/119/74 132/120/74 116/105/74
f 116/105/75 133/121/75 117/106/75
f 133/121/7 118/122/7 117/106/7
f 118/122/76 135/123/76 119/108/76
f 135/123/77 120/23/77 119/108/77
f 68/124/7 121/110/7 69/125/7
f 137/126/78 122/111/78 121/110/78
f 138/127/79 123/128/79 122/111/79
f 139/129/80 124/112/80 123/128/80
f 124/112/81 141/130/81 125/113/81
f 125/113/82 142/131/82 126/114/82
f 142/131/83 127/115/83 126/114/83
f 143/132/84 128/116/84 127/115/84
f 128/116/85 145/133/85 129/117/85
f 129/117/86 146/134/86 130/135/86
f 146/134/87 131/118/87 130/135/87
f 147/136/88 132/120/88 131/118/88
f 132/120/89 149/137/89 133/121/89
f 133/121/90 150/138/90 134/139/90
f 150/138/91 135/123/91 134/139/91
f 151/140/92 136/25/92 135/123/92
f 68/124/93 153/141/93 137/126/93
f 137/126/94 154/142/94 138/127/94
f 154/142/95 139/129/95 138/127/95
f 155/143/96 140/144/96 139/129/96
f 140/144/97 157/145/97 141/130/97
f 141/130/98 158/146/98 142/131/98
f 142/131/99 159/147/99 143/132/99
f 159/147/100 144/148/100 143/132/100
f 144/148/101 161/149/101 145/133/101
f 145/133/102 162/150/102 146/134/102
f 162/150/103 147/136/103 146/134/103
f 163/151/104 148/152/104 147/136/104
f 148/152/105 165/153/105 149/137/105
f 149/137/106 166/154/106 150/138/106
f 150/138/107 167/155/107 151/140/107
f 151/140/108 168/31/108 152/27/108
f 67/156/109 169/157/109 153/141/109
f 153/141/110 170/158/110 154/142/110
f 170/158/111 155/143/111 154/142/111
f 171/159/112 156/160/112 155/143/112
f 172/161/7 157/145/7 156/160/7
f 173/162/113 158/146/113 157/145/113
f 174/163/114 159/147/114 158/146/114
f 175/164/115 160/165/115 159/147/115
f 176/166/116 161/149/116 160/165/116
f 161/149/117 178/167/117 162/150/117
f 178/167/118 163/151/118 162/150/118
f 179/168/119 164/169/119 163/151/119
f 180/170/120 165/153/120 164/169/120
f 181/171/121 166/154/121 165/153/121
f 182/172/122 167/155/122 166/154/122
f 167/155/123 184/33/123 168/31/123
f 65/173/7 169/157/7 66/174/7
f 169/157/124 186/175/124 170/158/124
f 170/158/125 187/176/125 171/159/125
f 171/159/126 188/177/126 172/161/126
f 188/177/127 173/162/127 172/161/127
f 189/178/128 174/163/128 173/162/128
f 190/179/129 175/164/129 174/163/129
f 175/164/130 192/180/130 176/166/130
f 176/166/131 193/181/131 177/182/131
f 177/182/132 194/183/132 178/167/132
f 194/183/133 179/168/133 178/167/133
f 195/184/134 180/170/134 179/168/134
f 196/185/135 181/171/135 180/170/135
f 197/186/136 182/172/136 181/171/136
f 198/187/7 183/188/7 182/172/7
f 183/188/137 200/36/137 184/33/137
f 64/189/138 185/190/138 65/173/138
f 201/191/139 186/175/139 185/190/139
f 202/192/140 187/176/140 186/175/140
f 187/176/141 204/193/141 188/177/141
f 204/193/142 189/178/142 188/177/142
f 205/194/143 190/179/143 189/178/143
f 206/195/144 191/196/144 190/179/144
f 191/196/145 208/197/145 192/180/145
f 192/180/146 209/198/146 193/181/146
f 209/198/147 194/183/147 193/181/147
f 210/199/148 195/184/148 194/183/148
f 195/184/149 212/200/149 196/185/149
f 196/185/150 213/201/150 197/186/150
f 197/186/151 214/202/151 198/187/151
f 198/187/152 215/203/152 199/204/152
f 215/203/153 200/36/153 199/204/153
f 63/205/154 201/191/154 64/189/154
f 217/206/155 202/192/155 201/191/155
f 202/192/156 219/207/156 203/208/156
f 219/207/157 204/193/157 203/208/157
f 204/193/158 221/209/158 205/194/158
f 205/194/159 222/210/159 206/195/159
f 222/210/160 207/211/160 206/195/160
f 207/211/161 224/212/161 208/197/161
f 208/197/162 225/213/162 209/198/162
f 209/198/163 226/214/163 210/199/163
f 210/199/164 227/215/164 211/216/164
f 211/216/165 228/217/165 212/200/165
f 212/200/166 229/218/166 213/201/166
f 213/201/167 230/219/167 214/202/167
f 214/202/168 231/220/168 215/203/168
f 231/220/169 216/35/169 215/203/169
f 62/221/7 217/206/7 63/205/7
f 233/222/170 218/223/170 217/206/170
f 234/224/171 219/207/171 218/223/171
f 235/225/79 220/226/79 219/207/79
f 236/227/172 221/209/172 220/226/172
f 221/209/173 238/228/173 222/210/173
f 222/210/174 239/229/174 223/230/174
f 223/230/175 240/231/175 224/212/175
f 224/212/176 241/232/176 225/213/176
f 241/232/177 226/214/177 225/213/177
f 226/214/178 243/233/178 227/215/178
f 227/215/179 244/234/179 228/217/179
f 228/217/180 245/235/180 229/218/180
f 229/218/181 246/236/181 230/219/181
f 246/236/7 231/220/7 230/219/7
f 231/220/7 248/39/7 232/37/7
f 61/237/182 233/222/182 62/221/182
f 249/238/183 234/224/183 233/222/183
f 250/239/184 235/225/184 234/224/184
f 251/240/79 236/227/79 235/225/79
f 236/227/185 253/241/185 237/242/185
f 237/242/186 254/243/186 238/228/186
f 238/228/187 255/244/187 239/229/187
f 239/229/188 256/245/188 240/231/188
f 256/245/189 241/232/189 240/231/189
f 241/232/190 258/246/190 242/247/190
f 242/247/191 259/248/191 243/233/191
f 259/248/192 244/234/192 243/233/192
f 260/249/193 245/235/193 244/234/193
f 261/250/194 246/236/194 245/235/194
f 262/251/195 247/252/195 246/236/195
f 263/253/195 248/39/195 247/252/195
f 60/254/196 249/238/196 61/237/196
f 265/255/197 250/239/197 249/238/197
f 266/256/198 251/240/198 250/239/198
f 267/257/199 252/258/199 251/240/199
f 268/259/200 253/241/200 252/258/200
f 253/241/201 270/260/201 254/243/201
f 254/243/202 271/261/202 255/244/202
f 255/244/203 272/262/203 256/245/203
f 256/245/204 273/263/204 257/264/204
f 273/263/205 258/246/205 257/264/205
f 274/265/206 259/248/206 258/246/206
f 275/266/207 260/249/207 259/248/207
f 260/249/208 277/267/208 261/250/208
f 277/267/209 262/251/209 261/250/209
f 278/268/210 263/253/210 262/251/210
f 279/269/210 264/43/210 263/253/210
f 59/270/7 265/255/7 60/254/7
f 281/271/78 266/256/78 265/255/78
f 282/272/211 267/257/211 266/256/211
f 283/273/212 268/259/212 267/257/212
f 268/259/213 285/274/213 269/275/213
f 285/274/214 270/260/214 269/275/214
f 286/276/215 271/261/215 270/260/215
f 271/261/216 288/277/216 272/262/216
f 272/262/217 289/278/217 273/263/217
f 273/263/218 290/279/218 274/265/218
f 290/279/219 275/266/219 274/265/219
f 275/266/220 292/280/220 276/281/220
f 292/280/221 277/267/221 276/281/221
f 293/282/222 278/268/222 277/267/222
f 294/283/223 279/269/223 278/268/223
f 279/269/7 296/47/7 280/45/7
f 58/284/7 281/271/7 59/270/7
f 297/285/78 282/272/78 281/271/78
f 298/286/224 283/273/224 282/272/224
f 299/287/225 284/288/225 283/273/225
f 284/288/226 301/289/226 285/274/226
f 301/289/227 286/276/227 285/274/227
f 302/290/170 287/291/170 286/276/170
f 287/291/228 304/292/228 288/277/228
f 288/277/229 305/293/229 289/278/229
f 289/278/230 306/294/230 290/279/230
f 290/279/231 307/295/231 291/296/231
f 291/296/232 308/297/232 292/280/232
f 292/280/233 309/298/233 293/282/233
f 293/282/234 310/299/234 294/283/234
f 310/299/7 295/300/7 294/283/7
f 311/301/235 296/47/235 295/300/235
f 58/284/236 313/302/236 297/285/236
f 313/302/237 298/286/237 297/285/237
f 314/303/238 299/287/238 298/286/238
f 315/304/239 300/305/239 299/287/239
f 300/305/240 317/306/240 301/289/240
f 301/289/241 318/307/241 302/290/241
f 318/307/242 303/308/242 302/290/242
f 319/309/243 304/292/243 303/308/243
f 320/310/244 305/293/244 304/292/244
f 305/293/245 322/311/245 306/294/245
f 306/294/246 323/312/246 307/295/246
f 307/295/247 324/313/247 308/297/247
f 308/297/248 325/314/248 309/298/248
f 309/298/249 326/315/249 310/299/249
f 310/299/250 327/316/250 311/301/250
f 311/301/251 328/3/251 312/49/251
f 57/317/252 56/318/252 313/302/252
f 56/318/253 314/303/253 313/302/253
f 55/319/254 315/304/254 314/303/254
f 315/304/255 53/320/255 316/321/255
f 316/321/256 52/322/256 317/306/256
f 317/306/257 51/323/257 318/307/257
f 51/323/258 319/309/258 318/307/258
f 50/324/259 320/310/259 319/309/259
f 320/310/260 48/325/260 321/326/260
f 321/326/261 47/327/261 322/311/261
f 322/311/261 46/328/261 323/312/261
f 46/328/262 324/313/262 323/312/262
f 324/313/263 44/329/263 325/314/263
f 325/314/264 43/330/264 326/315/264
f 326/315/264 42/331/264 327/316/264
f 327/316/264 41/1/264 328/3/264
f 41/1/265 7/332/265 24/2/265
f 8/333/266 4/11/266 3/19/266
f 8/333/267 3/19/267 9/334/267
f 24/335/268 7/336/268 8/333/268
f 22/337/269 23/338/269 24/335/269
f 19/339/270 20/340/270 21/6/270
f 21/6/269 22/337/269 24/335/269
f 24/335/271 8/333/271 9/334/271
f 10/341/272 11/342/272 12/343/272
f 24/335/273 9/334/273 10/341/273
f 18/344/270 19/339/270 21/6/270
f 21/6/274 24/335/274 10/341/274
f 10/341/275 12/343/275 13/345/275
f 14/4/276 15/346/276 16/347/276
f 21/6/277 10/341/277 13/345/277
f 14/4/276 16/347/276 17/5/276
f 21/6/278 13/345/278 14/4/278
f 17/5/270 18/344/270 21/6/270
f 6/9/279 8/348/279 7/349/279
f 6/9/280 7/349/280 41/350/280
f 56/351/281 5/352/281 6/9/281
f 54/353/282 55/354/282 56/351/282
f 53/355/283 54/353/283 56/351/283
f 6/9/284 41/350/284 42/356/284
f 6/9/284 42/356/284 43/357/284
f 53/355/285 56/351/285 6/9/285
f 50/8/286 51/358/286 52/359/286
f 52/359/287 53/355/287 6/9/287
f 6/9/284 43/357/284 44/360/284
f 44/360/7 45/361/7 46/362/7
f 46/362/7 47/363/7 48/364/7
f 46/362/288 48/364/288 49/7/288
f 6/9/284 44/360/284 46/362/284
f 50/8/289 52/359/289 6/9/289
f 6/9/290 46/362/290 49/7/290
f 6/10/291 2/17/291 4/11/291
f 4/11/292 2/17/292 1/52/292
f 1/52/293 25/51/293 26/54/293
f 26/54/294 27/56/294 28/58/294
f 1/52/295 26/54/295 28/58/295
f 40/20/296 3/19/296 4/11/296
f 37/72/297 38/74/297 39/76/297
f 39/76/298 40/20/298 4/11/298
f 4/11/299 1/52/299 28/58/299
f 4/11/300 28/58/300 29/60/300
f 37/72/301 39/76/301 4/11/301
f 36/70/302 37/72/302 4/11/302
f 4/11/303 29/60/303 30/61/303
f 31/63/304 32/65/304 33/13/304
f 4/11/303 30/61/303 31/63/303
f 35/68/305 36/70/305 4/11/305
f 34/14/306 35/68/306 4/11/306
f 4/11/307 31/63/307 33/13/307
f 2/17/308 6/9/308 5/352/308
f 57/365/309 58/366/309 59/367/309
f 2/17/310 5/352/310 57/365/310
f 72/368/311 1/52/311 2/17/311
f 71/369/312 72/368/312 2/17/312
f 2/17/313 57/365/313 59/367/313
f 60/370/314 61/371/314 62/372/314
f 2/17/315 59/367/315 60/370/315
f 70/373/316 71/369/316 2/17/316
f 68/374/317 69/375/317 70/373/317
f 67/376/318 68/374/318 70/373/318
f 2/17/319 60/370/319 62/372/319
f 62/372/320 63/377/320 64/378/320
f 2/17/321 62/372/321 64/378/321
f 67/376/322 70/373/322 2/17/322
f 66/16/323 67/376/323 2/17/323
f 2/17/324 64/378/324 65/15/324
f 88/18/7 9/22/7 3/19/7
f 88/18/8 104/24/8 10/21/8
f 120/23/9 11/26/9 10/21/9
f 136/25/10 12/28/10 11/26/10
f 152/27/7 13/30/7 12/28/7
f 152/27/325 168/31/325 14/29/325
f 168/31/326 184/33/326 15/32/326
f 184/33/13 200/36/13 16/34/13
f 216/35/327 17/38/327 16/34/327
f 232/37/7 18/40/7 17/38/7
f 248/39/7 19/42/7 18/40/7
f 248/39/328 264/43/328 20/41/328
f 264/43/329 280/45/329 21/44/329
f 280/45/18 296/47/18 22/46/18
f 296/47/18 312/49/18 23/48/18
f 312/49/330 328/3/330 24/2/330
f 72/50/7 73/78/7 25/51/7
f 25/51/331 73/78/331 74/53/331
f 26/54/21 74/53/21 75/55/21
f 27/56/332 75/55/332 76/57/332
f 28/58/333 76/57/333 77/59/333
f 77/59/24 78/83/24 30/61/24
f 30/61/334 78/83/334 79/62/334
f 31/63/335 79/62/335 80/64/335
f 32/65/26 80/64/26 81/66/26
f 33/13/27 81/66/27 82/67/27
f 82/67/7 83/69/7 35/68/7
f 83/69/28 84/71/28 36/70/28
f 84/71/29 85/73/29 37/72/29
f 85/73/7 86/90/7 38/74/7
f 38/74/30 86/90/30 87/75/30
f 39/76/31 87/75/31 88/18/31
f 72/50/32 71/92/32 89/77/32
f 73/78/336 89/77/336 90/79/336
f 90/79/337 91/80/337 75/55/337
f 91/80/338 92/81/338 76/57/338
f 92/81/339 93/82/339 77/59/339
f 93/82/37 94/98/37 78/83/37
f 78/83/340 94/98/340 95/84/340
f 79/62/341 95/84/341 96/85/341
f 80/64/342 96/85/342 97/86/342
f 97/86/343 98/103/343 82/67/343
f 82/67/42 98/103/42 99/87/42
f 83/69/344 99/87/344 100/88/344
f 100/88/345 101/89/345 85/73/345
f 101/89/45 102/107/45 86/90/45
f 86/90/346 102/107/346 103/91/346
f 87/75/347 103/91/347 104/24/347
f 71/92/348 70/109/348 105/93/348
f 89/77/349 105/93/349 106/94/349
f 90/79/350 106/94/350 107/95/350
f 107/95/351 108/96/351 92/81/351
f 108/96/352 109/97/352 93/82/352
f 109/97/7 110/99/7 94/98/7
f 110/99/53 111/100/53 95/84/53
f 111/100/353 112/101/353 96/85/353
f 112/101/354 113/102/354 97/86/354
f 113/102/355 114/104/355 98/103/355
f 114/104/57 115/119/57 99/87/57
f 99/87/356 115/119/356 116/105/356
f 116/105/357 117/106/357 101/89/357
f 117/106/60 118/122/60 102/107/60
f 102/107/358 118/122/358 119/108/358
f 103/91/359 119/108/359 120/23/359
f 70/109/360 69/125/360 121/110/360
f 105/93/361 121/110/361 122/111/361
f 122/111/362 123/128/362 107/95/362
f 107/95/363 123/128/363 124/112/363
f 108/96/364 124/112/364 125/113/364
f 109/97/68 125/113/68 126/114/68
f 110/99/365 126/114/365 127/115/365
f 127/115/366 128/116/366 112/101/366
f 128/116/367 129/117/367 113/102/367
f 129/117/368 130/135/368 114/104/368
f 114/104/369 130/135/369 131/118/369
f 115/119/370 131/118/370 132/120/370
f 116/105/371 132/120/371 133/121/371
f 133/121/7 134/139/7 118/122/7
f 118/122/372 134/139/372 135/123/372
f 135/123/373 136/25/373 120/23/373
f 68/124/7 137/126/7 121/110/7
f 137/126/78 138/127/78 122/111/78
f 138/127/374 139/129/374 123/128/374
f 139/129/375 140/144/375 124/112/375
f 124/112/376 140/144/376 141/130/376
f 125/113/377 141/130/377 142/131/377
f 142/131/378 143/132/378 127/115/378
f 143/132/379 144/148/379 128/116/379
f 128/116/380 144/148/380 145/133/380
f 129/117/381 145/133/381 146/134/381
f 146/134/382 147/136/382 131/118/382
f 147/136/383 148/152/383 132/120/383
f 132/120/384 148/152/384 149/137/384
f 133/121/90 149/137/90 150/138/90
f 150/138/385 151/140/385 135/123/385
f 151/140/386 152/27/386 136/25/386
f 68/124/93 67/156/93 153/141/93
f 137/126/387 153/141/387 154/142/387
f 154/142/388 155/143/388 139/129/388
f 155/143/389 156/160/389 140/144/389
f 140/144/390 156/160/390 157/145/390
f 141/130/391 157/145/391 158/146/391
f 142/131/392 158/146/392 159/147/392
f 159/147/393 160/165/393 144/148/393
f 144/148/394 160/165/394 161/149/394
f 145/133/395 161/149/395 162/150/395
f 162/150/396 163/151/396 147/136/396
f 163/151/397 164/169/397 148/152/397
f 148/152/398 164/169/398 165/153/398
f 149/137/399 165/153/399 166/154/399
f 150/138/106 166/154/106 167/155/106
f 151/140/400 167/155/400 168/31/400
f 67/156/109 66/174/109 169/157/109
f 153/141/401 169/157/401 170/158/401
f 170/158/402 171/159/402 155/143/402
f 171/159/403 172/161/403 156/160/403
f 172/161/7 173/162/7 157/145/7
f 173/162/113 174/163/113 158/146/113
f 174/163/404 175/164/404 159/147/404
f 175/164/405 176/166/405 160/165/405
f 176/166/116 177/182/116 161/149/116
f 161/149/406 177/182/406 178/167/406
f 178/167/407 179/168/407 163/151/407
f 179/168/408 180/170/408 164/169/408
f 180/170/409 181/171/409 165/153/409
f 181/171/410 182/172/410 166/154/410
f 182/172/122 183/188/122 167/155/122
f 167/155/411 183/188/411 184/33/411
f 65/173/7 185/190/7 169/157/7
f 169/157/124 185/190/124 186/175/124
f 170/158/412 186/175/412 187/176/412
f 171/159/413 187/176/413 188/177/413
f 188/177/414 189/178/414 173/162/414
f 189/178/415 190/179/415 174/163/415
f 190/179/416 191/196/416 175/164/416
f 175/164/130 191/196/130 192/180/130
f 176/166/417 192/180/417 193/181/417
f 177/182/418 193/181/418 194/183/418
f 194/183/419 195/184/419 179/168/419
f 195/184/420 196/185/420 180/170/420
f 196/185/421 197/186/421 181/171/421
f 197/186/136 198/187/136 182/172/136
f 198/187/7 199/204/7 183/188/7
f 183/188/137 199/204/137 200/36/137
f 64/189/138 201/191/138 185/190/138
f 201/191/422 202/192/422 186/175/422
f 202/192/423 203/208/423 187/176/423
f 187/176/424 203/208/424 204/193/424
f 204/193/425 205/194/425 189/178/425
f 205/194/426 206/195/426 190/179/426
f 206/195/427 207/211/427 191/196/427
f 191/196/428 207/211/428 208/197/428
f 192/180/429 208/197/429 209/198/429
f 209/198/430 210/199/430 194/183/430
f 210/199/431 211/216/431 195/184/431
f 195/184/432 211/216/432 212/200/432
f 196/185/433 212/200/433 213/201/433
f 197/186/434 213/201/434 214/202/434
f 198/187/152 214/202/152 215/203/152
f 215/203/435 216/35/435 200/36/435
f 63/205/154 217/206/154 201/191/154
f 217/206/436 218/223/436 202/192/436
f 202/192/437 218/223/437 219/207/437
f 219/207/79 220/226/79 204/193/79
f 204/193/172 220/226/172 221/209/172
f 205/194/438 221/209/438 222/210/438
f 222/210/439 223/230/439 207/211/439
f 207/211/440 223/230/440 224/212/440
f 208/197/441 224/212/441 225/213/441
f 209/198/442 225/213/442 226/214/442
f 210/199/443 226/214/443 227/215/443
f 211/216/444 227/215/444 228/217/444
f 212/200/445 228/217/445 229/218/445
f 213/201/446 229/218/446 230/219/446
f 214/202/168 230/219/168 231/220/168
f 231/220/447 232/37/447 216/35/447
f 62/221/7 233/222/7 217/206/7
f 233/222/170 234/224/170 218/223/170
f 234/224/171 235/225/171 219/207/171
f 235/225/79 236/227/79 220/226/79
f 236/227/172 237/242/172 221/209/172
f 221/209/448 237/242/448 238/228/448
f 222/210/449 238/228/449 239/229/449
f 223/230/450 239/229/450 240/231/450
f 224/212/451 240/231/451 241/232/451
f 241/232/452 242/247/452 226/214/452
f 226/214/453 242/247/453 243/233/453
f 227/215/454 243/233/454 244/234/454
f 228/217/455 244/234/455 245/235/455
f 229/218/456 245/235/456 246/236/456
f 246/236/7 247/252/7 231/220/7
f 231/220/7 247/252/7 248/39/7
f 61/237/182 249/238/182 233/222/182
f 249/238/457 250/239/457 234/224/457
f 250/239/458 251/240/458 235/225/458
f 251/240/79 252/258/79 236/227/79
f 236/227/459 252/258/459 253/241/459
f 237/242/460 253/241/460 254/243/460
f 238/228/186 254/243/186 255/244/186
f 239/229/461 255/244/461 256/245/461
f 256/245/462 257/264/462 241/232/462
f 241/232/463 257/264/463 258/246/463
f 242/247/464 258/246/464 259/248/464
f 259/248/465 260/249/465 244/234/465
f 260/249/466 261/250/466 245/235/466
f 261/250/467 262/251/467 246/236/467
f 262/251/195 263/253/195 247/252/195
f 263/253/195 264/43/195 248/39/195
f 60/254/196 265/255/196 249/238/196
f 265/255/468 266/256/468 250/239/468
f 266/256/469 267/257/469 251/240/469
f 267/257/470 268/259/470 252/258/470
f 268/259/471 269/275/471 253/241/471
f 253/241/472 269/275/472 270/260/472
f 254/243/473 270/260/473 271/261/473
f 255/244/474 271/261/474 272/262/474
f 256/245/475 272/262/475 273/263/475
f 273/263/476 274/265/476 258/246/476
f 274/265/477 275/266/477 259/248/477
f 275/266/478 276/281/478 260/249/478
f 260/249/479 276/281/479 277/267/479
f 277/267/480 278/268/480 262/251/480
f 278/268/210 279/269/210 263/253/210
f 279/269/210 280/45/210 264/43/210
f 59/270/7 281/271/7 265/255/7
f 281/271/78 282/272/78 266/256/78
f 282/272/481 283/273/481 267/257/481
f 283/273/482 284/288/482 268/259/482
f 268/259/483 284/288/483 285/274/483
f 285/274/484 286/276/484 270/260/484
f 286/276/485 287/291/485 271/261/485
f 271/261/486 287/291/486 288/277/486
f 272/262/487 288/277/487 289/278/487
f 273/263/488 289/278/488 290/279/488
f 290/279/489 291/296/489 275/266/489
f 275/266/490 291/296/490 292/280/490
f 292/280/491 293/282/491 277/267/491
f 293/282/492 294/283/492 278/268/492
f 294/283/223 295/300/223 279/269/223
f 279/269/493 295/300/493 296/47/493
f 58/284/7 297/285/7 281/271/7
f 297/285/78 298/286/78 282/272/78
f 298/286/224 299/287/224 283/273/224
f 299/287/225 300/305/225 284/288/225
f 284/288/226 300/305/226 301/289/226
f 301/289/227 302/290/227 286/276/227
f 302/290/170 303/308/170 287/291/170
f 287/291/494 303/308/494 304/292/494
f 288/277/495 304/292/495 305/293/495
f 289/278/496 305/293/496 306/294/496
f 290/279/497 306/294/497 307/295/497
f 291/296/498 307/295/498 308/297/498
f 292/280/499 308/297/499 309/298/499
f 293/282/500 309/298/500 310/299/500
f 310/299/7 311/301/7 295/300/7
f 311/301/235 312/49/235 296/47/235
f 58/284/236 57/317/236 313/302/236
f 313/302/237 314/303/237 298/286/237
f 314/303/501 315/304/501 299/287/501
f 315/304/502 316/321/502 300/305/502
f 300/305/503 316/321/503 317/306/503
f 301/289/504 317/306/504 318/307/504
f 318/307/505 319/309/505 303/308/505
f 319/309/506 320/310/506 304/292/506
f 320/310/507 321/326/507 305/293/507
f 305/293/508 321/326/508 322/311/508
f 306/294/509 322/311/509 323/312/509
f 307/295/510 323/312/510 324/313/510
f 308/297/511 324/313/511 325/314/511
f 309/298/512 325/314/512 326/315/512
f 310/299/250 326/315/250 327/316/250
f 311/301/250 327/316/250 328/3/250
f 57/317/252 5/379/252 56/318/252
f 56/318/253 55/319/253 314/303/253
f 55/319/513 54/380/513 315/304/513
f 315/304/514 54/380/514 53/320/514
f 316/321/515 53/320/515 52/322/515
f 317/306/516 52/322/516 51/323/516
f 51/323/517 50/324/517 319/309/517
f 50/324/518 49/381/518 320/310/518
f 320/310/519 49/381/519 48/325/519
f 321/326/261 48/325/261 47/327/261
f 322/311/261 47/327/261 46/328/261
f 46/328/520 45/382/520 324/313/520
f 324/313/520 45/382/520 44/329/520
f 325/314/264 44/329/264 43/330/264
f 326/315/264 43/330/264 42/331/264
f 327/316/264 42/331/264 41/1/264
