# Blender 5.1.2
# www.blender.org
mtllib stage01.mtl
o 立方体.001
v -8150.000000 -50000.000000 8150.000000
v -8150.000000 50000.000000 8150.000000
v -8150.000000 -50000.000000 -8150.000000
v -8150.000000 50000.000000 -8150.000000
v 8150.000000 -50000.000000 8150.000000
v 8150.000000 50000.000000 8150.000000
v 8150.000000 -50000.000000 -8150.000000
v 8150.000000 50000.000000 -8150.000000
vn -1.0000 -0.0000 -0.0000
vn -0.0000 -0.0000 -1.0000
vn 1.0000 -0.0000 -0.0000
vn -0.0000 -0.0000 1.0000
vn -0.0000 -1.0000 -0.0000
vn -0.0000 1.0000 -0.0000
vt 0.625000 0.000000
vt 0.375000 0.250000
vt 0.375000 0.000000
vt 0.625000 0.250000
vt 0.375000 0.500000
vt 0.625000 0.500000
vt 0.375000 0.750000
vt 0.625000 0.750000
vt 0.375000 1.000000
vt 0.125000 0.750000
vt 0.125000 0.500000
vt 0.875000 0.500000
vt 0.625000 1.000000
vt 0.875000 0.750000
s 0
f 2/1/1 3/2/1 1/3/1
f 4/4/2 7/5/2 3/2/2
f 8/6/3 5/7/3 7/5/3
f 6/8/4 1/9/4 5/7/4
f 7/5/5 1/10/5 3/11/5
f 4/12/6 6/8/6 8/6/6
f 2/1/1 4/4/1 3/2/1
f 4/4/2 8/6/2 7/5/2
f 8/6/3 6/8/3 5/7/3
f 6/8/4 2/13/4 1/9/4
f 7/5/5 5/7/5 1/10/5
f 4/12/6 2/14/6 6/8/6
o 立方体
v -350.000000 0.000000 100.000000
v -350.000000 250.000000 100.000000
v -350.000000 0.000000 -200.000000
v -350.000000 250.000000 -200.000000
v 250.000000 0.000000 100.000000
v 250.000000 250.000000 100.000000
v 250.000000 0.000000 -200.000000
v 250.000000 250.000000 -200.000000
v 180.000000 0.000000 -200.000000
v 180.000000 250.000000 -200.000000
v 180.000000 0.000000 100.000000
v 180.000000 250.000000 100.000000
v 80.000000 0.000000 -200.000000
v 80.000000 250.000000 100.000000
v 80.000000 250.000000 -200.000000
v 80.000000 0.000000 100.000000
v -350.000000 200.000000 100.000000
v -350.000000 200.000000 -200.000000
v 250.000000 200.000000 -200.000000
v 250.000000 200.000000 100.000000
v 180.000000 200.000000 100.000000
v 180.000000 200.000000 -200.000000
v 80.000000 200.000000 -200.000000
v 80.000000 200.000000 100.000000
v -100.000000 -250.000000 900.000000
v -100.000000 250.000000 900.000000
v -100.000000 -250.000000 110.000015
v -100.000000 250.000000 110.000015
v 500.000000 -250.000000 900.000000
v 500.000000 250.000000 900.000000
v 500.000000 -250.000000 110.000015
v 500.000000 250.000000 110.000015
v -100.000000 0.000000 900.000000
v -100.000000 0.000000 110.000015
v 500.000000 0.000000 110.000015
v 500.000000 0.000000 900.000000
v -100.000000 200.000000 900.000000
v -100.000000 200.000000 110.000015
v 500.000000 200.000000 110.000015
v 500.000000 200.000000 900.000000
v -100.000000 0.000000 110.000015
v 500.000000 0.000000 110.000015
v 500.000000 0.000000 900.000000
v -100.000000 0.000000 900.000000
v 180.000000 -250.000000 110.000015
v 180.000000 250.000000 110.000015
v 180.000000 -250.000000 900.000000
v 180.000000 250.000000 900.000000
v 180.000000 0.000000 900.000000
v 180.000000 0.000000 110.000015
v 180.000000 200.000000 900.000000
v 180.000000 200.000000 110.000015
v 180.000000 0.000000 110.000015
v 180.000000 0.000000 900.000000
v 79.999992 -250.000000 110.000015
v 79.999992 250.000000 900.000000
v 79.999992 0.000000 110.000015
v 79.999992 200.000000 110.000015
v 79.999992 0.000000 110.000015
v 80.000000 250.000000 110.000015
v 80.000000 -250.000000 900.000000
v 80.000000 0.000000 900.000000
v 80.000000 200.000000 900.000000
v 80.000000 0.000000 900.000000
v -100.000000 -250.000000 790.000000
v -100.000000 250.000000 790.000000
v 500.000000 -250.000000 790.000000
v 500.000000 250.000000 790.000000
v 500.000000 0.000000 790.000000
v -100.000000 0.000000 790.000000
v 500.000000 200.000000 790.000000
v -100.000000 200.000000 790.000000
v -100.000000 0.000000 790.000000
v 500.000000 0.000000 790.000000
v 180.000000 250.000000 790.000000
v 180.000000 -250.000000 790.000000
v 80.000000 -250.000000 790.000000
v 79.999992 250.000000 790.000000
v -100.000000 -49.999989 110.000015
v 500.000000 -49.999989 110.000015
v 500.000000 -49.999989 900.000000
v -100.000000 -49.999989 900.000000
v 180.000000 -49.999989 110.000015
v 180.000000 -49.999989 900.000000
v 79.999992 -49.999989 110.000015
v 80.000000 -49.999989 900.000000
v -100.000000 -49.999989 790.000000
v 500.000000 -49.999989 790.000000
v -100.000000 -250.000000 890.000061
v 500.000000 250.000000 890.000061
v -100.000000 0.000000 890.000061
v -100.000000 200.000000 890.000061
v -100.000000 0.000000 890.000061
v -100.000000 250.000000 890.000061
v 500.000000 -250.000000 890.000061
v 500.000000 0.000000 890.000061
v 500.000000 200.000000 890.000061
v 500.000000 0.000000 890.000061
v 180.000000 250.000000 890.000061
v 180.000000 -250.000000 890.000061
v 80.000000 -250.000000 890.000061
v 79.999992 250.000000 890.000061
v -100.000000 -49.999989 890.000061
v 500.000000 -49.999989 890.000061
v -800.000122 -500.000000 900.000000
v -800.000122 -50.000000 900.000000
v -800.000122 -500.000000 630.000000
v -800.000122 -50.000000 630.000000
v -110.000000 -500.000000 900.000000
v -110.000000 -50.000000 900.000000
v -110.000000 -500.000000 630.000000
v -110.000000 -50.000000 630.000000
v -800.000122 -500.000000 890.000061
v -800.000122 -50.000000 890.000061
v -110.000000 -500.000000 890.000061
v -110.000000 -50.000000 890.000061
v -800.000122 -50.000000 790.000000
v -110.000000 -500.000000 790.000000
v -800.000122 -500.000000 790.000000
v -110.000000 -50.000000 790.000000
v -800.000122 -250.000000 900.000000
v -800.000122 -250.000000 630.000000
v -110.000000 -250.000000 630.000000
v -110.000000 -250.000000 900.000000
v -110.000000 -250.000000 890.000061
v -800.000122 -250.000000 890.000061
v -110.000000 -250.000000 790.000000
v -800.000122 -250.000000 790.000000
v -800.000122 -50.000000 900.000000
v -110.000000 -50.000000 890.000061
v -800.000122 -50.000000 890.000061
v -110.000000 -50.000000 790.000000
v -800.000122 -50.000000 790.000000
v -800.000122 -50.000000 630.000000
v -110.000000 -50.000000 630.000000
v -110.000000 -50.000000 900.000000
v -800.000122 -260.000000 630.000000
v -110.000000 -260.000000 630.000000
v -110.000000 -260.000000 900.000000
v -800.000122 -260.000000 900.000000
v -110.000000 -260.000000 890.000061
v -800.000122 -260.000000 890.000061
v -110.000000 -260.000000 790.000000
v -800.000122 -260.000000 790.000000
v -699.999939 -259.999969 890.000061
v -699.999939 -250.000031 890.000061
v -699.999939 -259.999969 790.000000
v -699.999939 -250.000031 790.000000
v -110.000000 -260.000000 900.000000
v -110.000000 -250.000000 900.000000
v -699.999939 -259.999969 900.000000
v -699.999939 -250.000031 900.000000
v 80.000008 -260.000000 630.000000
v 80.000008 -500.000000 630.000000
v 80.000008 -500.000000 790.000000
v 80.000008 -260.000000 900.000000
v 80.000008 -500.000000 900.000000
v 80.000008 -500.000000 890.000061
v 80.000008 -260.000000 890.000061
v 80.000008 -260.000000 790.000000
v 500.000000 -260.000000 630.000000
v 500.000000 -500.000000 630.000000
v 500.000000 -500.000000 790.000000
v 500.000000 -260.000000 900.000000
v 500.000000 -500.000000 900.000000
v 500.000000 -500.000000 890.000061
v 500.000000 -260.000000 890.000061
v 500.000000 -260.000000 790.000000
v 80.000008 -260.000000 100.000000
v 80.000008 -500.000000 100.000000
v 500.000000 -260.000000 100.000000
v 500.000000 -500.000000 100.000000
v -800.000000 -259.999969 790.000000
v -800.000000 -250.000031 790.000000
v -800.000000 -250.000031 890.000061
v -800.000000 -259.999969 890.000061
v -800.000000 -259.999969 900.000000
v -800.000000 -250.000031 900.000000
v -699.999939 -259.999969 730.000000
v -699.999939 -250.000031 730.000000
v -800.000000 -259.999969 730.000000
v -800.000000 -250.000031 730.000000
v -699.999939 -259.999969 630.000000
v -699.999939 -250.000031 630.000000
v -800.000000 -259.999969 630.000000
v -800.000000 -250.000031 630.000000
v -110.000000 -260.000000 730.000000
v -110.000000 -250.000000 730.000000
v -699.999939 -259.999969 730.000000
v -699.999939 -250.000031 730.000000
v -110.000000 -514.999939 730.000000
v -110.000000 -505.000031 730.000000
v -110.000000 -514.999939 630.000000
v -110.000000 -505.000031 630.000000
v 520.000000 0.000000 900.000000
v 520.000000 250.000000 900.000000
v 520.000000 0.000000 780.000000
v 520.000000 250.000000 780.000000
v 1139.999878 0.000000 900.000000
v 1139.999878 250.000000 900.000000
v 1139.999878 0.000000 780.000000
v 1139.999878 250.000000 780.000000
v 520.000000 0.000000 790.000061
v 520.000000 250.000000 790.000061
v 1139.999878 0.000000 790.000061
v 1139.999878 250.000000 790.000061
v 520.000000 0.000000 890.000061
v 1139.999878 250.000000 890.000061
v 520.000000 250.000000 890.000061
v 1139.999878 0.000000 890.000061
v 520.000000 200.000000 900.000000
v 520.000000 200.000000 780.000000
v 1139.999878 200.000000 780.000000
v 1139.999878 200.000000 900.000000
v 520.000000 200.000000 790.000061
v 520.000000 200.000000 890.000061
v 800.000000 0.000000 780.000000
v 800.000000 250.000000 780.000000
v 800.000000 0.000000 900.000000
v 800.000000 250.000000 900.000000
v 800.000000 250.000000 790.000061
v 800.000000 0.000000 790.000061
v 800.000000 250.000000 890.000061
v 800.000000 0.000000 890.000061
v 800.000000 200.000000 900.000000
v 800.000000 200.000000 780.000000
v 700.000000 0.000000 780.000000
v 700.000000 250.000000 900.000000
v 700.000000 250.000000 790.000061
v 700.000000 250.000000 890.000061
v 700.000000 200.000000 780.000000
v 700.000000 250.000000 780.000000
v 700.000000 0.000000 900.000000
v 700.000000 0.000000 790.000061
v 700.000000 0.000000 890.000061
v 700.000000 200.000000 900.000000
v 520.000000 0.000000 770.000000
v 520.000000 250.000000 770.000000
v 520.000000 0.000000 109.999992
v 520.000000 250.000000 109.999992
v 1000.000000 0.000000 770.000000
v 1000.000000 250.000000 770.000000
v 1000.000000 0.000000 109.999992
v 1000.000000 250.000000 109.999992
v 800.000000 0.000000 109.999992
v 800.000000 250.000000 109.999992
v 800.000000 0.000000 770.000000
v 800.000000 250.000000 770.000000
v 700.000000 0.000000 109.999992
v 700.000000 250.000000 770.000000
v 700.000000 250.000000 109.999992
v 700.000000 0.000000 770.000000
v 520.000000 200.000000 770.000000
v 520.000000 200.000000 109.999992
v 1000.000000 200.000000 109.999992
v 1000.000000 200.000000 770.000000
v 800.000000 200.000000 770.000000
v 800.000000 200.000000 109.999992
v 700.000000 200.000000 109.999992
v 700.000000 200.000000 770.000000
v 1260.179321 200.000000 780.000000
v 1260.179321 0.000000 780.000000
v 1260.179321 0.000000 790.000061
v 1260.179321 250.000000 890.000061
v 1260.179321 250.000000 900.000000
v 1260.179321 200.000000 900.000000
v 1260.179321 0.000000 900.000000
v 1260.179321 0.000000 890.000061
v 1260.179321 250.000000 780.000000
v 1260.179321 250.000000 790.000061
v 1260.179321 200.000000 790.000061
v 1260.179321 200.000000 890.000061
v 1139.999878 200.000000 109.999992
v 1139.999878 0.000000 109.999992
v 1260.179321 0.000000 109.999992
v 1139.999878 250.000000 109.999992
v 1260.179321 250.000000 109.999992
v 1260.179321 200.000000 109.999992
v 1020.000061 250.000000 780.000000
v 1020.000061 0.000000 900.000000
v 1020.000061 0.000000 790.000061
v 1020.000061 0.000000 890.000061
v 1020.000061 200.000000 900.000000
v 1020.000061 0.000000 780.000000
v 1020.000061 250.000000 900.000000
v 1020.000061 250.000000 790.000061
v 1020.000061 250.000000 890.000061
v 1020.000061 200.000000 780.000000
v 1120.000000 250.000000 780.000000
v 1120.000000 0.000000 900.000000
v 1120.000000 0.000000 790.000061
v 1120.000000 0.000000 890.000061
v 1120.000000 200.000000 900.000000
v 1120.000000 0.000000 780.000000
v 1120.000000 250.000000 900.000000
v 1120.000000 250.000000 790.000061
v 1120.000000 250.000000 890.000061
v 1120.000000 200.000000 780.000000
v 1010.000061 0.000000 770.000000
v 1010.000061 250.000000 770.000000
v 1010.000061 0.000000 109.999992
v 1010.000061 250.000000 109.999992
v 1130.000000 0.000000 770.000000
v 1130.000000 250.000000 770.000000
v 1130.000000 0.000000 109.999992
v 1130.000000 250.000000 109.999992
v 1120.000000 0.000000 109.999992
v 1120.000000 250.000000 109.999992
v 1120.000000 0.000000 770.000000
v 1120.000000 250.000000 770.000000
v 1020.000061 0.000000 109.999992
v 1020.000061 250.000000 770.000000
v 1020.000061 250.000000 109.999992
v 1020.000061 0.000000 770.000000
v 1010.000061 200.000031 770.000000
v 1010.000061 200.000031 109.999992
v 1130.000000 200.000031 109.999992
v 1130.000000 200.000031 770.000000
v 1120.000000 200.000031 770.000000
v 1120.000000 200.000031 109.999992
v 1020.000061 200.000031 109.999992
v 1020.000061 200.000031 770.000000
v 1250.226929 0.000000 780.000000
v 1250.226929 0.000000 900.000000
v 1250.226929 200.000000 900.000000
v 1250.226929 250.000000 790.000061
v 1250.226929 250.000000 780.000000
v 1250.226929 250.000000 900.000000
v 1250.226929 250.000000 890.000061
v 1250.226929 0.000000 890.000061
v 1250.226929 0.000000 790.000061
v 1250.226929 0.000000 109.999992
v 1250.226929 250.000000 109.999992
v 1250.226929 200.000000 109.999992
v 1149.958374 0.000000 900.000000
v 1149.958374 250.000000 790.000061
v 1149.958374 250.000000 900.000000
v 1149.958374 0.000000 890.000061
v 1149.958374 200.000000 109.999992
v 1149.958374 0.000000 780.000000
v 1149.958374 200.000000 900.000000
v 1149.958374 250.000000 780.000000
v 1149.958374 250.000000 890.000061
v 1149.958374 0.000000 790.000061
v 1149.958374 0.000000 109.999992
v 1149.958374 250.000000 109.999992
v 260.006073 0.000000 100.000000
v 260.006073 250.000000 100.000000
v 260.006073 0.000000 -500.000000
v 260.006073 250.000000 -500.000000
v 1260.020874 0.000000 100.000000
v 1260.020874 250.000000 100.000000
v 1260.020874 0.000000 -500.000000
v 1260.020874 250.000000 -500.000000
v 1249.981079 0.000000 -500.000000
v 1249.981079 250.000000 -500.000000
v 1249.981079 0.000000 100.000000
v 1249.981079 250.000000 100.000000
v 1149.994995 0.000000 -500.000000
v 1149.994995 250.000000 100.000000
v 1149.994995 250.000000 -500.000000
v 1149.994995 0.000000 100.000000
v 260.006073 199.702194 100.000000
v 260.006073 199.702194 -500.000000
v 1260.020874 199.702194 -500.000000
v 1260.020874 199.702194 100.000000
v 1249.981079 199.702194 100.000000
v 1249.981079 199.702194 -500.000000
v 1149.994995 199.702194 -500.000000
v 1149.994995 199.702194 100.000000
v 400.000000 0.000000 -500.000000
v 400.020538 250.000000 100.000000
v 400.020599 250.000000 -500.000000
v 400.020599 0.000000 100.000000
v 400.020538 199.702194 -500.000000
v 400.020599 199.702194 100.000000
v 260.006073 0.000000 -399.513428
v 260.006073 250.000000 -399.513428
v 1260.020874 0.000000 -399.513428
v 1260.020874 250.000000 -399.513428
v 1249.981079 250.000000 -399.513428
v 1249.981079 0.000000 -399.513428
v 1149.994995 0.000000 -399.513428
v 1149.994995 250.000000 -399.513428
v 1260.020874 199.702194 -399.513428
v 260.006073 199.702194 -399.513428
v 400.000000 0.000000 -400.000000
v 400.020599 250.000000 -399.513428
v 900.053955 250.000000 -500.000000
v 900.053955 0.000000 100.000000
v 900.053955 199.702194 100.000000
v 900.000000 0.000000 -500.000000
v 900.053955 250.000000 100.000000
v 900.053955 199.702194 -500.000000
v 900.053955 250.000000 -399.513428
v 900.000000 0.000000 -400.000000
v 260.000122 -250.000000 -209.999985
v 260.000122 -9.999999 -211.543823
v 260.000000 -250.000000 -500.000000
v 260.000000 -9.999999 -500.000000
v 1259.851807 -250.000000 -209.999985
v 1259.851807 -9.999999 -211.985229
v 1259.851685 -250.000000 -500.000000
v 1259.851685 -9.999999 -500.000000
v 400.000000 -250.000031 -505.000031
v 400.000061 -10.000010 -500.000000
v 400.000153 -250.000031 -209.999985
v 400.000092 -10.000010 -216.985229
v 900.000000 -10.000005 -500.000000
v 899.728210 -250.000031 -209.999985
v 900.000000 -250.000031 -500.000000
v 899.728210 -10.000005 -214.485245
v 260.000000 -250.000000 -398.125000
v 260.000000 -9.999999 -398.125000
v 1259.851685 -250.000000 -398.125000
v 1259.851685 -9.999999 -398.125000
v 400.000000 -10.000010 -400.000000
v 400.000000 -250.000031 -403.125000
v 900.000000 -10.000005 -400.000000
v 899.728088 -250.000031 -400.625000
v 900.041016 -254.980499 -399.999939
v 900.041016 -254.980499 -499.999939
v 900.041016 -264.980499 -399.999939
v 900.041016 -264.980499 -499.999939
v 260.000000 -269.795410 -398.125000
v 260.000000 -269.795410 -500.000000
v 394.229675 -270.127045 -500.000000
v 400.000000 -269.795410 -400.000000
v 894.270630 -276.296753 -399.999939
v 894.270630 -276.296753 -499.999939
v 260.000000 -250.000000 -310.000000
v 1259.851685 -9.999999 -308.897552
v 260.000000 -9.999999 -308.456146
v 1259.851685 -250.000000 -308.897552
v 400.000000 -10.000010 -312.335052
v 400.000000 -250.000031 -313.897552
v 899.864014 -10.000005 -311.085052
v 899.728088 -250.000031 -311.397552
v 260.000122 -60.000004 -210.551208
v 260.000122 -59.894592 -499.062531
v 1259.851807 -59.894592 -499.062531
v 1259.851807 -59.894592 -211.985229
v 400.000092 -59.894604 -216.985229
v 400.000092 -59.894604 -501.562500
v 899.728210 -59.894604 -214.485245
v 899.864075 -59.894604 -500.312531
v 1259.851807 -59.894581 -400.110229
v 260.000122 -59.894581 -400.110229
v 260.000122 -60.000004 -310.000000
v 1259.851807 -59.894581 -310.882812
v 80.000008 -260.000000 -110.000015
v 80.000008 -500.000000 -110.000015
v 500.000000 -260.000000 -110.000015
v 500.000000 -500.000000 -110.000015
v -327.139648 -260.000000 100.000000
v -327.139648 -500.000000 100.000000
v -327.139648 -260.000000 -110.000015
v -327.139648 -500.000000 -110.000015
v -326.669220 -250.000031 -209.409515
v -326.669220 -59.999992 -209.409515
v -326.669220 -250.000031 -310.589325
v -326.669220 -59.999992 -310.589325
v 250.000000 -250.000031 -209.999985
v 250.000000 -59.999992 -209.409515
v 250.000000 -250.000031 -310.000000
v 250.000000 -59.999992 -310.000000
v -326.669220 -500.000000 -310.589325
v -326.669220 -500.000000 -209.409515
v 250.000000 -499.999939 -310.589325
v 250.000000 -499.999939 -209.409515
v 250.000000 -262.477203 -310.294647
v -326.669220 -262.477203 -310.589325
v -326.669220 -262.477203 -209.409515
v 250.000000 -262.477203 -209.704758
v -190.133743 -503.581390 -209.999985
v -190.133743 -503.581390 -310.000000
v -190.133743 -516.058533 -310.294647
v -190.133743 -516.058533 -209.704758
v -190.918381 -250.000031 -310.294647
v -190.918381 -59.999992 -310.294647
v -190.918381 -250.000031 -209.704758
v -190.918381 -59.999992 -209.409515
v -190.918381 -499.999939 -310.589325
v -190.000000 -499.999939 -209.409515
v -190.918381 -262.477203 -209.557159
v -190.918381 -262.477203 -310.441956
v -299.275970 -250.000031 -310.441956
v -299.275970 -59.999992 -209.409515
v -299.275970 -499.999939 -310.589325
v -299.275970 -262.477203 -209.483337
v -299.275970 -59.999992 -310.441956
v -299.275970 -250.000031 -209.557159
v -300.000000 -499.999939 -209.409515
v -299.275970 -262.477203 -310.515656
v 250.000000 -359.740173 -310.441956
v 250.000000 -359.740173 -209.557159
v -326.669220 -359.740173 -310.589325
v -326.669220 -359.740173 -209.409515
v -190.000000 -359.740173 -209.483337
v -190.918381 -359.740173 -310.515656
v -299.275970 -359.740173 -310.552490
v -300.000000 -359.740173 -209.446426
v -800.000122 -360.067383 630.000000
v -110.000000 -360.067383 630.000000
v -110.000000 -360.067383 900.000000
v -800.000122 -360.067383 900.000000
v -800.000122 -360.067383 890.000061
v -800.000122 -360.067383 790.000000
v 80.000008 -360.067383 630.000000
v 80.000008 -360.067383 900.000000
v 500.000000 -360.067383 630.000000
v 500.000000 -360.067383 900.000000
v 500.000000 -360.067383 890.000061
v 500.000000 -360.067383 790.000000
v 80.000008 -360.067383 100.000000
v 500.000000 -360.067383 100.000000
v 80.000008 -360.067383 -110.000015
v 500.000000 -360.067383 -110.000015
v -327.139648 -360.067383 100.000000
v -327.139648 -360.067383 -110.000015
v -198.374115 -500.000000 -110.000015
v -187.906479 -500.000000 100.000000
v -187.906479 -260.000000 100.000000
v -187.906479 -260.000000 -110.000015
v -187.906479 -360.067383 100.000000
v -190.000000 -360.067383 -110.000015
v -300.000000 -500.000000 -110.000015
v -296.786255 -260.000000 100.000000
v -296.786255 -360.067383 100.000000
v -296.786255 -360.067383 -110.000015
v -296.786255 -500.000000 100.000000
v -296.786255 -260.000000 -110.000015
v 520.000000 0.000000 403.278778
v 520.000000 250.000000 403.278778
v 1000.000000 0.000000 403.278778
v 1000.000000 250.000000 403.278778
v 800.000000 250.000000 403.278778
v 800.000000 0.000000 403.278778
v 700.000000 0.000000 403.278778
v 700.000000 250.000000 403.278778
v 1000.000000 200.000000 403.278778
v 520.000000 200.000000 403.278778
v 520.000000 250.000000 300.500732
v 1000.000000 0.000000 300.500732
v 800.000000 250.000000 300.500732
v 800.000000 0.000000 300.500732
v 700.000000 0.000000 300.500732
v 700.000000 250.000000 300.500732
v 1000.000000 200.000000 300.500732
v 520.000000 0.000000 300.500732
v 1000.000000 250.000000 300.500732
v 520.000000 200.000000 300.500732
v -100.000000 250.000000 399.950592
v 500.000000 -250.000000 399.950592
v 500.000000 0.000000 399.950592
v 500.000000 200.000000 399.950592
v 500.000000 0.000000 399.950592
v 180.000000 250.000000 399.950592
v 180.000000 -250.000000 399.950592
v 79.999992 -250.000000 399.950592
v 79.999992 250.000000 399.950592
v -100.000000 -250.000000 399.950592
v 500.000000 250.000000 399.950592
v -100.000000 0.000000 399.950592
v -100.000000 200.000000 399.950592
v -100.000000 0.000000 399.950592
v 500.000000 -49.999989 399.950592
v -100.000000 -49.999989 399.950592
v -100.000000 250.000000 299.404663
v 500.000000 -250.000000 299.404663
v 500.000000 0.000000 299.404663
v 500.000000 200.000000 299.404663
v 500.000000 0.000000 299.404663
v 180.000000 250.000000 299.404663
v 180.000000 -250.000000 299.404663
v 79.999992 -250.000000 299.404663
v 79.999992 250.000000 299.404663
v 500.000000 -49.999989 299.404663
v -100.000000 -250.000000 299.404663
v 500.000000 250.000000 299.404663
v -100.000000 0.000000 299.404663
v -100.000000 200.000000 299.404663
v -100.000000 0.000000 299.404663
v -100.000000 -49.999989 299.404663
vn 1.0000 -0.0000 -0.0000
vn -0.0000 -0.0000 1.0000
vn -1.0000 -0.0000 -0.0000
vn -0.0000 -0.0000 -1.0000
vn -0.0000 1.0000 -0.0000
vn -0.0000 -1.0000 -0.0000
vn -0.3967 -0.9179 -0.0000
vn 0.3967 0.9179 -0.0000
vn -0.9997 -0.0000 0.0246
vn -0.0000 -0.9996 0.0298
vn 1.0000 -0.0000 0.0037
vn -0.0035 -0.0063 1.0000
vn -0.0388 -0.0000 -0.9992
vn 0.0050 -0.0000 -1.0000
vn -0.0000 0.0188 0.9998
vn 0.0069 -0.0000 -1.0000
vn -0.0025 -0.0313 0.9995
vn 0.4543 0.8909 -0.0000
vn -0.0025 -1.0000 -0.0000
vn 0.0134 -0.0000 0.9999
vn 0.9981 -0.0221 -0.0575
vn -0.0132 -0.9999 -0.0000
vn 0.8909 -0.4543 -0.0000
vn -0.0025 -0.0181 0.9998
vn -0.0000 -0.0104 -0.9999
vn 0.0179 -0.0049 0.9998
vn -0.0000 -0.0236 -0.9997
vn -0.0459 -0.0367 -0.9983
vn -0.0035 0.0016 1.0000
vn -0.0007 -0.0000 1.0000
vn -0.0054 0.0008 -1.0000
vn -0.0002 -0.0005 1.0000
vn -0.0014 -0.0003 -1.0000
vn -0.0000 -0.0029 -1.0000
vn -0.0054 -0.0059 -1.0000
vn -0.0136 0.0237 0.9996
vn -0.0007 -0.0236 0.9997
vn 0.4992 -0.8665 -0.0000
vn -0.4992 0.8665 -0.0000
vn -0.0136 0.0236 -0.9996
vn -0.0014 -0.0118 0.9999
vn -0.0007 -0.0237 -0.9997
vn -0.0002 -0.0005 -1.0000
vn -0.0003 -0.0003 1.0000
vn -0.0007 0.0031 -1.0000
vn -0.0014 -0.0000 1.0000
vn -0.0054 -0.0000 1.0000
vn -0.0013 -0.0003 1.0000
vn -0.0054 -0.0059 1.0000
vn -0.0014 -0.0118 -0.9999
vn -0.0014 0.0016 -1.0000
vn -0.0007 -0.0004 -1.0000
vn -0.0027 -0.0004 1.0000
vn -0.0007 -0.0008 1.0000
vn -0.0003 -0.0008 -1.0000
vn -0.0027 -0.0004 -1.0000
vn -0.0003 -0.0015 1.0000
vn -0.0000 -1.0000 -0.0033
vn 0.9997 -0.0230 -0.0000
vn -0.0547 -0.0000 0.9985
vn 0.1642 -0.0000 -0.9864
vn 1.0000 -0.0000 0.0036
vn -0.0459 -0.0198 -0.9988
vn 0.0178 -0.0313 0.9994
vn -0.0000 -0.0063 1.0000
vn -0.0000 -1.0000 0.0033
vn -0.0123 -0.9999 0.0040
vn -0.0100 0.0016 0.9999
vn 0.0069 -0.0236 -0.9997
vn 0.0357 -0.0181 0.9992
vn 0.0050 -0.0367 -0.9993
vn -0.0000 -0.0049 1.0000
vn -0.0000 -0.0011 1.0000
vn -0.1134 0.0031 -0.9935
vn -0.0027 -0.0000 -1.0000
vn -0.0003 -0.0118 0.9999
vn -0.0007 -0.0059 1.0000
vn -0.0003 -0.0118 -0.9999
vn -0.0000 -0.0011 -1.0000
vn -0.0000 -0.0005 1.0000
vn -0.0000 0.0016 -1.0000
vn -0.0027 -0.0000 1.0000
vn -0.0007 -0.0059 -1.0000
vn -0.0000 0.0008 -1.0000
vn -0.0013 -0.0000 1.0000
vn -0.0003 -0.0004 1.0000
vn -0.0002 -0.0015 -1.0000
vn -0.0014 -0.0000 -1.0000
vn -0.0002 -0.0008 1.0000
vn -0.9947 0.0595 -0.0838
vn 0.9995 -0.0000 -0.0323
vt 0.375000 0.250000
vt 0.625000 0.000000
vt 0.375000 0.000000
vt 0.375000 0.500000
vt 0.625000 0.408333
vt 0.375000 0.408333
vt 0.375000 0.750000
vt 0.625000 0.500000
vt 0.375000 1.000000
vt 0.625000 0.892560
vt 0.375000 0.892560
vt 0.283333 0.750000
vt 0.283333 0.500000
vt 0.767560 0.750000
vt 0.875000 0.500000
vt 0.767560 0.500000
vt 0.625000 0.750000
vt 0.716667 0.500000
vt 0.232440 0.750000
vt 0.232440 0.500000
vt 0.375000 0.841667
vt 0.625000 0.357440
vt 0.375000 0.357441
vt 0.625000 0.250000
vt 0.125000 0.750000
vt 0.125000 0.500000
vt 0.716667 0.750000
vt 0.625000 0.841667
vt 0.500000 0.250000
vt 0.625000 0.197785
vt 0.500000 0.197785
vt 0.500000 0.500000
vt 0.625000 0.333333
vt 0.500000 0.333333
vt 0.500000 0.750000
vt 0.625000 0.727560
vt 0.500000 0.727560
vt 0.500000 1.000000
vt 0.625000 0.982143
vt 0.500000 0.982143
vt 0.208333 0.750000
vt 0.375000 0.727560
vt 0.208333 0.727560
vt 0.857143 0.750000
vt 0.875000 0.727560
vt 0.857143 0.727560
vt 0.445000 1.000000
vt 0.445000 0.982143
vt 0.445000 0.750000
vt 0.445000 0.727560
vt 0.445000 0.500000
vt 0.445000 0.333333
vt 0.445000 0.250000
vt 0.445000 0.197785
vt 0.500000 0.727560
vt 0.500000 0.916667
vt 0.500000 0.267857
vt 0.445000 0.267857
vt 0.445000 0.916667
vt 0.791667 0.727560
vt 0.142857 0.750000
vt 0.142857 0.727560
vt 0.625000 0.267857
vt 0.125000 0.727560
vt 0.500000 0.916667
vt 0.791667 0.750000
vt 0.625000 0.916667
vt 0.791667 0.708861
vt 0.857143 0.604430
vt 0.791667 0.604430
vt 0.125000 0.708861
vt 0.142857 0.604430
vt 0.125000 0.604430
vt 0.142857 0.708861
vt 0.208333 0.604430
vt 0.625000 0.708861
vt 0.625000 0.604430
vt 0.500000 0.604430
vt 0.500000 0.708861
vt 0.500000 0.022440
vt 0.500000 0.041139
vt 0.500000 0.022440
vt 0.500000 0.041139
vt 0.500000 0.022440
vt 0.445000 0.041139
vt 0.445000 0.022440
vt 0.445000 0.708861
vt 0.445000 0.604430
vt 0.857143 0.708861
vt 0.875000 0.604430
vt 0.208333 0.708861
vt 0.375000 0.604430
vt 0.500000 0.041139
vt 0.625000 0.022440
vt 0.375000 0.708861
vt 0.375000 0.982143
vt 0.375000 0.916667
vt 0.375000 0.267857
vt 0.375000 0.333333
vt 0.375000 0.197785
vt 0.375000 0.022440
vt 0.445000 0.000000
vt 0.500000 0.000000
vt 0.875000 0.708861
vt 0.625000 0.104701
vt 0.625000 0.722222
vt 0.625000 1.000000
vt 0.375000 0.722222
vt 0.125000 0.722222
vt 0.875000 0.722222
vt 0.875000 0.645299
vt 0.625000 0.645299
vt 0.375000 0.645299
vt 0.125000 0.645299
vt 0.625000 0.027778
vt 0.505000 0.104701
vt 0.505000 0.027778
vt 0.505000 0.645299
vt 0.505000 0.500000
vt 0.505000 0.000000
vt 0.505000 1.000000
vt 0.505000 0.750000
vt 0.505000 0.722222
vt 0.505000 0.250000
vt 0.440000 0.250000
vt 0.440000 0.104701
vt 0.440000 0.500000
vt 0.440000 1.000000
vt 0.440000 0.750000
vt 0.440000 0.027778
vt 0.440000 0.000000
vt 0.440000 0.722222
vt 0.440000 0.645299
vt 0.545000 0.250000
vt 0.625000 0.187500
vt 0.545000 0.187500
vt 0.545000 0.500000
vt 0.625000 0.455357
vt 0.545000 0.455357
vt 0.545000 1.000000
vt 0.625000 0.954082
vt 0.545000 0.954082
vt 0.330357 0.750000
vt 0.375000 0.625000
vt 0.330357 0.625000
vt 0.829082 0.750000
vt 0.875000 0.625000
vt 0.829082 0.625000
vt 0.829082 0.562500
vt 0.829082 0.500000
vt 0.330357 0.562500
vt 0.330357 0.500000
vt 0.625000 0.125000
vt 0.545000 0.125000
vt 0.545000 0.000000
vt 0.875000 0.562500
vt 0.375000 0.562500
vt 0.545000 0.750000
vt 0.375000 0.125000
vt 0.625000 0.562500
vt 0.375000 0.954082
vt 0.625000 0.625000
vt 0.375000 0.455357
vt 0.375000 0.187500
vt 0.125000 0.562500
vt 0.375000 0.928571
vt 0.545000 0.839286
vt 0.375000 0.839286
vt 0.170918 0.625000
vt 0.196429 0.562500
vt 0.170918 0.562500
vt 0.714286 0.625000
vt 0.803571 0.562500
vt 0.714286 0.562500
vt 0.196429 0.500000
vt 0.170918 0.500000
vt 0.803571 0.500000
vt 0.714286 0.500000
vt 0.714286 0.750000
vt 0.803571 0.625000
vt 0.170918 0.750000
vt 0.196429 0.625000
vt 0.545000 0.928571
vt 0.625000 0.839286
vt 0.545000 0.321429
vt 0.625000 0.295918
vt 0.545000 0.295918
vt 0.125000 0.625000
vt 0.375000 0.295918
vt 0.803571 0.750000
vt 0.625000 0.928571
vt 0.625000 0.187500
vt 0.375000 0.187500
vt 0.625000 0.395833
vt 0.375000 0.395833
vt 0.625000 0.625000
vt 0.375000 0.625000
vt 0.625000 0.906250
vt 0.375000 0.906250
vt 0.270833 0.750000
vt 0.270833 0.625000
vt 0.781250 0.750000
vt 0.875000 0.625000
vt 0.781250 0.625000
vt 0.729167 0.625000
vt 0.218750 0.750000
vt 0.218750 0.625000
vt 0.375000 0.854167
vt 0.625000 0.343750
vt 0.375000 0.343750
vt 0.125000 0.625000
vt 0.729167 0.750000
vt 0.625000 0.854167
vt 0.545000 0.625000
vt 0.545000 0.562500
vt 0.625000 0.794643
vt 0.545000 0.794643
vt 0.669643 0.750000
vt 0.669643 0.625000
vt 0.669643 0.562500
vt 0.669643 0.500000
vt 0.375000 0.794643
vt 0.375000 0.410714
vt 0.375000 0.321429
vt 0.285714 0.562500
vt 0.285714 0.500000
vt 0.196429 0.750000
vt 0.285714 0.625000
vt 0.545000 0.410714
vt 0.625000 0.321429
vt 0.285714 0.750000
vt 0.625000 0.410714
vt 0.625000 0.479167
vt 0.500000 0.479167
vt 0.625000 0.979167
vt 0.500000 0.979167
vt 0.354167 0.750000
vt 0.354167 0.500000
vt 0.854167 0.750000
vt 0.854167 0.500000
vt 0.645833 0.500000
vt 0.145833 0.750000
vt 0.145833 0.500000
vt 0.500000 0.770833
vt 0.625000 0.270833
vt 0.500000 0.270833
vt 0.645833 0.750000
vt 0.625000 0.770833
vt 0.375000 0.270833
vt 0.375000 0.479167
vt 0.375000 0.770833
vt 0.375000 0.979167
vt 0.625000 0.125000
vt 0.500000 0.125000
vt 0.625000 0.375000
vt 0.500000 0.375000
vt 0.500000 0.625000
vt 0.625000 0.968750
vt 0.500000 0.968750
vt 0.250000 0.750000
vt 0.250000 0.625000
vt 0.843750 0.750000
vt 0.843750 0.625000
vt 0.750000 0.625000
vt 0.187500 0.750000
vt 0.187500 0.625000
vt 0.500000 0.875000
vt 0.625000 0.312500
vt 0.500000 0.312500
vt 0.625000 0.296875
vt 0.500000 0.296875
vt 0.171875 0.750000
vt 0.171875 0.625000
vt 0.750000 0.750000
vt 0.812500 0.625000
vt 0.500000 0.937500
vt 0.625000 0.875000
vt 0.375000 0.312500
vt 0.375000 0.296875
vt 0.375000 0.375000
vt 0.375000 0.875000
vt 0.375000 0.968750
vt 0.375000 0.125000
vt 0.500000 0.953125
vt 0.375000 0.953125
vt 0.375000 0.281250
vt 0.156250 0.750000
vt 0.156250 0.625000
vt 0.500000 0.281250
vt 0.828125 0.750000
vt 0.828125 0.625000
vt 0.625000 0.953125
vt 0.843750 0.500000
vt 0.828125 0.500000
vt 0.156250 0.500000
vt 0.812500 0.500000
vt 0.750000 0.500000
vt 0.187500 0.500000
vt 0.171875 0.500000
vt 0.250000 0.500000
vt 0.625000 0.937500
vt 0.812500 0.750000
vt 0.375000 0.937500
vt 0.625000 0.281250
vt 0.625000 0.437500
vt 0.500000 0.437500
vt 0.500000 0.750000
vt 0.625000 0.687500
vt 0.500000 0.687500
vt 0.500000 0.875000
vt 0.312500 0.750000
vt 0.375000 0.687500
vt 0.312500 0.687500
vt 0.875000 0.687500
vt 0.750000 0.687500
vt 0.687500 0.687500
vt 0.125000 0.687500
vt 0.250000 0.750000
vt 0.250000 0.687500
vt 0.625000 0.812500
vt 0.500000 0.812500
vt 0.500000 0.250000
vt 0.687500 0.750000
vt 0.500000 0.375000
vt 0.250000 0.625000
vt 0.312500 0.500000
vt 0.250000 0.500000
vt 0.687500 0.625000
vt 0.687500 0.500000
vt 0.312500 0.625000
vt 0.500000 0.062500
vt 0.625000 0.062500
vt 0.750000 0.500000
vt 0.625000 0.625000
vt 0.375000 0.062500
vt 0.375000 0.812500
vt 0.375000 0.437500
vt 0.440000 0.500000
vt 0.375000 0.500000
vt 0.375000 0.375000
vt 0.875000 0.750000
vt 0.375000 0.750000
vt 0.375000 0.937500
vt 0.375000 0.875000
vt 0.375000 0.312500
vt 0.375000 0.104701
vt 0.375000 0.027778
vt 0.440000 0.500000
vt 0.505000 0.500000
vt 0.375000 0.500000
vt 0.375000 0.562500
vt 0.781250 0.562500
vt 0.729167 0.562500
vt 0.218750 0.562500
vt 0.125000 0.562500
vt 0.270833 0.562500
vt 0.625000 0.562500
vt 0.875000 0.562500
vt 0.270833 0.500000
vt 0.781250 0.500000
vt 0.729167 0.500000
vt 0.218750 0.500000
vt 0.375000 0.145570
vt 0.375000 0.041139
vt 0.445000 0.552215
vt 0.375000 0.552215
vt 0.625000 0.552215
vt 0.500000 0.552215
vt 0.208333 0.552215
vt 0.875000 0.552215
vt 0.857143 0.552215
vt 0.791667 0.552215
vt 0.142857 0.552215
vt 0.125000 0.552215
vt 0.500000 0.145570
vt 0.445000 0.145570
vt 0.625000 0.041139
vt 0.857143 0.500000
vt 0.791667 0.500000
vt 0.142857 0.500000
vt 0.208333 0.500000
vt 0.625000 0.145570
s 0
f 26/15/7 10/16/7 25/17/7
f 27/18/8 18/19/8 30/20/8
f 28/21/9 16/22/9 27/18/9
f 25/23/10 22/24/10 32/25/10
f 19/26/11 15/18/11 17/27/11
f 22/28/12 12/29/12 23/30/12
f 14/31/12 18/32/12 16/22/12
f 24/33/11 17/27/11 21/34/11
f 29/35/10 14/31/10 28/21/10
f 30/20/8 23/36/8 31/37/8
f 31/37/8 12/38/8 26/15/8
f 9/39/11 21/34/11 11/40/11
f 20/41/12 23/30/12 18/32/12
f 32/25/10 20/42/10 29/35/10
f 21/37/8 26/15/8 11/15/8
f 17/20/8 31/37/8 21/37/8
f 19/35/10 28/21/10 13/21/10
f 9/23/10 32/25/10 24/25/10
f 13/21/9 27/18/9 15/18/9
f 15/18/8 30/20/8 17/20/8
f 11/15/7 25/17/7 9/17/7
f 46/43/7 577/44/7 590/45/7
f 47/46/8 54/47/8 60/48/8
f 48/49/9 98/50/9 105/51/9
f 45/52/10 64/53/10 71/54/10
f 55/55/11 103/56/11 108/57/11
f 64/58/12 102/59/12 110/60/12
f 90/61/10 70/54/10 94/62/10
f 89/63/9 104/51/9 112/64/9
f 88/65/8 58/48/8 91/66/8
f 87/67/7 589/45/7 592/68/7
f 52/52/10 71/54/10 72/54/10
f 51/49/9 105/51/9 106/69/9
f 50/46/8 60/48/8 61/48/8
f 49/43/7 590/45/7 591/45/7
f 589/45/11 49/43/11 591/45/11
f 58/48/11 50/46/11 61/48/11
f 104/51/11 51/49/11 106/69/11
f 70/54/11 52/52/11 72/54/11
f 44/49/11 62/70/11 51/49/11
f 65/71/11 61/48/11 67/71/11
f 62/70/10 48/49/10 51/49/10
f 91/66/8 65/71/8 93/72/8
f 92/73/10 44/49/10 89/63/10
f 38/31/12 107/74/12 98/50/12
f 69/75/11 108/57/11 109/76/11
f 59/70/10 38/31/10 48/49/10
f 60/48/8 68/77/8 66/71/8
f 66/71/8 36/38/8 46/43/8
f 33/39/11 109/76/11 97/78/11
f 93/72/8 42/43/8 87/67/8
f 67/71/8 46/43/8 49/43/8
f 42/43/11 67/71/11 49/43/11
f 57/79/11 72/54/11 62/79/11
f 72/54/10 59/70/10 62/70/10
f 94/62/10 57/79/10 92/73/10
f 56/80/12 110/60/12 107/74/12
f 71/54/10 56/81/10 59/70/10
f 24/33/11 61/48/11 19/26/11
f 66/71/7 24/33/7 32/25/7
f 32/25/12 60/48/12 66/71/12
f 19/26/9 60/48/9 29/35/9
f 83/82/12 569/83/12 566/84/12
f 73/85/11 568/86/11 570/87/11
f 85/88/11 567/89/11 568/86/11
f 76/90/12 566/84/12 571/91/12
f 563/92/11 82/93/11 565/92/11
f 99/94/11 81/95/11 101/96/11
f 81/97/7 100/98/7 101/96/7
f 82/93/9 564/92/9 565/92/9
f 95/99/7 99/94/7 111/100/7
f 96/101/9 563/92/9 575/102/9
f 86/103/12 561/104/12 569/83/12
f 84/105/11 562/106/11 567/89/11
f 79/93/9 571/91/9 564/92/9
f 80/107/7 102/108/7 100/98/7
f 75/109/9 575/102/9 562/106/9
f 69/110/10 92/73/10 55/111/10
f 63/112/8 87/67/8 35/15/8
f 55/111/10 89/63/10 37/21/10
f 53/113/8 93/72/8 63/112/8
f 35/15/7 592/68/7 587/114/7
f 39/18/8 91/66/8 53/113/8
f 37/21/9 112/64/9 103/56/9
f 33/23/10 94/62/10 69/110/10
f 103/56/9 96/101/9 75/109/9
f 97/115/7 90/116/7 33/17/7
f 100/98/7 34/16/7 45/117/7
f 111/100/7 41/117/7 90/116/7
f 101/96/7 45/117/7 52/117/7
f 41/117/11 101/96/11 52/117/11
f 107/74/12 86/103/12 83/82/12
f 97/78/11 85/88/11 73/85/11
f 109/76/11 84/105/11 85/88/11
f 98/50/12 83/82/12 76/90/12
f 77/93/11 106/69/11 82/93/11
f 112/64/9 77/93/9 96/101/9
f 110/60/12 74/118/12 86/103/12
f 108/57/11 75/109/11 84/105/11
f 105/51/9 76/90/9 79/93/9
f 141/119/11 116/38/11 125/119/11
f 142/38/11 120/22/11 116/38/11
f 138/120/11 118/31/11 124/120/11
f 144/31/11 114/121/11 118/31/11
f 113/39/11 123/122/11 121/123/11
f 118/31/12 122/124/12 124/120/12
f 124/120/12 125/125/12 128/126/12
f 121/123/11 126/127/11 127/128/11
f 140/126/11 124/120/11 128/126/11
f 137/16/11 122/129/11 114/16/11
f 143/22/11 128/126/11 120/22/11
f 127/128/11 119/18/11 115/40/11
f 128/126/12 116/29/12 120/22/12
f 139/129/11 125/119/11 122/129/11
f 152/130/7 134/129/7 150/131/7
f 151/132/9 131/22/9 146/133/9
f 150/131/7 129/16/7 148/134/7
f 135/126/11 154/120/11 133/120/11
f 148/135/10 132/31/10 147/136/10
f 147/136/9 133/120/9 149/137/9
f 146/133/8 130/38/8 145/138/8
f 145/138/7 136/119/7 152/130/7
f 136/119/7 139/129/7 134/129/7
f 135/126/9 143/22/9 131/22/9
f 134/129/7 137/16/7 129/16/7
f 129/121/10 144/31/10 132/31/10
f 132/31/9 138/120/9 133/120/9
f 131/22/8 142/38/8 130/38/8
f 130/38/7 141/119/7 136/119/7
f 135/126/11 97/78/11 73/85/11
f 140/126/8 73/85/8 95/99/8
f 111/100/12 140/126/12 95/99/12
f 97/78/10 138/120/10 111/100/10
f 511/139/7 152/130/7 516/140/7
f 512/141/8 145/138/8 511/139/8
f 117/21/11 166/122/11 123/122/11
f 514/142/10 147/136/10 513/143/10
f 126/127/11 162/18/11 119/18/11
f 515/144/7 148/134/7 514/145/7
f 147/136/10 518/143/10 513/143/10
f 516/140/7 150/131/7 515/144/7
f 155/132/12 195/132/12 151/132/12
f 133/120/7 157/137/7 149/137/7
f 149/137/12 155/132/12 151/132/12
f 158/120/8 159/137/8 157/137/8
f 149/137/12 159/137/12 153/137/12
f 154/120/11 158/120/11 133/120/11
f 168/132/12 175/137/12 167/137/12
f 163/127/11 170/18/11 162/18/11
f 165/21/11 174/122/11 166/122/11
f 146/133/12 168/132/12 151/132/12
f 151/132/12 167/137/12 149/137/12
f 123/122/11 163/127/11 126/127/11
f 149/137/12 164/136/12 147/136/12
f 119/18/8 517/141/8 512/141/8
f 520/143/9 175/137/9 521/146/9
f 521/146/9 176/132/9 522/147/9
f 522/147/9 169/133/9 519/141/9
f 166/122/11 171/127/11 163/127/11
f 164/136/10 520/143/10 518/143/10
f 162/18/7 523/141/7 517/141/7
f 161/133/12 176/132/12 168/132/12
f 167/137/12 172/136/12 164/136/12
f 180/18/11 460/18/11 178/18/11
f 161/133/12 179/133/12 169/133/12
f 169/133/9 524/141/9 519/141/9
f 170/18/11 178/18/11 162/18/11
f 154/120/11 186/120/11 160/120/11
f 184/137/9 186/120/9 183/120/9
f 156/126/11 183/120/11 154/120/11
f 160/120/8 185/137/8 159/137/8
f 159/137/12 184/137/12 153/137/12
f 153/137/12 181/132/12 155/132/12
f 156/126/11 190/126/11 182/126/11
f 188/126/11 194/126/11 190/126/11
f 155/132/7 188/126/7 156/126/7
f 182/126/9 189/132/9 181/132/9
f 181/132/12 187/132/12 155/132/12
f 191/132/10 194/126/10 192/126/10
f 187/132/8 200/126/8 188/126/8
f 189/132/12 191/132/12 187/132/12
f 190/126/9 193/132/9 189/132/9
f 195/132/10 198/126/10 196/126/10
f 135/126/11 198/126/11 156/126/11
f 156/126/9 197/132/9 155/132/9
f 151/132/7 196/126/7 135/126/7
f 199/132/7 202/126/7 200/126/7
f 191/132/13 199/132/13 187/132/13
f 188/126/14 202/126/14 192/126/14
f 191/132/10 202/126/10 201/132/10
f 220/148/7 212/149/7 223/150/7
f 221/151/8 297/152/8 306/153/8
f 210/22/12 354/22/12 350/22/12
f 219/154/10 236/155/10 244/156/10
f 298/157/11 218/158/11 300/159/11
f 236/160/12 217/161/12 238/162/12
f 237/163/12 206/29/12 240/164/12
f 299/165/11 209/18/11 302/166/11
f 332/21/11 276/158/11 338/158/11
f 223/150/7 217/167/7 224/168/7
f 224/168/7 204/16/7 219/169/7
f 238/162/12 212/170/12 237/163/12
f 300/159/11 213/171/11 299/165/11
f 277/22/9 286/151/9 269/151/9
f 333/172/10 275/21/10 332/21/10
f 215/173/7 219/169/7 203/17/7
f 335/22/12 278/174/12 334/174/12
f 203/23/10 244/156/10 241/175/10
f 337/176/12 273/31/12 336/31/12
f 209/18/8 306/153/8 302/177/8
f 205/15/7 223/150/7 211/178/7
f 106/69/11 211/179/11 82/93/11
f 82/93/8 223/150/8 79/93/8
f 105/51/12 223/150/12 224/168/12
f 224/168/10 106/69/10 105/51/10
f 227/180/10 291/181/10 288/182/10
f 243/183/11 230/184/11 242/185/11
f 295/186/12 229/187/12 294/188/12
f 242/185/11 225/189/11 235/190/11
f 294/188/12 226/191/12 287/192/12
f 293/193/12 231/194/12 295/186/12
f 241/195/11 232/196/11 243/183/11
f 233/197/10 293/198/10 291/181/10
f 234/199/8 240/200/8 239/201/8
f 239/201/8 206/38/8 220/148/8
f 203/39/11 243/183/11 215/202/11
f 211/179/11 235/190/11 205/40/11
f 215/202/11 242/185/11 211/179/11
f 235/203/8 220/148/8 205/15/8
f 241/175/10 233/197/10 227/180/10
f 231/194/12 237/163/12 229/187/12
f 229/187/12 240/164/12 226/191/12
f 228/204/12 238/162/12 231/194/12
f 244/156/10 228/205/10 233/197/10
f 262/15/7 551/206/7 560/207/7
f 263/18/8 254/208/8 266/209/8
f 264/21/9 544/210/9 549/211/9
f 261/23/10 258/212/10 268/213/10
f 255/214/11 543/211/11 546/215/11
f 258/216/12 542/217/12 548/218/12
f 250/31/12 545/219/12 544/210/12
f 260/220/11 546/215/11 547/221/11
f 265/222/10 250/31/10 264/21/10
f 266/209/8 259/223/8 267/224/8
f 267/224/8 248/38/8 262/15/8
f 245/39/11 547/221/11 541/225/11
f 256/226/12 548/218/12 545/219/12
f 268/213/10 256/227/10 265/222/10
f 257/224/8 262/15/8 247/15/8
f 253/209/8 267/224/8 257/224/8
f 255/222/10 264/21/10 249/21/10
f 245/23/10 268/213/10 260/213/10
f 249/21/9 549/211/9 543/211/9
f 251/18/8 266/209/8 253/209/8
f 247/15/7 560/207/7 558/207/7
f 255/214/11 235/190/11 225/189/11
f 265/222/9 225/189/9 234/199/9
f 239/201/12 265/222/12 234/199/12
f 235/190/7 268/213/7 239/201/7
f 274/172/9 272/176/9 280/228/9
f 279/229/9 277/22/9 269/151/9
f 280/228/9 278/174/9 279/229/9
f 276/158/9 279/229/9 271/171/9
f 271/171/9 269/151/9 270/18/9
f 275/21/9 280/228/9 276/158/9
f 339/171/11 270/18/11 331/18/11
f 336/31/10 274/172/10 333/172/10
f 338/158/11 271/171/11 339/171/11
f 334/174/12 272/176/12 337/176/12
f 342/151/8 285/22/8 341/22/8
f 340/18/8 286/151/8 342/151/8
f 221/151/7 284/22/7 210/22/7
f 209/18/7 281/151/7 221/151/7
f 269/151/9 283/18/9 270/18/9
f 270/18/11 340/18/11 331/18/11
f 291/181/10 303/230/10 301/231/10
f 303/232/12 295/186/12 305/233/12
f 304/234/12 287/192/12 297/235/12
f 305/233/12 294/188/12 304/234/12
f 288/182/10 301/231/10 298/236/10
f 292/237/8 234/199/8 225/238/8
f 232/196/11 289/239/11 230/184/11
f 230/184/11 292/240/11 225/189/11
f 227/241/11 290/242/11 232/196/11
f 296/243/8 226/244/8 234/199/8
f 298/236/10 222/172/10 207/21/10
f 216/176/12 304/234/12 214/174/12
f 214/174/12 297/235/12 210/22/12
f 208/31/12 305/233/12 216/176/12
f 301/231/10 208/31/10 222/172/10
f 290/242/11 299/165/11 289/239/11
f 289/239/11 302/166/11 292/240/11
f 288/245/11 300/159/11 290/242/11
f 306/153/8 287/246/8 296/243/8
f 324/43/7 308/16/7 323/117/7
f 325/46/8 316/247/8 328/248/8
f 326/49/9 314/22/9 325/46/9
f 323/52/10 320/249/10 330/250/10
f 317/251/11 313/18/11 315/252/11
f 320/253/12 310/29/12 321/254/12
f 312/31/12 316/255/12 314/22/12
f 322/256/11 315/252/11 319/257/11
f 327/258/10 312/31/10 326/49/10
f 328/248/8 321/259/8 329/260/8
f 329/260/8 310/38/8 324/43/8
f 307/39/11 319/257/11 309/40/11
f 318/261/12 321/254/12 316/255/12
f 330/250/10 318/262/10 327/258/10
f 319/263/8 324/43/8 309/15/8
f 315/264/8 329/260/8 319/263/8
f 317/265/10 326/49/10 311/21/10
f 307/23/10 330/250/10 322/266/10
f 311/21/9 325/46/9 313/18/9
f 313/18/8 328/248/8 315/264/8
f 309/15/7 323/117/7 307/17/7
f 317/251/11 292/240/11 302/166/11
f 306/153/9 317/265/9 302/166/9
f 296/243/7 322/266/7 330/250/7
f 331/18/11 353/18/11 348/18/11
f 347/151/8 341/22/8 354/22/8
f 344/174/12 337/176/12 351/176/12
f 346/158/11 339/171/11 352/171/11
f 345/31/10 333/172/10 349/172/10
f 352/171/11 331/18/11 348/18/11
f 351/176/12 336/31/12 345/31/12
f 350/22/12 334/174/12 344/174/12
f 349/172/10 332/21/10 343/21/10
f 343/21/11 338/158/11 346/158/11
f 335/22/12 285/22/12 277/22/12
f 207/21/11 346/158/11 218/158/11
f 222/172/10 343/21/10 207/21/10
f 210/22/12 344/174/12 214/174/12
f 216/176/12 345/31/12 208/31/12
f 213/171/11 348/18/11 209/18/11
f 208/31/10 349/172/10 222/172/10
f 218/158/11 352/171/11 213/171/11
f 214/174/12 351/176/12 216/176/12
f 281/151/8 354/22/8 284/22/8
f 282/18/8 347/151/8 281/151/8
f 348/18/11 282/18/11 209/18/11
f 350/22/12 341/22/12 335/22/12
f 372/43/7 386/267/7 394/268/7
f 373/46/8 364/269/8 376/270/8
f 374/49/9 388/210/9 393/271/9
f 371/52/10 380/272/10 384/273/10
f 365/274/11 387/211/11 390/275/11
f 380/276/12 386/217/12 396/277/12
f 360/31/12 389/278/12 388/210/12
f 370/279/11 390/275/11 391/280/11
f 375/281/10 360/31/10 374/49/10
f 376/270/8 369/282/8 377/283/8
f 377/283/8 397/284/8 402/285/8
f 398/286/11 391/280/11 404/287/11
f 366/288/12 392/289/12 389/278/12
f 378/290/10 366/291/10 375/281/10
f 367/292/8 402/285/8 400/293/8
f 363/294/8 377/283/8 367/292/8
f 365/295/10 374/49/10 359/21/10
f 355/23/10 384/273/10 382/296/10
f 359/21/9 393/271/9 387/211/9
f 361/18/8 376/270/8 363/294/8
f 357/15/7 394/268/7 385/297/7
f 365/274/11 353/18/11 340/18/11
f 375/281/15 340/18/15 342/151/15
f 347/151/16 375/281/16 342/151/16
f 353/18/17 378/290/17 347/151/17
f 296/243/12 327/258/12 306/153/12
f 382/296/10 399/298/10 398/299/10
f 379/300/8 372/43/8 357/15/8
f 385/225/11 382/301/11 395/302/11
f 383/303/8 358/38/8 372/43/8
f 401/304/12 396/277/12 403/305/12
f 384/273/10 401/306/10 399/298/10
f 403/305/12 381/307/12 397/308/12
f 357/40/11 395/302/11 379/309/11
f 385/297/7 371/117/7 355/17/7
f 387/211/9 373/46/9 361/18/9
f 389/278/12 369/310/12 364/311/12
f 404/287/11 367/312/11 400/313/11
f 391/280/11 363/314/11 367/312/11
f 388/210/12 364/311/12 362/22/12
f 396/277/12 358/29/12 381/307/12
f 390/275/11 361/18/11 363/314/11
f 393/271/9 362/22/9 373/46/9
f 394/268/7 356/16/7 371/117/7
f 392/289/12 397/308/12 369/310/12
f 399/298/10 368/315/10 378/290/10
f 368/316/12 403/305/12 392/289/12
f 398/299/10 378/290/10 370/317/10
f 400/293/8 383/303/8 379/300/8
f 382/301/11 404/287/11 395/302/11
f 402/285/8 381/318/8 383/303/8
f 456/268/7 408/38/7 422/267/7
f 449/46/18 417/319/18 454/320/18
f 450/321/9 440/322/9 458/323/9
f 451/324/19 406/121/19 416/291/19
f 418/325/11 442/326/11 446/327/11
f 416/288/12 441/328/12 443/329/12
f 445/330/12 416/288/12 443/329/12
f 439/331/11 415/332/11 444/333/11
f 451/324/20 420/334/20 453/335/20
f 448/336/21 414/269/21 408/38/21
f 453/335/22 410/31/22 450/321/22
f 440/322/12 420/337/12 445/330/12
f 415/332/11 446/327/11 444/333/11
f 454/320/23 414/269/23 452/338/23
f 426/339/11 419/340/11 413/341/11
f 412/22/12 427/342/12 417/343/12
f 407/40/11 426/339/11 413/341/11
f 408/38/9 433/267/9 422/267/9
f 428/344/11 411/18/11 419/340/11
f 455/271/9 412/22/9 449/46/9
f 457/345/7 422/267/7 441/346/7
f 414/269/10 430/309/10 432/269/10
f 404/287/10 425/278/10 395/302/10
f 400/293/8 414/269/8 417/319/8
f 417/319/9 404/287/9 400/293/9
f 429/302/7 432/347/7 430/309/7
f 395/302/24 430/309/24 379/309/24
f 425/278/8 429/302/8 395/302/8
f 431/278/8 436/278/8 437/278/8
f 435/347/25 433/217/25 434/29/25
f 408/38/10 435/269/10 434/38/10
f 422/217/26 436/278/26 425/278/26
f 414/347/27 436/278/27 435/347/27
f 436/278/28 438/347/28 437/278/28
f 414/269/10 438/269/10 435/269/10
f 431/278/29 438/347/29 432/347/29
f 447/117/7 441/346/7 406/16/7
f 444/333/11 428/344/11 426/339/11
f 424/348/12 445/330/12 427/342/12
f 421/225/11 444/333/11 426/339/11
f 427/342/12 443/329/12 425/278/12
f 443/329/12 422/217/12 425/278/12
f 446/327/11 423/211/11 428/344/11
f 458/323/9 424/348/9 455/271/9
f 423/211/9 458/323/9 455/271/9
f 421/297/7 457/345/7 439/349/7
f 411/18/9 455/271/9 449/46/9
f 413/294/30 454/320/30 452/338/30
f 418/350/31 450/321/31 409/21/31
f 407/15/32 452/338/32 448/336/32
f 415/295/33 453/335/33 418/350/33
f 415/295/34 447/52/34 451/324/34
f 442/326/9 450/321/9 458/323/9
f 419/351/35 449/46/35 454/320/35
f 407/15/7 456/268/7 421/297/7
f 460/18/8 526/141/8 525/141/8
f 535/18/11 464/18/11 539/18/11
f 177/133/12 461/133/12 179/133/12
f 179/133/9 526/141/9 524/141/9
f 464/18/7 528/141/7 527/141/7
f 536/133/12 465/133/12 540/133/12
f 540/133/8 528/141/8 538/352/8
f 539/18/10 527/141/10 537/141/10
f 473/18/36 488/269/36 487/294/36
f 467/23/37 496/315/37 500/317/37
f 491/294/38 503/353/38 508/354/38
f 499/310/12 468/355/12 470/29/12
f 492/274/11 477/18/11 491/314/11
f 477/18/9 504/356/9 503/353/9
f 501/317/39 506/23/39 510/357/39
f 476/17/7 505/15/7 506/17/7
f 447/117/12 474/22/12 457/345/12
f 439/349/8 474/22/8 473/18/8
f 471/21/40 447/117/40 405/23/40
f 439/349/11 471/21/11 405/23/11
f 470/38/7 467/17/7 469/15/7
f 481/17/7 469/15/7 467/17/7
f 498/317/41 467/23/41 500/317/41
f 482/21/42 483/21/42 486/21/42
f 487/294/43 479/18/43 473/18/43
f 485/18/9 483/21/9 484/18/9
f 482/21/44 485/18/44 479/18/44
f 473/18/45 483/21/45 471/21/45
f 479/18/46 484/18/46 473/18/46
f 495/292/47 494/294/47 487/294/47
f 482/21/48 489/295/48 471/21/48
f 504/356/49 492/295/49 507/358/49
f 501/279/11 491/314/11 497/312/11
f 474/22/12 490/288/12 488/311/12
f 497/292/50 508/354/50 509/359/50
f 489/295/51 472/31/51 471/21/51
f 487/294/52 499/282/52 495/292/52
f 495/292/53 470/38/53 469/15/53
f 505/15/54 497/292/54 509/359/54
f 475/40/11 501/279/11 497/312/11
f 469/15/55 502/292/55 495/292/55
f 493/295/56 500/317/56 489/295/56
f 537/141/10 463/133/10 536/133/10
f 488/311/12 496/316/12 499/310/12
f 500/317/57 490/291/57 489/295/57
f 493/295/58 510/357/58 498/317/58
f 480/15/59 509/359/59 502/292/59
f 502/292/60 508/354/60 494/294/60
f 482/21/61 507/358/61 493/295/61
f 506/17/7 480/15/7 481/17/7
f 510/357/62 481/23/62 498/317/62
f 503/353/9 482/21/9 479/18/9
f 494/294/63 503/353/63 479/18/63
f 535/18/8 528/141/8 466/18/8
f 527/141/7 465/133/7 463/133/7
f 524/141/9 462/18/9 180/18/9
f 525/141/8 461/133/8 459/133/8
f 519/141/9 180/18/9 170/18/9
f 517/141/7 177/133/7 161/133/7
f 518/143/10 173/21/10 165/21/10
f 171/127/9 519/141/9 170/18/9
f 174/122/9 522/147/9 171/127/9
f 173/21/9 521/146/9 174/122/9
f 512/141/8 161/133/8 146/133/8
f 127/360/7 515/144/7 121/361/7
f 513/143/10 165/21/10 117/21/10
f 121/361/7 514/145/7 113/17/7
f 113/23/10 513/143/10 117/21/10
f 119/18/8 511/139/8 115/15/8
f 115/15/7 516/140/7 127/360/7
f 460/18/8 534/362/8 529/18/8
f 523/141/10 531/133/10 177/133/10
f 178/18/10 533/141/10 523/141/10
f 525/141/8 532/363/8 534/362/8
f 177/133/12 532/363/12 459/133/12
f 460/18/11 530/364/11 178/18/11
f 501/279/11 529/18/11 492/274/11
f 533/141/10 536/133/10 531/133/10
f 530/364/10 537/141/10 533/141/10
f 534/362/8 540/133/8 538/352/8
f 531/133/12 540/133/12 532/363/12
f 529/18/11 539/18/11 530/364/11
f 492/274/9 534/362/9 507/358/9
f 507/358/64 538/352/64 510/357/64
f 501/279/65 538/352/65 535/18/65
f 541/297/7 261/17/7 245/17/7
f 543/211/9 557/365/9 552/365/9
f 545/219/12 556/366/12 553/367/12
f 541/225/11 555/368/11 558/369/11
f 547/221/11 554/370/11 555/368/11
f 544/210/12 553/367/12 559/371/12
f 548/218/12 551/372/12 556/366/12
f 546/215/11 552/365/11 554/370/11
f 549/211/9 559/371/9 557/365/9
f 550/297/7 246/16/7 261/17/7
f 557/365/9 252/22/9 263/18/9
f 554/370/11 251/18/11 253/373/11
f 556/366/12 248/29/12 259/374/12
f 559/371/12 254/375/12 252/22/12
f 555/368/11 253/373/11 257/376/11
f 558/369/11 257/376/11 247/40/11
f 553/367/12 259/374/12 254/375/12
f 552/365/9 263/18/9 251/18/9
f 570/377/7 95/99/7 73/378/7
f 560/207/7 542/267/7 550/297/7
f 562/106/9 586/379/9 578/380/9
f 564/92/9 588/381/9 580/382/9
f 567/89/11 578/380/11 583/383/11
f 569/83/12 577/384/12 585/385/12
f 575/102/9 579/382/9 586/379/9
f 558/369/11 565/92/11 541/225/11
f 579/382/11 565/92/11 581/382/11
f 571/91/12 582/386/12 588/381/12
f 568/86/11 583/383/11 584/387/11
f 570/87/11 584/387/11 587/388/11
f 566/84/12 585/385/12 582/386/12
f 78/95/11 574/389/11 81/95/11
f 574/389/7 80/107/7 81/97/7
f 576/390/7 78/95/7 95/99/7
f 573/389/7 74/391/7 80/107/7
f 582/386/12 68/392/12 54/393/12
f 587/388/11 63/394/11 35/40/11
f 584/387/11 53/395/11 63/394/11
f 588/381/12 54/393/12 40/22/12
f 43/46/11 581/382/11 50/46/11
f 581/382/9 47/46/9 50/46/9
f 586/379/9 43/46/9 88/65/9
f 585/385/12 36/29/12 68/392/12
f 583/383/11 39/18/11 53/395/11
f 580/382/9 40/22/9 47/46/9
f 578/380/9 88/65/9 39/18/9
f 587/114/7 576/390/7 570/377/7
f 572/389/11 591/45/11 574/389/11
f 591/45/7 573/389/7 574/389/7
f 592/68/7 572/389/7 576/390/7
f 590/45/7 561/396/7 573/389/7
f 580/382/66 558/369/66 560/207/66
f 541/225/67 564/92/67 550/297/67
f 560/207/12 564/92/12 580/382/12
f 26/15/7 12/38/7 10/16/7
f 27/18/8 16/22/8 18/19/8
f 28/21/9 14/31/9 16/22/9
f 25/23/10 10/121/10 22/24/10
f 19/26/11 13/21/11 15/18/11
f 22/28/12 10/355/12 12/29/12
f 14/31/12 20/41/12 18/32/12
f 24/33/11 19/26/11 17/27/11
f 29/35/10 20/42/10 14/31/10
f 30/20/8 18/19/8 23/36/8
f 31/37/8 23/36/8 12/38/8
f 9/39/11 24/33/11 21/34/11
f 20/41/12 22/28/12 23/30/12
f 32/25/10 22/24/10 20/42/10
f 21/37/8 31/37/8 26/15/8
f 17/20/8 30/20/8 31/37/8
f 19/35/10 29/35/10 28/21/10
f 9/23/10 25/23/10 32/25/10
f 13/21/9 28/21/9 27/18/9
f 15/18/8 27/18/8 30/20/8
f 11/15/7 26/15/7 25/17/7
f 46/43/7 36/38/7 577/44/7
f 47/46/8 40/22/8 54/47/8
f 48/49/9 38/31/9 98/50/9
f 45/52/10 34/121/10 64/53/10
f 55/55/11 37/21/11 103/56/11
f 64/58/12 34/355/12 102/59/12
f 90/61/10 41/52/10 70/54/10
f 89/63/9 44/49/9 104/51/9
f 88/65/8 43/46/8 58/48/8
f 87/67/7 42/43/7 589/45/7
f 52/52/10 45/52/10 71/54/10
f 51/49/9 48/49/9 105/51/9
f 50/46/8 47/46/8 60/48/8
f 49/43/7 46/43/7 590/45/7
f 589/45/11 42/43/11 49/43/11
f 58/48/11 43/46/11 50/46/11
f 104/51/11 44/49/11 51/49/11
f 70/54/11 41/52/11 52/52/11
f 44/49/11 57/79/11 62/70/11
f 65/71/11 58/48/11 61/48/11
f 62/70/10 59/70/10 48/49/10
f 91/66/8 58/48/8 65/71/8
f 92/73/10 57/79/10 44/49/10
f 38/31/12 56/80/12 107/74/12
f 69/75/11 55/55/11 108/57/11
f 59/70/10 56/81/10 38/31/10
f 60/48/8 54/47/8 68/77/8
f 66/71/8 68/77/8 36/38/8
f 33/39/11 69/75/11 109/76/11
f 93/72/8 65/71/8 42/43/8
f 67/71/8 66/71/8 46/43/8
f 42/43/11 65/71/11 67/71/11
f 57/79/11 70/54/11 72/54/11
f 72/54/10 71/54/10 59/70/10
f 94/62/10 70/54/10 57/79/10
f 56/80/12 64/58/12 110/60/12
f 71/54/10 64/53/10 56/81/10
f 24/33/11 67/71/11 61/48/11
f 66/71/7 67/71/7 24/33/7
f 32/25/12 29/35/12 60/48/12
f 19/26/9 61/48/9 60/48/9
f 83/82/12 86/103/12 569/83/12
f 73/85/11 85/88/11 568/86/11
f 85/88/11 84/105/11 567/89/11
f 76/90/12 83/82/12 566/84/12
f 563/92/11 77/93/11 82/93/11
f 99/94/11 78/95/11 81/95/11
f 81/97/7 80/107/7 100/98/7
f 82/93/9 79/93/9 564/92/9
f 95/99/7 78/95/7 99/94/7
f 96/101/9 77/93/9 563/92/9
f 86/103/12 74/118/12 561/104/12
f 84/105/11 75/109/11 562/106/11
f 79/93/9 76/90/9 571/91/9
f 80/107/7 74/391/7 102/108/7
f 75/109/9 96/101/9 575/102/9
f 69/110/10 94/62/10 92/73/10
f 63/112/8 93/72/8 87/67/8
f 55/111/10 92/73/10 89/63/10
f 53/113/8 91/66/8 93/72/8
f 35/15/7 87/67/7 592/68/7
f 39/18/8 88/65/8 91/66/8
f 37/21/9 89/63/9 112/64/9
f 33/23/10 90/61/10 94/62/10
f 103/56/9 112/64/9 96/101/9
f 97/115/7 111/100/7 90/116/7
f 100/98/7 102/108/7 34/16/7
f 111/100/7 99/94/7 41/117/7
f 101/96/7 100/98/7 45/117/7
f 41/117/11 99/94/11 101/96/11
f 107/74/12 110/60/12 86/103/12
f 97/78/11 109/76/11 85/88/11
f 109/76/11 108/57/11 84/105/11
f 98/50/12 107/74/12 83/82/12
f 77/93/11 104/51/11 106/69/11
f 112/64/9 104/51/9 77/93/9
f 110/60/12 102/59/12 74/118/12
f 108/57/11 103/56/11 75/109/11
f 105/51/9 98/50/9 76/90/9
f 141/119/11 142/38/11 116/38/11
f 142/38/11 143/22/11 120/22/11
f 138/120/11 144/31/11 118/31/11
f 144/31/11 137/121/11 114/121/11
f 113/39/11 117/21/11 123/122/11
f 118/31/12 114/355/12 122/124/12
f 124/120/12 122/124/12 125/125/12
f 121/123/11 123/122/11 126/127/11
f 140/126/11 138/120/11 124/120/11
f 137/16/11 139/129/11 122/129/11
f 143/22/11 140/126/11 128/126/11
f 127/128/11 126/127/11 119/18/11
f 128/126/12 125/125/12 116/29/12
f 139/129/11 141/119/11 125/119/11
f 152/130/7 136/119/7 134/129/7
f 151/132/9 135/126/9 131/22/9
f 150/131/7 134/129/7 129/16/7
f 135/126/11 156/126/11 154/120/11
f 148/135/10 129/121/10 132/31/10
f 147/136/9 132/31/9 133/120/9
f 146/133/8 131/22/8 130/38/8
f 145/138/7 130/38/7 136/119/7
f 136/119/7 141/119/7 139/129/7
f 135/126/9 140/126/9 143/22/9
f 134/129/7 139/129/7 137/16/7
f 129/121/10 137/121/10 144/31/10
f 132/31/9 144/31/9 138/120/9
f 131/22/8 143/22/8 142/38/8
f 130/38/7 142/38/7 141/119/7
f 135/126/11 133/120/11 97/78/11
f 140/126/8 135/126/8 73/85/8
f 111/100/12 138/120/12 140/126/12
f 97/78/10 133/120/10 138/120/10
f 511/139/7 145/138/7 152/130/7
f 512/141/8 146/133/8 145/138/8
f 117/21/11 165/21/11 166/122/11
f 514/142/10 148/135/10 147/136/10
f 126/127/11 163/127/11 162/18/11
f 515/144/7 150/131/7 148/134/7
f 147/136/10 164/136/10 518/143/10
f 516/140/7 152/130/7 150/131/7
f 155/132/12 197/132/12 195/132/12
f 133/120/7 158/120/7 157/137/7
f 149/137/12 153/137/12 155/132/12
f 158/120/8 160/120/8 159/137/8
f 149/137/12 157/137/12 159/137/12
f 154/120/11 160/120/11 158/120/11
f 168/132/12 176/132/12 175/137/12
f 163/127/11 171/127/11 170/18/11
f 165/21/11 173/21/11 174/122/11
f 146/133/12 161/133/12 168/132/12
f 151/132/12 168/132/12 167/137/12
f 123/122/11 166/122/11 163/127/11
f 149/137/12 167/137/12 164/136/12
f 119/18/8 162/18/8 517/141/8
f 520/143/9 172/136/9 175/137/9
f 521/146/9 175/137/9 176/132/9
f 522/147/9 176/132/9 169/133/9
f 166/122/11 174/122/11 171/127/11
f 164/136/10 172/136/10 520/143/10
f 162/18/7 178/18/7 523/141/7
f 161/133/12 169/133/12 176/132/12
f 167/137/12 175/137/12 172/136/12
f 180/18/11 462/18/11 460/18/11
f 161/133/12 177/133/12 179/133/12
f 169/133/9 179/133/9 524/141/9
f 170/18/11 180/18/11 178/18/11
f 154/120/11 183/120/11 186/120/11
f 182/126/9 181/132/9 184/137/9
f 184/137/9 185/137/9 186/120/9
f 183/120/9 182/126/9 184/137/9
f 156/126/11 182/126/11 183/120/11
f 160/120/8 186/120/8 185/137/8
f 159/137/12 185/137/12 184/137/12
f 153/137/12 184/137/12 181/132/12
f 156/126/11 188/126/11 190/126/11
f 188/126/11 192/126/11 194/126/11
f 155/132/7 187/132/7 188/126/7
f 182/126/9 190/126/9 189/132/9
f 181/132/12 189/132/12 187/132/12
f 191/132/10 193/132/10 194/126/10
f 187/132/8 199/132/8 200/126/8
f 189/132/12 193/132/12 191/132/12
f 190/126/9 194/126/9 193/132/9
f 195/132/10 197/132/10 198/126/10
f 135/126/11 196/126/11 198/126/11
f 156/126/9 198/126/9 197/132/9
f 151/132/7 195/132/7 196/126/7
f 199/132/7 201/132/7 202/126/7
f 191/132/13 201/132/13 199/132/13
f 188/126/14 200/126/14 202/126/14
f 191/132/10 192/126/10 202/126/10
f 220/148/7 206/38/7 212/149/7
f 221/151/8 210/22/8 297/152/8
f 210/22/12 284/22/12 354/22/12
f 219/154/10 204/121/10 236/155/10
f 298/157/11 207/21/11 218/158/11
f 236/160/12 204/355/12 217/161/12
f 237/163/12 212/170/12 206/29/12
f 299/165/11 213/171/11 209/18/11
f 332/21/11 275/21/11 276/158/11
f 223/150/7 212/149/7 217/167/7
f 224/168/7 217/167/7 204/16/7
f 238/162/12 217/161/12 212/170/12
f 300/159/11 218/158/11 213/171/11
f 277/22/9 285/22/9 286/151/9
f 333/172/10 274/172/10 275/21/10
f 215/173/7 224/168/7 219/169/7
f 335/22/12 277/22/12 278/174/12
f 203/23/10 219/154/10 244/156/10
f 337/176/12 272/176/12 273/31/12
f 209/18/8 221/151/8 306/153/8
f 205/15/7 220/148/7 223/150/7
f 106/69/11 215/202/11 211/179/11
f 82/93/8 211/178/8 223/150/8
f 105/51/12 79/93/12 223/150/12
f 224/168/10 215/173/10 106/69/10
f 227/180/10 233/197/10 291/181/10
f 243/183/11 232/196/11 230/184/11
f 295/186/12 231/194/12 229/187/12
f 242/185/11 230/184/11 225/189/11
f 294/188/12 229/187/12 226/191/12
f 293/193/12 228/204/12 231/194/12
f 241/195/11 227/241/11 232/196/11
f 233/197/10 228/205/10 293/198/10
f 234/199/8 226/244/8 240/200/8
f 239/201/8 240/200/8 206/38/8
f 203/39/11 241/195/11 243/183/11
f 211/179/11 242/185/11 235/190/11
f 215/202/11 243/183/11 242/185/11
f 235/203/8 239/201/8 220/148/8
f 241/175/10 244/156/10 233/197/10
f 231/194/12 238/162/12 237/163/12
f 229/187/12 237/163/12 240/164/12
f 228/204/12 236/160/12 238/162/12
f 244/156/10 236/155/10 228/205/10
f 262/15/7 248/38/7 551/206/7
f 263/18/8 252/22/8 254/208/8
f 264/21/9 250/31/9 544/210/9
f 261/23/10 246/121/10 258/212/10
f 255/214/11 249/21/11 543/211/11
f 258/216/12 246/355/12 542/217/12
f 250/31/12 256/226/12 545/219/12
f 260/220/11 255/214/11 546/215/11
f 265/222/10 256/227/10 250/31/10
f 266/209/8 254/208/8 259/223/8
f 267/224/8 259/223/8 248/38/8
f 245/39/11 260/220/11 547/221/11
f 256/226/12 258/216/12 548/218/12
f 268/213/10 258/212/10 256/227/10
f 257/224/8 267/224/8 262/15/8
f 253/209/8 266/209/8 267/224/8
f 255/222/10 265/222/10 264/21/10
f 245/23/10 261/23/10 268/213/10
f 249/21/9 264/21/9 549/211/9
f 251/18/8 263/18/8 266/209/8
f 247/15/7 262/15/7 560/207/7
f 255/214/11 260/220/11 235/190/11
f 265/222/9 255/222/9 225/189/9
f 239/201/12 268/213/12 265/222/12
f 235/190/7 260/213/7 268/213/7
f 274/172/9 273/31/9 272/176/9
f 279/229/9 278/174/9 277/22/9
f 280/228/9 272/176/9 278/174/9
f 276/158/9 280/228/9 279/229/9
f 271/171/9 279/229/9 269/151/9
f 275/21/9 274/172/9 280/228/9
f 339/171/11 271/171/11 270/18/11
f 336/31/10 273/31/10 274/172/10
f 338/158/11 276/158/11 271/171/11
f 334/174/12 278/174/12 272/176/12
f 342/151/8 286/151/8 285/22/8
f 340/18/8 283/18/8 286/151/8
f 221/151/7 281/151/7 284/22/7
f 209/18/7 282/18/7 281/151/7
f 269/151/9 286/151/9 283/18/9
f 270/18/11 283/18/11 340/18/11
f 291/181/10 293/198/10 303/230/10
f 303/232/12 293/193/12 295/186/12
f 304/234/12 294/188/12 287/192/12
f 305/233/12 295/186/12 294/188/12
f 288/182/10 291/181/10 301/231/10
f 292/237/8 296/243/8 234/199/8
f 232/196/11 290/242/11 289/239/11
f 230/184/11 289/239/11 292/240/11
f 227/241/11 288/245/11 290/242/11
f 296/243/8 287/246/8 226/244/8
f 298/236/10 301/231/10 222/172/10
f 216/176/12 305/233/12 304/234/12
f 214/174/12 304/234/12 297/235/12
f 208/31/12 303/232/12 305/233/12
f 301/231/10 303/230/10 208/31/10
f 290/242/11 300/159/11 299/165/11
f 289/239/11 299/165/11 302/166/11
f 288/245/11 298/157/11 300/159/11
f 306/153/8 297/152/8 287/246/8
f 324/43/7 310/38/7 308/16/7
f 325/46/8 314/22/8 316/247/8
f 326/49/9 312/31/9 314/22/9
f 323/52/10 308/121/10 320/249/10
f 317/251/11 311/21/11 313/18/11
f 320/253/12 308/355/12 310/29/12
f 312/31/12 318/261/12 316/255/12
f 322/256/11 317/251/11 315/252/11
f 327/258/10 318/262/10 312/31/10
f 328/248/8 316/247/8 321/259/8
f 329/260/8 321/259/8 310/38/8
f 307/39/11 322/256/11 319/257/11
f 318/261/12 320/253/12 321/254/12
f 330/250/10 320/249/10 318/262/10
f 319/263/8 329/260/8 324/43/8
f 315/264/8 328/248/8 329/260/8
f 317/265/10 327/258/10 326/49/10
f 307/23/10 323/52/10 330/250/10
f 311/21/9 326/49/9 325/46/9
f 313/18/8 325/46/8 328/248/8
f 309/15/7 324/43/7 323/117/7
f 317/251/11 322/256/11 292/240/11
f 306/153/9 327/258/9 317/265/9
f 296/243/7 292/240/7 322/266/7
f 331/18/11 340/18/11 353/18/11
f 347/151/8 342/151/8 341/22/8
f 344/174/12 334/174/12 337/176/12
f 346/158/11 338/158/11 339/171/11
f 345/31/10 336/31/10 333/172/10
f 352/171/11 339/171/11 331/18/11
f 351/176/12 337/176/12 336/31/12
f 350/22/12 335/22/12 334/174/12
f 349/172/10 333/172/10 332/21/10
f 343/21/11 332/21/11 338/158/11
f 335/22/12 341/22/12 285/22/12
f 207/21/11 343/21/11 346/158/11
f 222/172/10 349/172/10 343/21/10
f 210/22/12 350/22/12 344/174/12
f 216/176/12 351/176/12 345/31/12
f 213/171/11 352/171/11 348/18/11
f 208/31/10 345/31/10 349/172/10
f 218/158/11 346/158/11 352/171/11
f 214/174/12 344/174/12 351/176/12
f 281/151/8 347/151/8 354/22/8
f 282/18/8 353/18/8 347/151/8
f 348/18/11 353/18/11 282/18/11
f 350/22/12 354/22/12 341/22/12
f 372/43/7 358/38/7 386/267/7
f 373/46/8 362/22/8 364/269/8
f 374/49/9 360/31/9 388/210/9
f 371/52/10 356/121/10 380/272/10
f 365/274/11 359/21/11 387/211/11
f 380/276/12 356/355/12 386/217/12
f 360/31/12 366/288/12 389/278/12
f 370/279/11 365/274/11 390/275/11
f 375/281/10 366/291/10 360/31/10
f 376/270/8 364/269/8 369/282/8
f 377/283/8 369/282/8 397/284/8
f 398/286/11 370/279/11 391/280/11
f 366/288/12 368/316/12 392/289/12
f 378/290/10 368/315/10 366/291/10
f 367/292/8 377/283/8 402/285/8
f 363/294/8 376/270/8 377/283/8
f 365/295/10 375/281/10 374/49/10
f 355/23/10 371/52/10 384/273/10
f 359/21/9 374/49/9 393/271/9
f 361/18/8 373/46/8 376/270/8
f 357/15/7 372/43/7 394/268/7
f 365/274/11 370/279/11 353/18/11
f 375/281/15 365/295/15 340/18/15
f 347/151/16 378/290/16 375/281/16
f 353/18/68 370/317/68 378/290/68
f 296/243/12 330/250/12 327/258/12
f 382/296/10 384/273/10 399/298/10
f 379/300/8 383/303/8 372/43/8
f 385/225/11 355/39/11 382/301/11
f 383/303/8 381/318/8 358/38/8
f 401/304/12 380/276/12 396/277/12
f 384/273/10 380/272/10 401/306/10
f 403/305/12 396/277/12 381/307/12
f 357/40/11 385/225/11 395/302/11
f 385/297/7 394/268/7 371/117/7
f 387/211/9 393/271/9 373/46/9
f 389/278/12 392/289/12 369/310/12
f 404/287/11 391/280/11 367/312/11
f 391/280/11 390/275/11 363/314/11
f 388/210/12 389/278/12 364/311/12
f 396/277/12 386/217/12 358/29/12
f 390/275/11 387/211/11 361/18/11
f 393/271/9 388/210/9 362/22/9
f 394/268/7 386/267/7 356/16/7
f 392/289/12 403/305/12 397/308/12
f 399/298/10 401/306/10 368/315/10
f 368/316/12 401/304/12 403/305/12
f 398/299/10 399/298/10 378/290/10
f 400/293/8 402/285/8 383/303/8
f 382/301/11 398/286/11 404/287/11
f 402/285/8 397/284/8 381/318/8
f 456/268/7 448/336/7 408/38/7
f 449/46/21 412/22/21 417/319/21
f 450/321/9 410/31/9 440/322/9
f 451/324/69 447/52/69 406/121/69
f 418/325/11 409/21/11 442/326/11
f 416/288/12 406/355/12 441/328/12
f 445/330/12 420/337/12 416/288/12
f 439/331/11 405/39/11 415/332/11
f 451/324/20 416/291/20 420/334/20
f 448/336/70 452/338/70 414/269/70
f 453/335/22 420/334/22 410/31/22
f 440/322/12 410/31/12 420/337/12
f 415/332/11 418/325/11 446/327/11
f 454/320/71 417/319/71 414/269/71
f 426/339/11 428/344/11 419/340/11
f 412/22/12 424/348/12 427/342/12
f 407/40/11 421/225/11 426/339/11
f 408/38/9 434/38/9 433/267/9
f 428/344/11 423/211/11 411/18/11
f 455/271/9 424/348/9 412/22/9
f 457/345/7 456/268/7 422/267/7
f 414/269/10 379/309/10 430/309/10
f 404/287/10 427/342/10 425/278/10
f 400/293/8 379/309/8 414/269/8
f 417/319/9 427/342/9 404/287/9
f 429/302/7 431/278/7 432/347/7
f 395/302/24 429/302/24 430/309/24
f 425/278/8 431/278/8 429/302/8
f 431/278/8 425/278/8 436/278/8
f 435/347/72 436/278/72 433/217/72
f 408/38/10 414/269/10 435/269/10
f 422/217/26 433/217/26 436/278/26
f 414/347/7 425/278/7 436/278/7
f 436/278/73 435/347/73 438/347/73
f 414/269/10 432/269/10 438/269/10
f 431/278/29 437/278/29 438/347/29
f 447/117/7 457/345/7 441/346/7
f 444/333/11 446/327/11 428/344/11
f 424/348/12 440/322/12 445/330/12
f 421/225/11 439/331/11 444/333/11
f 427/342/12 445/330/12 443/329/12
f 443/329/12 441/328/12 422/217/12
f 446/327/11 442/326/11 423/211/11
f 458/323/9 440/322/9 424/348/9
f 423/211/9 442/326/9 458/323/9
f 421/297/7 456/268/7 457/345/7
f 411/18/9 423/211/9 455/271/9
f 413/294/74 419/351/74 454/320/74
f 418/350/75 453/335/75 450/321/75
f 407/15/76 413/294/76 452/338/76
f 415/295/77 451/324/77 453/335/77
f 415/295/40 405/23/40 447/52/40
f 442/326/9 409/21/9 450/321/9
f 419/351/78 411/18/78 449/46/78
f 407/15/7 448/336/7 456/268/7
f 460/18/8 462/18/8 526/141/8
f 535/18/11 466/18/11 464/18/11
f 177/133/12 459/133/12 461/133/12
f 179/133/9 461/133/9 526/141/9
f 464/18/7 466/18/7 528/141/7
f 536/133/12 463/133/12 465/133/12
f 540/133/8 465/133/8 528/141/8
f 539/18/10 464/18/10 527/141/10
f 473/18/36 474/22/36 488/269/36
f 467/23/10 468/121/10 496/315/10
f 491/294/79 477/18/79 503/353/79
f 499/310/12 496/316/12 468/355/12
f 492/274/11 478/21/11 477/18/11
f 477/18/9 478/21/9 504/356/9
f 501/317/10 476/23/10 506/23/10
f 476/17/7 475/15/7 505/15/7
f 447/117/12 472/31/12 474/22/12
f 439/349/8 457/345/8 474/22/8
f 471/21/80 472/31/80 447/117/80
f 439/349/11 473/18/11 471/21/11
f 470/38/7 468/16/7 467/17/7
f 481/17/7 480/15/7 469/15/7
f 498/317/81 481/23/81 467/23/81
f 482/21/42 471/21/42 483/21/42
f 487/294/82 494/294/82 479/18/82
f 485/18/9 486/21/9 483/21/9
f 482/21/44 486/21/44 485/18/44
f 473/18/45 484/18/45 483/21/45
f 479/18/46 485/18/46 484/18/46
f 495/292/83 502/292/83 494/294/83
f 482/21/84 493/295/84 489/295/84
f 504/356/85 478/21/85 492/295/85
f 501/279/11 492/274/11 491/314/11
f 474/22/12 472/31/12 490/288/12
f 497/292/86 491/294/86 508/354/86
f 489/295/87 490/291/87 472/31/87
f 487/294/52 488/269/52 499/282/52
f 495/292/53 499/282/53 470/38/53
f 505/15/8 475/15/8 497/292/8
f 475/40/11 476/39/11 501/279/11
f 469/15/88 480/15/88 502/292/88
f 493/295/89 498/317/89 500/317/89
f 537/141/10 527/141/10 463/133/10
f 488/311/12 490/288/12 496/316/12
f 500/317/90 496/315/90 490/291/90
f 493/295/61 507/358/61 510/357/61
f 480/15/91 505/15/91 509/359/91
f 502/292/92 509/359/92 508/354/92
f 482/21/93 504/356/93 507/358/93
f 506/17/7 505/15/7 480/15/7
f 510/357/94 506/23/94 481/23/94
f 503/353/9 504/356/9 482/21/9
f 494/294/95 508/354/95 503/353/95
f 535/18/8 538/352/8 528/141/8
f 527/141/7 528/141/7 465/133/7
f 524/141/9 526/141/9 462/18/9
f 525/141/8 526/141/8 461/133/8
f 519/141/9 524/141/9 180/18/9
f 517/141/7 523/141/7 177/133/7
f 518/143/10 520/143/10 173/21/10
f 171/127/9 522/147/9 519/141/9
f 174/122/9 521/146/9 522/147/9
f 173/21/9 520/143/9 521/146/9
f 512/141/8 517/141/8 161/133/8
f 127/360/7 516/140/7 515/144/7
f 513/143/10 518/143/10 165/21/10
f 121/361/7 515/144/7 514/145/7
f 113/23/10 514/142/10 513/143/10
f 119/18/8 512/141/8 511/139/8
f 115/15/7 511/139/7 516/140/7
f 460/18/8 525/141/8 534/362/8
f 523/141/10 533/141/10 531/133/10
f 178/18/10 530/364/10 533/141/10
f 525/141/8 459/133/8 532/363/8
f 177/133/12 531/133/12 532/363/12
f 460/18/11 529/18/11 530/364/11
f 501/279/11 535/18/11 529/18/11
f 533/141/10 537/141/10 536/133/10
f 530/364/10 539/18/10 537/141/10
f 534/362/8 532/363/8 540/133/8
f 531/133/12 536/133/12 540/133/12
f 529/18/11 535/18/11 539/18/11
f 492/274/96 529/18/96 534/362/96
f 507/358/64 534/362/64 538/352/64
f 501/279/97 510/357/97 538/352/97
f 541/297/7 550/297/7 261/17/7
f 543/211/9 549/211/9 557/365/9
f 545/219/12 548/218/12 556/366/12
f 541/225/11 547/221/11 555/368/11
f 547/221/11 546/215/11 554/370/11
f 544/210/12 545/219/12 553/367/12
f 548/218/12 542/217/12 551/372/12
f 546/215/11 543/211/11 552/365/11
f 549/211/9 544/210/9 559/371/9
f 550/297/7 542/267/7 246/16/7
f 557/365/9 559/371/9 252/22/9
f 554/370/11 552/365/11 251/18/11
f 556/366/12 551/372/12 248/29/12
f 559/371/12 553/367/12 254/375/12
f 555/368/11 554/370/11 253/373/11
f 558/369/11 555/368/11 257/376/11
f 553/367/12 556/366/12 259/374/12
f 552/365/9 557/365/9 263/18/9
f 570/377/7 576/390/7 95/99/7
f 560/207/7 551/206/7 542/267/7
f 562/106/9 575/102/9 586/379/9
f 564/92/9 571/91/9 588/381/9
f 567/89/11 562/106/11 578/380/11
f 569/83/12 561/104/12 577/384/12
f 575/102/9 563/92/9 579/382/9
f 558/369/11 581/382/11 565/92/11
f 579/382/11 563/92/11 565/92/11
f 571/91/12 566/84/12 582/386/12
f 568/86/11 567/89/11 583/383/11
f 570/87/11 568/86/11 584/387/11
f 566/84/12 569/83/12 585/385/12
f 78/95/11 572/389/11 574/389/11
f 574/389/7 573/389/7 80/107/7
f 576/390/7 572/389/7 78/95/7
f 573/389/7 561/396/7 74/391/7
f 582/386/12 585/385/12 68/392/12
f 587/388/11 584/387/11 63/394/11
f 584/387/11 583/383/11 53/395/11
f 588/381/12 582/386/12 54/393/12
f 43/46/11 579/382/11 581/382/11
f 581/382/9 580/382/9 47/46/9
f 586/379/9 579/382/9 43/46/9
f 585/385/12 577/384/12 36/29/12
f 583/383/11 578/380/11 39/18/11
f 580/382/9 588/381/9 40/22/9
f 578/380/9 586/379/9 88/65/9
f 587/114/7 592/68/7 576/390/7
f 572/389/11 589/45/11 591/45/11
f 591/45/7 590/45/7 573/389/7
f 592/68/7 589/45/7 572/389/7
f 590/45/7 577/44/7 561/396/7
f 580/382/66 581/382/66 558/369/66
f 541/225/67 565/92/67 564/92/67
f 560/207/12 550/297/12 564/92/12
o 立方体.002
v 49.999985 -10.000000 300.000000
v 49.999985 0.000000 300.000000
v 49.999992 -10.000000 110.000008
v 49.999992 0.000000 110.000008
v 320.000000 -10.000000 300.000000
v 320.000000 0.000000 300.000000
v 320.000000 -10.000000 110.000008
v 320.000000 0.000000 110.000008
v 499.999969 0.000000 110.000008
v 499.999969 -10.000000 110.000008
v 499.999969 -10.000000 300.000000
v 499.999969 0.000000 300.000000
v 320.000000 0.000000 900.000000
v 320.000000 -10.000000 900.000000
v 499.999969 0.000000 900.000000
v 499.999969 -10.000000 900.000000
v -100.000015 -10.000000 110.000008
v -100.000015 -10.000000 300.000000
v -100.000015 0.000000 300.000000
v -100.000015 0.000000 110.000008
v 49.999992 -265.000031 630.000000
v 49.999992 -255.000015 630.000000
v -100.000015 -265.000031 630.000000
v -100.000015 -255.000015 630.000000
v 49.999992 -270.000000 110.000008
v 49.999985 -270.000000 300.000000
v -100.000015 -270.000000 110.000008
v -100.000015 -270.000000 300.000000
v 49.999992 -275.245819 622.082764
v -100.000015 -275.245819 622.082764
vn -0.0000 1.0000 -0.0000
vn -0.0000 -0.0000 -1.0000
vn -0.0000 -0.0000 1.0000
vn -0.0000 -1.0000 -0.0000
vn 1.0000 -0.0000 -0.0000
vn -1.0000 -0.0000 -0.0000
vn -0.0000 0.7913 0.6114
vn -0.0000 -0.9999 -0.0163
vn -0.0000 -0.6114 0.7913
vt 0.875000 0.750000
vt 0.875000 0.500000
vt 0.625000 0.250000
vt 0.375000 0.500000
vt 0.375000 0.250000
vt 0.625000 0.750000
vt 0.625000 0.500000
vt 0.375000 1.000000
vt 0.375000 0.750000
vt 0.125000 0.750000
vt 0.125000 0.500000
vt 0.625000 0.000000
vt 0.375000 0.000000
vt 0.625000 1.000000
s 0
usemtl 
f 594/397/98 612/398/98 611/397/98
f 596/399/99 599/400/99 595/401/99
f 598/402/98 601/403/98 600/403/98
f 598/402/100 593/404/100 597/405/100
f 599/400/101 593/406/101 595/407/101
f 596/398/98 598/402/98 600/403/98
f 601/403/102 603/405/102 602/400/102
f 600/403/99 602/400/99 599/400/99
f 604/402/102 608/405/102 603/405/102
f 599/400/101 603/405/101 597/405/101
f 606/405/100 607/402/100 605/402/100
f 597/405/103 605/402/103 598/402/103
f 598/402/98 607/402/98 604/402/98
f 603/405/101 606/405/101 597/405/101
f 611/408/103 609/401/103 610/409/103
f 593/406/102 617/407/102 595/407/102
f 595/401/99 612/399/99 596/399/99
f 611/397/104 614/397/104 594/397/104
f 614/410/100 615/404/100 613/404/100
f 610/409/103 616/408/103 611/408/103
f 593/404/102 614/410/102 613/404/102
f 613/404/102 618/404/102 593/404/102
f 618/406/101 619/407/101 617/407/101
f 610/406/100 618/406/100 593/406/100
f 609/401/103 620/409/103 610/409/103
f 595/401/99 619/401/99 609/401/99
f 618/406/105 622/406/105 620/406/105
f 615/404/106 621/404/106 613/404/106
f 615/409/103 620/409/103 622/409/103
f 594/397/98 596/398/98 612/398/98
f 596/399/99 600/403/99 599/400/99
f 598/402/98 604/402/98 601/403/98
f 598/402/100 594/410/100 593/404/100
f 599/400/101 597/405/101 593/406/101
f 596/398/98 594/397/98 598/402/98
f 601/403/102 604/402/102 603/405/102
f 600/403/99 601/403/99 602/400/99
f 604/402/102 607/402/102 608/405/102
f 599/400/101 602/400/101 603/405/101
f 606/405/100 608/405/100 607/402/100
f 597/405/103 606/405/103 605/402/103
f 598/402/98 605/402/98 607/402/98
f 603/405/101 608/405/101 606/405/101
f 611/408/103 612/399/103 609/401/103
f 593/406/102 618/406/102 617/407/102
f 595/401/99 609/401/99 612/399/99
f 611/397/104 616/397/104 614/397/104
f 614/410/100 616/410/100 615/404/100
f 610/409/103 615/409/103 616/408/103
f 593/404/102 594/410/102 614/410/102
f 613/404/102 621/404/102 618/404/102
f 618/406/101 620/406/101 619/407/101
f 610/406/100 620/406/100 618/406/100
f 609/401/103 619/401/103 620/409/103
f 595/401/99 617/401/99 619/401/99
f 618/406/105 621/406/105 622/406/105
f 615/404/106 622/404/106 621/404/106
f 615/409/103 610/409/103 620/409/103
